<svg id="Capa_1" enable-background="new 0 0 512 512" height="512" viewBox="0 0 512 512" width="512" xmlns="http://www.w3.org/2000/svg"><g><path d="m256 0c-38.809 0-69.818 31.507-69.818 69.818v23.014h38.788v-23.014c0-17.126 13.896-31.03 31.03-31.03 17.125 0 31.03 13.895 31.03 31.03v23.014h38.788v-23.014c0-38.229-30.942-69.818-69.818-69.818z" fill="#443d5d"/><path d="m287.03 69.818v23.014h38.788v-23.014c0-8.355-1.472-16.364-4.163-23.79h-45.737c6.791 5.692 11.112 14.235 11.112 23.79z" fill="#39324d"/><path d="m186.182 92.832h38.788v-23.014c0-9.556 4.321-18.098 11.113-23.79h-45.737c-2.691 7.425-4.163 15.435-4.163 23.79v23.014z" fill="#39324d"/><path d="m125.673 446.236c0 36.32 29.443 65.764 65.764 65.764h169.467c36.32 0 65.764-29.443 65.764-65.764v-200.062h-241.65c-32.776 0-59.346 26.57-59.346 59.346v140.716z" fill="#77dc98"/><path d="m426.667 256.517v-50.941c-11.022 0-323.179 0-341.333 0v240.661c0 36.32 29.443 65.764 65.764 65.764h50.683c-36.316 0-65.763-29.448-65.763-65.764v-130.331c0-32.799 26.589-59.389 59.388-59.389z" fill="#6cc789"/><path d="m186.182 442.182v-139.636c0-12.483-7.437-23.549-18.622-28.44-14.348-4.401-28.958 15.717-28.958 28.44v139.636c0 12.724 8.931 30.086 28.962 28.441 10.958-4.788 18.618-15.717 18.618-28.441z" fill="#f6e19e"/><path d="m148.945 442.182v-139.636c0-12.723 7.658-23.65 18.614-28.44-3.801-1.662-7.996-2.591-12.408-2.591-17.139 0-31.03 13.891-31.03 31.03v139.636c0 17.139 13.891 31.03 31.03 31.03 4.415 0 8.61-.928 12.412-2.589-10.958-4.787-18.618-15.716-18.618-28.44z" fill="#f1cc71"/><path d="m287.046 442.182v-139.636c0-12.483-7.437-23.549-18.622-28.44-14.348-4.401-28.958 15.717-28.958 28.44v139.636c0 12.724 8.931 30.086 28.962 28.441 10.958-4.788 18.618-15.717 18.618-28.441z" fill="#f6e19e"/><path d="m249.809 442.182v-139.636c0-12.723 7.658-23.65 18.614-28.44-3.801-1.662-7.996-2.591-12.408-2.591-17.139 0-31.03 13.891-31.03 31.03v139.636c0 17.139 13.891 31.03 31.03 31.03 4.415 0 8.61-.928 12.412-2.589-10.957-4.787-18.618-15.716-18.618-28.44z" fill="#f1cc71"/><path d="m387.879 442.182v-139.636c0-12.483-7.437-23.549-18.622-28.44-14.348-4.401-28.958 15.717-28.958 28.44v139.636c0 12.724 8.931 30.086 28.962 28.441 10.958-4.788 18.618-15.717 18.618-28.441z" fill="#f6e19e"/><path d="m350.642 442.182v-139.636c0-12.723 7.658-23.65 18.614-28.44-3.801-1.662-7.996-2.591-12.408-2.591-17.139 0-31.03 13.891-31.03 31.03v139.636c0 17.139 13.891 31.03 31.03 31.03 4.415 0 8.61-.928 12.412-2.589-10.958-4.787-18.618-15.716-18.618-28.44z" fill="#f1cc71"/><path d="m348.398 69.818c-17.988 0-125.293 0-143.422 0-30.379 0-54.996 24.617-54.996 54.996v41.958h253.414v-41.958c0-30.378-24.617-54.996-54.996-54.996z" fill="#5a557c"/><path d="m225.663 69.818c-13.623 0-49.427 0-62.061 0-30.379 0-54.996 24.617-54.996 54.996v41.958h62.061v-41.958c0-30.378 24.617-54.996 54.996-54.996z" fill="#443d5d"/><path d="m473.212 187.909v-3.455c0-24.752-20.066-44.818-44.818-44.818-13.286 0-290.132 0-311.172 0-24.752 0-44.818 20.066-44.818 44.818v3.455c0 24.752 20.066 44.818 44.818 44.818h311.172c24.752 0 44.818-20.066 44.818-44.818z" fill="#82efb7"/><path d="m93.091 187.909v-3.455c0-24.752 20.066-44.818 44.818-44.818-8.656 0-40.76 0-54.303 0-24.752 0-44.818 20.066-44.818 44.818v3.455c0 24.752 20.066 44.818 44.818 44.818h54.303c-24.752 0-44.818-20.066-44.818-44.818z" fill="#77dc98"/><g fill="#303646"><path d="m190.547 196.163c-.002 0-.004 0-.007 0-4.284-.003-7.755-3.48-7.751-7.764l.01-12.288c.004-4.282 3.476-7.751 7.758-7.751h.007c4.284.003 7.754 3.48 7.751 7.764l-.01 12.288c-.004 4.282-3.477 7.751-7.758 7.751z"/><path d="m321.495 196.287c-.002 0-.004 0-.007 0-4.284-.004-7.754-3.48-7.751-7.764l.01-12.278c.004-4.282 3.476-7.751 7.758-7.751h.007c4.284.004 7.754 3.48 7.751 7.764l-.01 12.278c-.004 4.282-3.477 7.751-7.758 7.751z"/><path d="m273.274 201.697c-20.738-.018-13.856-.012-34.523-.031-4.284-.004-7.755-3.48-7.751-7.765.004-4.282 3.477-7.751 7.758-7.751 20.739.019 13.856.012 34.523.031 4.284.004 7.754 3.48 7.75 7.765-.004 4.282-3.477 7.751-7.757 7.751z"/></g></g></svg>