<svg id="Capa_1" enable-background="new 0 0 512 512" viewBox="0 0 512 512" xmlns="http://www.w3.org/2000/svg"><g><g><circle cx="57.175" cy="273.374" fill="#dbdbfa" r="41.207"/></g><g><circle cx="454.825" cy="273.374" fill="#dbdbfa" r="41.207"/></g><g><path d="m393.014 176.801c-33.9 0-61.411 27.293-61.793 61.102h-150.442c-.382-33.809-27.893-61.102-61.793-61.102-34.137 0-61.811 27.674-61.811 61.811s27.674 61.811 61.811 61.811v34.487h274.028v-34.487c34.137 0 61.811-27.674 61.811-61.811s-27.674-61.811-61.811-61.811z" fill="#edecff"/></g><g><path d="m256 224.961v.001-.001c-47.582 0-86.154 38.573-86.154 86.154h172.308c0-47.582-38.572-86.154-86.154-86.154z" fill="#2b4c87"/></g><g><path d="m142.204 19.244c-10.253 26.4-20.712 74.917 8.403 129.047l55.638-21.165-36.187-93.662z" fill="#1e4072"/></g><g><g><path d="m146.804 33.464c6.421 6.421 16.832 6.421 23.253 0l36.187 93.662 57.52-21.881c-12.451-77.599-69.993-99.008-97.104-104.825-8.551-1.835-17.235 2.471-20.895 10.414-1.14 2.475-2.349 5.29-3.561 8.41-.799 5.025.728 10.347 4.6 14.22z" fill="#2b4c87"/></g></g><g><path d="m167.61 108.557c-9.085-30.657-3.997-57.296 2.448-75.094 9.468 3.026 20.638 8.086 30.991 16.537 11.374 9.284 19.951 21.366 25.643 36.081z" fill="#f8485e"/></g><g><path d="m341.942 33.464-10.13-29.389c-29.368 9.58-72.936 34.855-83.577 101.17l49.525 18.84z" fill="#2b4c87"/></g><g><path d="m366.235 10.834c-3.66-7.944-12.343-12.249-20.895-10.414-3.943.846-8.535 2.028-13.533 3.66-3.838 3.01-6.307 7.686-6.307 12.942 0 9.081 7.362 16.442 16.442 16.442l-44.182 90.621 63.633 24.207c32.557-60.528 15.631-114.042 4.842-137.458z" fill="#3b5a9a"/></g><g><path d="m285.308 86.082c5.692-14.715 14.269-26.797 25.643-36.081 10.353-8.451 21.523-13.511 30.991-16.537 6.445 17.798 11.533 44.437 2.448 75.094z" fill="#ff6e7f"/></g><g><path d="m300.277 60.651c-13.756-5.243-28.679-8.122-44.277-8.122-68.686 0-124.368 55.681-124.368 124.368 0 39.697 34.978 66.555 78.702 78.271 29.424 7.885 60.469 8.001 89.943.36-.464-.12 0-194.877 0-194.877z" fill="#3b5a9a"/></g><g><path d="m300.274 60.65c-46.821 17.846-80.088 63.156-80.088 116.244 0 39.697 34.979 66.555 78.702 78.271.455.122.911.236 1.366.354.47-.122.944-.228 1.414-.354 43.723-11.716 78.702-38.575 78.702-78.271-.002-53.089-33.272-98.4-80.096-116.244z" fill="#5972a4"/></g><g><path d="m266.364 141.268c-.716-.25-1.449-.476-2.198-.676-5.344-1.432-10.988-1.432-16.332 0-7.819 2.095-14.074 6.898-14.074 13.997 0 12.283 9.957 22.24 22.24 22.24 3.744 0 7.269-.929 10.364-2.563z" fill="#1e4072"/></g><g><g><path d="m266.351 141.273c-6.754 2.361-11.863 6.901-11.863 13.316 0 8.536 4.812 15.945 11.869 19.673 7.063-3.726 11.882-11.132 11.882-19.673.001-6.422-5.124-10.957-11.888-13.316z" fill="#2b4c87"/></g></g><g><path d="m203.214 450.189h-82.414c-17.069 0-30.905 13.837-30.905 30.905s13.836 30.906 30.905 30.906h82.414z" fill="#3dc5ea"/></g><g><path d="m391.2 450.189h-187.986c-17.069 0-30.905 13.837-30.905 30.905s13.837 30.906 30.905 30.906h187.986c17.069 0 30.905-13.837 30.905-30.905s-13.836-30.906-30.905-30.906z" fill="#5ad5fe"/></g><g><path d="m99.247 334.91h-82.415l33.223 86.036c9.202 23.83 32.116 39.545 57.661 39.545h82.414z" fill="#5ad5fe"/></g><g><path d="m99.247 334.91 33.223 86.036c9.202 23.83 32.116 39.545 57.661 39.545h131.738 82.414c25.545 0 48.459-15.714 57.661-39.545l33.223-86.036z" fill="#a3e6ff"/></g><g><circle cx="57.175" cy="125.872" fill="#edecff" r="30.905"/></g><g><path d="m161.149 276.606c-2.821.031-5.567.377-8.203 1.005-8.253 1.966-16.968.34-23.62-4.926-7.897-6.253-17.878-9.988-28.734-9.988-10.77 0-20.676 3.679-28.543 9.843-10.84 8.485-17.815 21.681-17.815 36.515 0 17.45 9.646 32.641 23.892 40.551-.025-.014-.05-.025-.075-.039 6.671 3.723 14.357 5.846 22.541 5.846s15.869-2.123 22.541-5.846c7.415-4.138 16.31-4.918 24.144-1.643 4.397 1.838 9.223 2.853 14.287 2.853 20.481 0 37.085-16.602 37.087-37.083.001-20.482-17.021-37.313-37.502-37.088z" fill="#fff"/></g><g><path d="m350.851 276.606c2.821.031 5.567.377 8.203 1.005 8.253 1.966 16.968.34 23.62-4.926 7.897-6.253 17.878-9.988 28.734-9.988 10.77 0 20.676 3.679 28.543 9.843 10.84 8.485 17.815 21.681 17.815 36.515 0 17.45-9.646 32.641-23.892 40.551.025-.014.05-.025.075-.039-6.671 3.723-14.357 5.846-22.541 5.846s-15.869-2.123-22.541-5.846c-7.415-4.138-16.31-4.918-24.144-1.643-4.397 1.838-9.223 2.853-14.287 2.853-20.481 0-37.085-16.602-37.087-37.083-.001-20.482 17.021-37.313 37.502-37.088z" fill="#fff"/></g><g><path d="m113.32 309.156h-82.415c-17.068 0-30.905 13.837-30.905 30.905 0 17.069 13.837 30.905 30.905 30.905h82.414v-61.81z" fill="#3dc5ea"/></g><g><path d="m481.095 309.156h-367.775c-17.069 0-30.905 13.837-30.905 30.905 0 17.069 13.837 30.905 30.905 30.905h367.775c17.069 0 30.905-13.837 30.905-30.905 0-17.068-13.837-30.905-30.905-30.905z" fill="#5ad5fe"/></g><g fill="#fff"><path d="m277.235 207.391c-1.52 1.52-3.54 2.356-5.689 2.356-4.437 0-8.046-3.609-8.046-8.046 0-4.142-3.358-7.5-7.5-7.5s-7.5 3.358-7.5 7.5c0 4.437-3.609 8.046-8.046 8.046-2.149 0-4.17-.837-5.689-2.356-2.929-2.929-7.678-2.929-10.606 0-2.929 2.929-2.929 7.678 0 10.606 4.353 4.353 10.14 6.75 16.296 6.75 5.986 0 11.444-2.295 15.546-6.05 4.102 3.755 9.56 6.05 15.546 6.05 6.156 0 11.943-2.397 16.296-6.75 2.929-2.929 2.929-7.678 0-10.606-2.93-2.929-7.679-2.929-10.608 0z"/><path d="m193.816 134.696c-4.142 0-7.5 3.358-7.5 7.5v11.589c0 4.142 3.358 7.5 7.5 7.5s7.5-3.358 7.5-7.5v-11.589c0-4.142-3.358-7.5-7.5-7.5z"/><path d="m318.184 134.696c-4.142 0-7.5 3.358-7.5 7.5v11.589c0 4.142 3.358 7.5 7.5 7.5s7.5-3.358 7.5-7.5v-11.589c0-4.142-3.358-7.5-7.5-7.5z"/></g></g><g/><g/><g/><g/><g/><g/><g/><g/><g/><g/><g/><g/><g/><g/><g/></svg>