<?xml version="1.0" encoding="iso-8859-1"?>
<!-- Generator: Adobe Illustrator 19.0.0, SVG Export Plug-In . SVG Version: 6.00 Build 0)  -->
<svg version="1.1" id="Capa_1" xmlns="http://www.w3.org/2000/svg" xmlns:xlink="http://www.w3.org/1999/xlink" x="0px" y="0px"
	 viewBox="0 0 512.001 512.001" style="enable-background:new 0 0 512.001 512.001;" xml:space="preserve">
<path style="fill:#42C3E2;" d="M278.884,160.554c-6.139,0-12.031,1.037-17.532,2.923c-8.718-30.339-36.656-52.544-69.798-52.544
	c-24.288,0-45.774,11.932-58.962,30.241c-5.984-1.347-12.201-2.082-18.593-2.082c-46.563,0-84.311,37.747-84.311,84.311
	c0,46.563,37.747,84.311,84.311,84.311c34.93,0,64.898-21.242,77.693-51.512c15.352-0.029,29.576-4.831,41.295-12.985
	c9.551,15.302,26.53,25.491,45.897,25.491c29.865,0,54.075-24.21,54.075-54.075S308.748,160.554,278.884,160.554z"/>
<path style="fill:#00A6C8;" d="M60.593,223.4c0-41.276,29.671-75.602,68.843-82.87c-5.006-0.933-10.161-1.441-15.437-1.441
	c-46.563,0-84.311,37.748-84.311,84.311c0,46.564,37.747,84.311,84.311,84.311c5.296,0,10.475-0.496,15.5-1.429
	C90.296,299.04,60.593,264.7,60.593,223.4z"/>
<circle style="fill:#42C3E2;" cx="274.203" cy="68.682" r="30.562"/>
<path style="fill:#00A6C8;" d="M294.804,88.939c-16.878,0-30.562-13.683-30.562-30.562c0-7.727,2.874-14.78,7.603-20.161
	c-15.777,1.203-28.206,14.377-28.206,30.462c0,16.878,13.683,30.562,30.562,30.562c9.151,0,17.358-4.028,22.959-10.401
	C296.381,88.899,295.597,88.939,294.804,88.939z"/>
<circle style="fill:#42C3E2;" cx="374.079" cy="142.124" r="37.087"/>
<path style="fill:#00A6C8;" d="M394.686,158.604c-20.482,0-37.087-16.604-37.087-37.087c0-4.884,0.954-9.544,2.669-13.814
	c-13.639,5.48-23.273,18.819-23.273,34.417c0,20.482,16.604,37.087,37.087,37.087c15.598,0,28.938-9.634,34.417-23.273
	C404.23,157.65,399.57,158.604,394.686,158.604z"/>
<circle style="fill:#42C3E2;" cx="378.653" cy="49.106" r="23.694"/>
<path style="fill:#00A6C8;" d="M388.958,57.347c-13.086,0-23.694-10.608-23.694-23.694c0-1.492,0.144-2.948,0.408-4.364
	c-6.449,4.234-10.71,11.526-10.71,19.817c0,13.086,10.608,23.694,23.694,23.694c11.595,0,21.237-8.33,23.286-19.33
	C398.213,55.917,393.754,57.347,388.958,57.347z"/>
<g>
	<path style="fill:#D4D2D3;" d="M148.174,394.559l-27.184,29.532c0,0-29.369,27.028-36.511,52.221
		c-1.463,5.161,2.49,10.277,7.855,10.277h22.629c3.784,0,7.014-2.619,7.921-6.292c6.474-26.238,49.614-56.205,49.614-56.205
		L148.174,394.559z"/>
	<path style="fill:#D4D2D3;" d="M360.391,394.559l27.184,29.532c0,0,29.369,27.028,36.511,52.221
		c1.463,5.161-2.49,10.277-7.855,10.277h-22.63c-3.784,0-7.014-2.619-7.921-6.292c-6.474-26.238-49.614-56.205-49.614-56.205
		L360.391,394.559z"/>
</g>
<g>
	<path style="fill:#9E9C9D;" d="M387.576,424.092l-27.184-29.532l-24.325,29.532c0,0,30.771,21.376,44.237,43.826
		c11.654-3.015,22.953-7.211,33.722-12.512C402.831,438.133,387.576,424.092,387.576,424.092z"/>
	<path style="fill:#9E9C9D;" d="M148.174,394.559l-27.184,29.532c0,0-15.255,14.041-26.45,31.315
		c10.768,5.3,22.068,9.496,33.722,12.512c13.465-22.451,44.237-43.826,44.237-43.826L148.174,394.559z"/>
</g>
<path style="fill:#EFEDEE;" d="M485.345,280.78c-0.779-6.593-1.66-10.366-1.66-10.366L256,245.533L24.881,270.414
	c0,0-0.881,3.773-1.66,10.366c-10.516,88.966,59.501,167.005,149.087,167.005h163.951
	C425.845,447.786,495.862,369.747,485.345,280.78z"/>
<g>
	<path style="fill:#D4D2D3;" d="M54.126,280.78c0.779-6.593,1.66-10.366,1.66-10.366l215.551-23.205l-15.337-1.676L24.881,270.414
		c0,0-0.881,3.773-1.66,10.366c-10.516,88.966,59.501,167.005,149.087,167.005h30.905C113.627,447.786,43.61,369.747,54.126,280.78z
		"/>
	<path style="fill:#D4D2D3;" d="M487.119,220.653H24.881C11.139,220.653,0,231.793,0,245.533s11.139,24.881,24.881,24.881H487.12
		c13.742,0,24.881-11.139,24.881-24.881S500.861,220.653,487.119,220.653z"/>
</g>
<path style="fill:#BAB8B9;" d="M30.905,245.534c0-13.742,11.139-24.881,24.881-24.881H24.881C11.139,220.653,0,231.793,0,245.534
	c0,13.741,11.139,24.881,24.881,24.881h30.905C42.045,270.414,30.905,259.275,30.905,245.534z"/>
<g>
	<path style="fill:#3A484A;" d="M153.603,359.832c-4.267,0-7.726-3.459-7.726-7.726v-18.222c0-4.267,3.459-7.726,7.726-7.726
		c4.267,0,7.726,3.459,7.726,7.726v18.222C161.329,356.373,157.87,359.832,153.603,359.832z"/>
	<path style="fill:#3A484A;" d="M354.962,359.832c-4.267,0-7.726-3.459-7.726-7.726v-18.222c0-4.267,3.459-7.726,7.726-7.726
		c4.267,0,7.726,3.459,7.726,7.726v18.222C362.689,356.373,359.229,359.832,354.962,359.832z"/>
	<path style="fill:#3A484A;" d="M254.283,369.558c-11.914,0-23.093-4.97-30.666-13.635c-2.808-3.213-2.481-8.094,0.732-10.902
		c3.212-2.807,8.093-2.481,10.902,0.732c4.64,5.309,11.576,8.353,19.032,8.353s14.392-3.044,19.032-8.353
		c2.808-3.213,7.689-3.541,10.902-0.732c3.213,2.808,3.541,7.689,0.732,10.902C277.375,364.588,266.198,369.558,254.283,369.558z"/>
</g>
<g>
</g>
<g>
</g>
<g>
</g>
<g>
</g>
<g>
</g>
<g>
</g>
<g>
</g>
<g>
</g>
<g>
</g>
<g>
</g>
<g>
</g>
<g>
</g>
<g>
</g>
<g>
</g>
<g>
</g>
</svg>
