<svg id="Capa_1" enable-background="new 0 0 512 512" height="512" viewBox="0 0 512 512" width="512" xmlns="http://www.w3.org/2000/svg"><path d="m148.089 439.887h-82.415c-11.379 0-20.604-9.225-20.604-20.604v-316.265c0-28.448 23.061-51.509 51.509-51.509 28.448 0 51.509 23.061 51.509 51.509v336.869z" fill="#f2f6fc"/><path d="m148.089 439.887v-336.869c0-28.448-23.061-51.509-51.509-51.509v388.378z" fill="#e9edf5"/><path d="m45.07 347.171h103.018v41.207h-103.018z" fill="#9bc5ff"/><path d="m96.579 347.171h51.509v41.207h-51.509z" fill="#82baff"/><path d="m470.793 20.604v25.755c0 2.845-2.306 5.151-5.151 5.151h-50.222l-150.081 21-161.339-21.001h-57.642c-2.845 0-5.151-2.306-5.151-5.151v-25.754c0-11.379-9.224-20.604-20.603-20.604-11.379 0-20.604 9.225-20.604 20.604v30.905c0 22.758 18.449 41.207 41.207 41.207h429.586c22.758 0 41.207-18.449 41.207-41.207v-30.905c0-11.379-9.225-20.604-20.604-20.604-11.379 0-20.603 9.225-20.603 20.604z" fill="#707789"/><path d="m41.207 72.113h429.586c11.379 0 20.604-9.225 20.604-20.604v-51.509c-11.379 0-20.604 9.225-20.604 20.604v25.755c0 2.845-2.306 5.151-5.151 5.151h-50.222l-150.081 17-161.339-17.001h-57.642c-2.845 0-5.151-2.306-5.151-5.151v-25.754c0-11.379-9.224-20.604-20.603-20.604v51.509c0 11.379 9.224 20.604 20.603 20.604z" fill="#636978"/><path d="m415.421 51.509h-318.842c28.448 0 51.509 23.061 51.509 51.509v388.378c0 11.379 9.225 20.604 20.604 20.604h277.634c11.379 0 20.604-9.225 20.604-20.604v-388.378c0-28.448-23.062-51.509-51.509-51.509z" fill="#f2f6fc"/><path d="m256.043 181.379c-.04 12.848-13.152 23.222-29.285 23.171s-29.179-10.506-29.139-23.354 13.151-23.222 29.285-23.172c16.133.051 29.179 10.507 29.139 23.355z" fill="#ffb9d5"/><path d="m355.957 181.692c-.04 12.848 13.006 23.304 29.139 23.354 16.133.051 29.245-10.323 29.285-23.171s-13.006-23.304-29.139-23.355c-16.133-.05-29.245 10.324-29.285 23.172z" fill="#ffb9d5"/><g fill="#555a66"><path d="m329.608 163.735c.046-14.555-10.495-15.956-23.502-15.997s-23.556 1.294-23.602 15.849 10.462 26.387 23.469 26.428c13.008.042 23.589-11.725 23.635-26.28z"/><path d="m257.839 163.57c-.008 0-.016 0-.024 0-4.142-.013-7.489-3.382-7.476-7.524.005-1.71-.656-3.321-1.861-4.534s-2.812-1.884-4.522-1.89c-.007 0-.014 0-.02 0-3.522 0-6.394 2.859-6.404 6.384-.013 4.134-3.369 7.477-7.5 7.477-.008 0-.016 0-.024 0-4.142-.013-7.489-3.381-7.477-7.523.037-11.779 9.632-21.337 21.403-21.337h.068c5.717.018 11.085 2.261 15.116 6.316 4.03 4.056 6.239 9.438 6.221 15.155-.013 4.134-3.369 7.476-7.5 7.476z"/><path d="m382.128 163.959c-.008 0-.016 0-.024 0-4.142-.013-7.489-3.381-7.477-7.523.011-3.531-2.853-6.413-6.385-6.424-.007 0-.014 0-.02 0-3.522 0-6.393 2.86-6.404 6.385-.013 4.134-3.369 7.476-7.5 7.476-.008 0-.016 0-.024 0-4.142-.013-7.489-3.382-7.476-7.524.038-11.779 9.633-21.337 21.403-21.337h.068c11.802.038 21.374 9.669 21.337 21.471-.011 4.133-3.367 7.476-7.498 7.476z"/></g><path d="m148.089 419.284h318.841v41.207h-318.841z" fill="#9bc5ff"/></svg>