<svg id="Capa_1" enable-background="new 0 0 512 512" height="512" viewBox="0 0 512 512" width="512" xmlns="http://www.w3.org/2000/svg"><g><path d="m108.604 233.475c-59.984 0-108.604 48.619-108.604 108.604 0 59.984 48.62 108.605 108.604 108.605 59.985 0 108.605-48.621 108.605-108.605 0-59.985-48.62-108.604-108.605-108.604zm0 170.659c-34.278 0-62.055-27.777-62.055-62.055 0-34.279 27.777-62.066 62.055-62.066s62.066 27.787 62.066 62.066c0 34.278-27.787 62.055-62.066 62.055z" fill="#6b7d8e"/><path d="m403.396 233.475c-59.985 0-108.605 48.62-108.605 108.605 0 59.984 48.62 108.605 108.605 108.605 59.984-.001 108.604-48.621 108.604-108.606s-48.62-108.604-108.604-108.604zm0 170.659c-34.278 0-62.066-27.777-62.066-62.055 0-34.279 27.788-62.066 62.066-62.066s62.055 27.787 62.055 62.066c0 34.278-27.777 62.055-62.055 62.055z" fill="#6b7d8e"/><path d="m408.805 357.245c-12.261 2.163-24.037-6.007-26.221-18.349l-12.508-65.981c-1.215-6.883-8.788-10.582-14.97-7.316-24.634 13.024-51.897 31.239-73.131 48.703-45.241-9.386-11.601-48.424-11.601-48.424 25.912-19.452 55.585-37.555 81.847-49.29l-93.593 12.167c-53.462-12.9-9.963-44.324-9.963-44.324l92.748-12.065c5.821-.752 9.829-6.223 8.81-12.003l-6.955-39.44c-2.164-12.312 6.047-24.047 18.36-26.221 12.312-2.163 24.047 6.048 26.211 18.36l39.317 217.971c2.172 12.303-6.049 24.038-18.351 26.212z" fill="#a4e7ff"/><path d="m281.974 314.302c-15.681 12.879-28.076 25.366-33.732 35.061-6.254 10.726-20.08 14.487-30.95 8.15-10.798-6.294-14.445-20.152-8.139-30.951 10.334-17.732 33.639-39.976 61.221-60.685-3.112 13.539-3.009 31.868 11.6 48.425z" fill="#5ad6ff"/><path d="m258.627 228.756-48.867 6.357c-2.988.391-5.657 2.071-7.305 4.595l-73.307 112.602c-6.841 10.509-20.874 13.415-31.311 6.614-10.468-6.821-13.435-20.832-6.615-31.311l72.76-111.758c1.721-2.657 2.133-5.954 1.113-8.953l-18.515-54.256c-4.039-11.827 2.277-24.686 14.105-28.725 11.827-4.039 24.686 2.287 28.725 14.115l14.96 43.829c1.587 4.636 6.223 7.521 11.076 6.892l33.217-4.327c-4.285 13.149-6.943 33.002 9.964 44.326z" fill="#5ad6ff"/><path d="m320.129 116.296c-4.499-12.363 1.874-26.031 14.237-30.531l63.21-23.007c12.36-4.498 26.031 1.875 30.531 14.236 4.499 12.363-1.874 26.031-14.237 30.531l-63.21 23.007c-12.457 4.531-26.064-1.964-30.531-14.236z" fill="#6b7d8e"/><path d="m222.358 154.27h-90.681c-13.156 0-23.82-10.665-23.82-23.82 0-13.156 10.664-23.82 23.82-23.82h90.681c13.156 0 23.82 10.664 23.82 23.82 0 13.155-10.664 23.82-23.82 23.82z" fill="#6b7d8e"/><path d="m225.505 365.351h-117.435c-12.558 0-22.738-10.18-22.738-22.738v-1.07c0-12.558 10.18-22.738 22.738-22.738h117.434c12.558 0 22.738 10.18 22.738 22.738v1.07c0 12.558-10.18 22.738-22.737 22.738z" fill="#00c5fd"/><path d="m194.26 362.999h85.334v31.03h-85.334z" fill="#546370" transform="matrix(.28 .96 -.96 .28 534.052 45.162)"/><circle cx="224.97" cy="342.079" fill="#6b7d8e" r="23.273"/><path d="m271.515 435.17h-23.273c-8.569 0-15.515-6.946-15.515-15.515 0-8.569 6.946-15.515 15.515-15.515h23.273c8.569 0 15.515 6.947 15.515 15.515 0 8.568-6.946 15.515-15.515 15.515z" fill="#a4e7ff"/></g></svg>