<svg id="Capa_1" enable-background="new 0 0 512 512" viewBox="0 0 512 512" xmlns="http://www.w3.org/2000/svg"><g><g><path d="m225.095 179.509v152.982c0 30.866-25.022 55.887-55.887 55.887-30.866 0-55.887-25.022-55.887-55.887v-188.266h-61.812v188.266c0 65.003 52.695 117.698 117.698 117.698 65.003 0 117.698-52.695 117.698-117.698v-152.982c0-30.866 25.022-55.887 55.887-55.887 30.866 0 55.887 25.022 55.887 55.887v188.266h61.811v-188.266c0-65.003-52.695-117.698-117.698-117.698-65.002 0-117.697 52.695-117.697 117.698z" fill="#b2d3ff"/></g><g><path d="m256 286.905c-17.069 0-30.905-13.837-30.905-30.905v76.491c0 30.866-25.022 55.887-55.887 55.887-30.866 0-55.887-25.022-55.887-55.887v-188.266h-61.812v188.266c0 65.003 52.695 117.698 117.698 117.698 65.003 0 117.698-52.695 117.698-117.698v-76.491c0 17.069-13.836 30.905-30.905 30.905z" fill="#9bc5ff"/></g><g><path d="m144.225 20.604v103.018h-123.621v-103.018c0-11.379 9.224-20.604 20.603-20.604h82.414c11.38 0 20.604 9.225 20.604 20.604z" fill="#e9edf5"/></g><g><path d="m103.018 0h-61.811c-11.379 0-20.603 9.225-20.603 20.604v103.018h61.811v-103.018c-.001-11.379 9.224-20.604 20.603-20.604z" fill="#dce1eb"/></g><g><path d="m164.829 82.414v61.811c0 45.516-36.898 82.414-82.414 82.414-45.517.001-82.415-36.897-82.415-82.414v-61.811c0-11.379 9.225-20.604 20.604-20.604h123.622c11.378.001 20.603 9.225 20.603 20.604z" fill="#636978"/></g><g><path d="m61.811 144.225v-61.811c0-11.379 9.225-20.604 20.604-20.604h-61.811c-11.379.001-20.604 9.225-20.604 20.604v61.811c0 45.516 36.898 82.414 82.414 82.414 10.933 0 21.359-2.148 30.905-6.014-30.197-12.227-51.508-41.816-51.508-76.4z" fill="#555a66"/></g><g><path d="m491.396 491.396v-103.018h-123.621v103.018c0 11.379 9.225 20.604 20.604 20.604h82.414c11.379 0 20.603-9.225 20.603-20.604z" fill="#e9edf5"/></g><g><path d="m450.189 512h-61.811c-11.379 0-20.604-9.225-20.604-20.604v-103.018h61.811v103.018c.001 11.379 9.225 20.604 20.604 20.604z" fill="#dce1eb"/></g><g><path d="m512 429.586v-61.811c0-45.516-36.898-82.414-82.414-82.414-45.516 0-82.414 36.898-82.414 82.414v61.811c0 11.379 9.225 20.604 20.604 20.604h123.622c11.377-.001 20.602-9.225 20.602-20.604z" fill="#636978"/></g><g><path d="m408.982 367.775v61.811c0 11.379 9.225 20.604 20.604 20.604h-61.811c-11.379 0-20.604-9.225-20.604-20.604v-61.811c0-45.516 36.898-82.414 82.414-82.414 10.933 0 21.359 2.148 30.905 6.014-30.197 12.227-51.508 41.816-51.508 76.4z" fill="#555a66"/></g></g><g/><g/><g/><g/><g/><g/><g/><g/><g/><g/><g/><g/><g/><g/><g/></svg>