<svg id="Capa_1" enable-background="new 0 0 512 512" height="512" viewBox="0 0 512 512" width="512" xmlns="http://www.w3.org/2000/svg"><g><path d="m1.877 314.789c8.367 39.971 43.749 70.753 87.102 70.753h368.377c30.179 0 54.644-24.466 54.644-54.655v-16.099l-27.171-33.238 27.171-33.227c0-30.189-24.466-54.655-54.644-54.655h-48.921l-79.828-41.428 37.723-41.428c-18.648-34.841-54.998-56.684-94.636-56.684h-105.968c-43.343 0-83.99 21.219-108.612 56.892-19.97 28.94-39.378 72.345-50.971 137.302l19.51 33.231z" fill="#fdb09a"/><path d="m110.782 224.427c0-64.176 21.769-123.26 58.31-170.298h-3.366c-43.343 0-83.99 21.219-108.612 56.892-19.97 28.941-39.378 72.346-50.971 137.302l19.51 33.231-23.776 33.235c8.367 39.971 43.749 70.754 87.102 70.754h73.265c-32.4-45.443-51.462-101.053-51.462-161.116z" fill="#fd8c71"/><g><g><g><ellipse cx="130.941" cy="267.936" fill="#ecebfd" rx="33.286" ry="26.507"/></g><g><ellipse cx="311.363" cy="267.936" fill="#ecebfd" rx="33.286" ry="26.507"/></g></g></g><g fill="#423e4f"><path d="m150.34 250.145c-4.267 0-7.726-3.459-7.726-7.726v-13.607c0-4.267 3.459-7.726 7.726-7.726s7.726 3.459 7.726 7.726v13.607c0 4.267-3.459 7.726-7.726 7.726z"/><path d="m291.964 250.145c-4.267 0-7.726-3.459-7.726-7.726v-13.607c0-4.267 3.459-7.726 7.726-7.726s7.726 3.459 7.726 7.726v13.607c0 4.267-3.459 7.726-7.726 7.726z"/><path d="m221.152 258.245c-9.388 0-18.316-4.066-24.494-11.155-2.803-3.217-2.468-8.098.749-10.901s8.097-2.468 10.901.749c3.242 3.721 7.924 5.855 12.844 5.855s9.602-2.134 12.844-5.855c2.803-3.217 7.684-3.552 10.901-.749s3.552 7.684.749 10.901c-6.178 7.089-15.106 11.155-24.494 11.155z"/></g><path d="m408.435 193.669h-135.023c-16.473 0-29.835-13.362-29.835-29.835v-23.175c0-16.484 13.362-29.846 29.835-29.846h92.919c.375.676.728 1.363 1.082 2.06z" fill="#7ce0fd"/><path d="m176.05 110.813h-35.543c-11.977 0-23.566 4.414-32.396 12.506-4.628 4.242-8.814 9.025-12.452 14.297-6.164 8.933-11.848 19.064-17.024 30.297-5.542 12.027 3.249 25.756 16.491 25.756h80.924c10.679 0 19.337-8.657 19.337-19.337v-44.182c0-10.68-8.657-19.337-19.337-19.337z" fill="#7ce0fd"/><path d="m108.112 123.319c-4.628 4.241-8.814 9.025-12.452 14.297-6.164 8.933-11.848 19.064-17.024 30.296-5.542 12.027 3.249 25.757 16.491 25.757h17.349c3.206-29.095 10.903-56.836 22.386-82.515-9.928 1.161-19.318 5.353-26.75 12.165z" fill="#2ecdf9"/><path d="m480.937 248.323c-12.852 0-23.271 10.419-23.271 23.271v19.921c0 12.852 10.419 23.271 23.271 23.271h31.063v-66.462h-31.063z" fill="#f2d895"/><path d="m51.308 271.592v19.918c0 12.852-10.417 23.279-23.269 23.279h-26.162c-1.915-9.147-2.414-18.773-1.27-28.618 1.551-13.362 3.413-25.964 5.536-37.848h21.895c12.853 0 23.27 10.417 23.27 23.269z" fill="#f2d895"/><circle cx="375.669" cy="383.489" fill="#5877cd" r="74.382"/><circle cx="375.669" cy="383.489" fill="#d1d1fd" r="32.966"/><circle cx="121.005" cy="383.489" fill="#5877cd" r="74.382"/><path d="m105.552 363.572c0-20.44 6.818-39.284 18.299-54.393-.946-.036-1.892-.072-2.846-.072-41.08 0-74.382 33.302-74.382 74.382s33.302 74.382 74.382 74.382c14.524 0 28.064-4.178 39.516-11.375-32.303-13.661-54.969-45.646-54.969-82.924z" fill="#385ac0"/><circle cx="121.005" cy="383.489" fill="#d1d1fd" r="32.966"/><path d="m105.552 363.572c0-3.194.169-6.349.494-9.457-10.685 5.453-18.007 16.555-18.007 29.374 0 18.206 14.759 32.966 32.966 32.966.568 0 1.132-.015 1.693-.043-10.782-14.838-17.146-33.095-17.146-52.84z" fill="#989cdc"/></g></svg>