<svg id="Capa_1" enable-background="new 0 0 512 512" height="512" viewBox="0 0 512 512" width="512" xmlns="http://www.w3.org/2000/svg"><g><path d="m347.983 512h-20.703l20.703-50.478c27.466 0 49.732-22.266 49.732-49.732v-90.452c0-17.069 13.837-30.905 30.905-30.905 17.069 0 30.905 13.837 30.905 30.905v79.12c.002 61.602-49.938 111.542-111.542 111.542z" fill="#5b778f"/><path d="m377.68 3.29c-.611-1.298-1.84-2.176-3.266-2.333-14.252-1.568-92.154-7.349-131.62 47.895-1.757 2.459-2.633 5.265-2.774 8.326 62.561 6.987 112.662 52.74 122.912 92.772 5.207-.711 9.388-2.809 12.112-6.621 39.465-55.245 8.74-127.065 2.636-140.039z" fill="#5b778f"/><path d="m348.436 104.567c-7.437-2.655-19.023-8.21-32.717-17.992-13.688-9.778-22.697-18.933-27.622-25.106 16.827-14.972 38.381-19.057 56.897-20.282 1.921-.109 3.658 1.13 4.181 2.981 4.667 16.529 8.132 40.026-.739 60.399z" fill="#ff938a"/><path d="m207.284 57.179c-.141-3.061-1.017-5.867-2.774-8.326-39.466-55.245-117.368-49.464-131.62-47.896-1.426.157-2.655 1.035-3.266 2.333-6.104 12.974-36.829 84.794 2.637 140.039 2.724 3.812 6.905 5.911 12.112 6.621 10.249-40.031 60.351-85.785 122.911-92.771z" fill="#516980"/><path d="m98.868 104.567c7.437-2.655 19.023-8.21 32.717-17.992 13.688-9.778 22.697-18.933 27.622-25.106-16.827-14.972-38.381-19.057-56.897-20.282-1.921-.109-3.658 1.13-4.181 2.981-4.667 16.529-8.132 40.026.739 60.399z" fill="#fd7a6e"/><path d="m327.278 512h-10.858l-11.837-4.121c-134.376-71.623-166.769-202.683-137.519-318.058h132.626l35.85 95.189c21.438 56.866 34.367 116.503 38.601 176.965 1.896 27.073-19.717 50.025-46.863 50.025z" fill="#6a829a"/><path d="m304.583 507.879-32.75-11.394-48.181 15.515-46.389-15.515-46.379 15.515h-10.858c-27.145 0-48.769-22.952-46.863-50.026 4.234-60.461 17.163-120.098 38.601-176.965l35.85-95.189h19.45c-12.836 112.394 28.464 236.994 137.519 318.059z" fill="#5b778f"/><path d="m343.421 346.347c0 55.702-19.882 104.986-50.366 135.016h-20.181c-14.582-5.284-19.96-14.207-23.478-24.323 3.946-20.954 6.779-46.75 8.077-75.285.912-19.115-14.482-35.455-33.821-35.407-13.928 0-25.816 8.386-31.019 20.305-32.017-32.113-41.986-86.509-27.681-126.661 17.874 4.821 37.756 7.5 58.7 7.5 39.343 0 74.925-9.467 100.525-24.745 12.167 44.709 19.244 90.376 19.244 123.6z" fill="#5b778f"/><path d="m203.595 481.362h-49.346c-30.483-30.03-50.366-79.314-50.366-135.016 0-33.223 7.067-78.891 19.244-123.601 11.971 7.149 26.125 13.021 41.825 17.245 1.257 42.619 10.25 85.794 27.681 126.661-2.029 4.605-3.049 9.725-2.802 15.103 1.865 40.878 6.872 76.131 13.764 99.608z" fill="#516980"/><path d="m272.874 481.362h-29.164c2.081-7.088 3.987-15.257 5.687-24.323 7.324 8.376 15.143 16.494 23.477 24.323z" fill="#516980"/><path d="m381.27 165.88c0 51.2-70.567 92.716-157.618 92.716-20.532 0-40.146-2.308-58.133-6.511-22.679-74.717-5.247-156.235 54.126-206.891 1.329-.031 2.668-.051 4.007-.051 87.051 0 157.618 69.526 157.618 120.737z" fill="#6a829a"/><path d="m165.519 252.085c-58.277-13.609-99.485-47.079-99.485-86.205 0-50.427 68.414-118.605 153.61-120.686-39.61 57.773-58.905 131.894-54.125 206.891z" fill="#5b778f"/><path d="m223.652 512h-92.77v-9.348c0-25.618 20.767-46.385 46.385-46.385s46.385 20.767 46.385 46.385z" fill="#485c70"/><path d="m316.42 502.656v9.344h-6.181c-34.448-10.27-56.052-30.638-58.277-52.076 5.563-2.359 11.672-3.657 18.08-3.657 25.61 0 46.378 20.769 46.378 46.389z" fill="#516980"/><path d="m310.239 512h-86.587v-9.344c0-19.202 11.672-35.685 28.309-42.732 16.824 18.822 36.212 36.324 58.278 52.076z" fill="#485c70"/><ellipse cx="140.406" cy="166.768" fill="#ffa1ac" rx="30.716" ry="24.461"/><ellipse cx="306.898" cy="166.768" fill="#ffa1ac" rx="30.716" ry="24.461"/><path d="m253.436 137.546c-4.142 0-7.5 3.357-7.5 7.5 0 4.076-3.316 7.392-7.392 7.392s-7.392-3.315-7.392-7.392c0-4.143-3.358-7.5-7.5-7.5s-7.5 3.357-7.5 7.5c0 4.076-3.316 7.392-7.392 7.392s-7.392-3.315-7.392-7.392c0-4.143-3.358-7.5-7.5-7.5s-7.5 3.357-7.5 7.5c0 12.347 10.045 22.392 22.392 22.392 5.713 0 10.931-2.154 14.892-5.689 3.96 3.535 9.178 5.689 14.892 5.689 12.347 0 22.392-10.045 22.392-22.392 0-4.143-3.358-7.5-7.5-7.5z" fill="#fff"/><g><path d="m174.453 140.374c-4.142 0-7.5-3.357-7.5-7.5 0-3.684-2.997-6.681-6.681-6.681s-6.68 2.997-6.68 6.681c0 4.143-3.358 7.5-7.5 7.5s-7.5-3.357-7.5-7.5c0-11.955 9.726-21.681 21.68-21.681s21.681 9.726 21.681 21.681c0 4.143-3.358 7.5-7.5 7.5z" fill="#fff"/></g><g><path d="m301.212 140.374c-4.142 0-7.5-3.357-7.5-7.5 0-3.684-2.997-6.681-6.681-6.681s-6.681 2.997-6.681 6.681c0 4.143-3.358 7.5-7.5 7.5s-7.5-3.357-7.5-7.5c0-11.955 9.726-21.681 21.681-21.681s21.681 9.726 21.681 21.681c0 4.143-3.358 7.5-7.5 7.5z" fill="#fff"/></g></g></svg>