<?xml version="1.0" encoding="UTF-8" standalone="no"?>
<!-- Created with Inkscape (http://www.inkscape.org/) -->

<svg
   version="1.1"
   id="svg2745"
   xml:space="preserve"
   width="682.66669"
   height="682.66669"
   viewBox="0 0 682.66669 682.66669"
   xmlns="http://www.w3.org/2000/svg"
   xmlns:svg="http://www.w3.org/2000/svg"><defs
     id="defs2749"><clipPath
       clipPathUnits="userSpaceOnUse"
       id="clipPath2759"><path
         d="M 0,512 H 512 V 0 H 0 Z"
         id="path2757" /></clipPath></defs><g
     id="g2751"
     transform="matrix(1.3333333,0,0,-1.3333333,0,682.66667)"><g
       id="g2753"><g
         id="g2755"
         clip-path="url(#clipPath2759)"><g
           id="g2761"
           transform="translate(272.7529,168.1753)"><path
             d="m 0,0 c -11.056,0 -19.454,10.093 -17.281,20.934 9.718,48.483 52.529,85.006 103.872,85.006 51.343,0 94.155,-36.523 103.872,-85.006 C 192.636,10.093 184.237,0 173.182,0 Z"
             style="fill:#ff8aa0;fill-opacity:1;fill-rule:nonzero;stroke:none"
             id="path2763" /></g><g
           id="g2765"
           transform="translate(270.8291,226.3975)"><path
             d="m 0,0 c 24.358,-18.992 55.115,-30.345 88.515,-30.345 33.399,0 64.157,11.353 88.514,30.345 C 158.083,28.745 125.517,47.718 88.515,47.718 51.513,47.718 18.946,28.745 0,0"
             style="fill:#fe5c6f;fill-opacity:1;fill-rule:nonzero;stroke:none"
             id="path2767" /></g><g
           id="g2769"
           transform="translate(278.6279,336.8823)"><path
             d="M 0,0 C 0,19.74 -16.104,35.743 -35.971,35.743 -55.836,35.743 -71.94,19.74 -71.94,0 c 0,-19.741 16.104,-35.744 35.969,-35.744 C -16.104,-35.744 0,-19.741 0,0"
             style="fill:#ffc09e;fill-opacity:1;fill-rule:nonzero;stroke:none"
             id="path2771" /></g><g
           id="g2773"
           transform="translate(440.0596,336.8823)"><path
             d="M 0,0 C 0,19.74 16.104,35.743 35.971,35.743 55.836,35.743 71.94,19.74 71.94,0 71.94,-19.741 55.836,-35.744 35.971,-35.744 16.104,-35.744 0,-19.741 0,0"
             style="fill:#ffc09e;fill-opacity:1;fill-rule:nonzero;stroke:none"
             id="path2775" /></g><g
           id="g2777"
           transform="translate(481.9053,336.8823)"><path
             d="m 0,0 c 0,-66.542 -54.872,-120.485 -122.562,-120.485 -67.688,0 -122.561,53.943 -122.561,120.485 0,66.542 54.873,120.484 122.561,120.484 C -54.872,120.484 0,66.542 0,0"
             style="fill:#ffd5be;fill-opacity:1;fill-rule:nonzero;stroke:none"
             id="path2779" /></g><g
           id="g2781"
           transform="translate(311.3066,311.5039)"><path
             d="m 0,0 c 0,-12.354 -12.576,-22.369 -28.09,-22.369 -15.513,0 -28.089,10.015 -28.089,22.369 0,12.354 12.576,22.369 28.089,22.369 C -12.576,22.369 0,12.354 0,0"
             style="fill:#ffa2ad;fill-opacity:1;fill-rule:nonzero;stroke:none"
             id="path2783" /></g><g
           id="g2785"
           transform="translate(407.3809,311.5039)"><path
             d="m 0,0 c 0,-12.354 12.576,-22.369 28.09,-22.369 15.513,0 28.089,10.015 28.089,22.369 0,12.354 -12.576,22.369 -28.089,22.369 C 12.576,22.369 0,12.354 0,0"
             style="fill:#ffa2ad;fill-opacity:1;fill-rule:nonzero;stroke:none"
             id="path2787" /></g><g
           id="g2789"
           transform="translate(299.5879,326.3188)"><path
             d="m 0,0 c -4.143,0 -7.5,3.358 -7.5,7.5 v 9.919 c 0,4.142 3.357,7.5 7.5,7.5 4.143,0 7.5,-3.358 7.5,-7.5 V 7.5 C 7.5,3.358 4.143,0 0,0"
             style="fill:#495560;fill-opacity:1;fill-rule:nonzero;stroke:none"
             id="path2791" /></g><g
           id="g2793"
           transform="translate(419.1006,326.3188)"><path
             d="m 0,0 c -4.143,0 -7.5,3.358 -7.5,7.5 v 9.919 c 0,4.142 3.357,7.5 7.5,7.5 4.143,0 7.5,-3.358 7.5,-7.5 V 7.5 C 7.5,3.358 4.143,0 0,0"
             style="fill:#495560;fill-opacity:1;fill-rule:nonzero;stroke:none"
             id="path2795" /></g><g
           id="g2797"
           transform="translate(359.3437,318.7017)"><path
             d="m 0,0 c -8.206,0 -16.009,3.554 -21.408,9.75 -2.722,3.123 -2.396,7.86 0.727,10.582 3.122,2.72 7.861,2.396 10.581,-0.728 C -7.55,16.678 -3.868,15 0,15 c 3.868,0 7.55,1.679 10.101,4.605 2.721,3.124 7.459,3.448 10.582,0.726 C 23.806,17.609 24.13,12.872 21.409,9.75 16.009,3.554 8.205,0 0,0"
             style="fill:#495560;fill-opacity:1;fill-rule:nonzero;stroke:none"
             id="path2799" /></g><g
           id="g2801"
           transform="translate(359.3437,459.7383)"><path
             d="m 0,0 c -78.74,17.71 -129.995,-56.076 -127.428,-102.567 0.392,-7.09 8.239,-11.176 14.402,-7.649 15.779,9.032 32.386,27.423 40.213,36.932 0.792,-5.385 2.116,-11.122 3.616,-16.418 1.124,-3.969 5.18,-6.376 9.193,-5.418 18.736,4.476 46.143,18.739 60.004,34.549 13.861,-15.81 41.268,-30.073 60.004,-34.549 4.013,-0.958 8.069,1.449 9.193,5.418 1.5,5.296 2.824,11.032 3.616,16.418 7.827,-9.509 24.43,-27.896 40.209,-36.929 6.282,-3.596 14.062,0.73 14.422,7.959 C 129.766,-55.746 78.564,17.67 0,0"
             style="fill:#495560;fill-opacity:1;fill-rule:nonzero;stroke:none"
             id="path2803" /></g><g
           id="g2805"
           transform="translate(66.0654,49.5713)"><path
             d="m 0,0 c -11.056,0 -19.454,10.093 -17.281,20.934 9.717,48.483 52.529,85.006 103.872,85.006 51.343,0 94.154,-36.523 103.872,-85.006 C 192.636,10.093 184.237,0 173.182,0 Z"
             style="fill:#be9ddf;fill-opacity:1;fill-rule:nonzero;stroke:none"
             id="path2807" /></g><g
           id="g2809"
           transform="translate(64.1416,107.7935)"><path
             d="m 0,0 c 24.357,-18.992 55.115,-30.345 88.514,-30.345 33.4,0 64.157,11.353 88.514,30.345 C 158.083,28.745 125.517,47.718 88.515,47.718 51.513,47.718 18.946,28.745 0,0"
             style="fill:#938dda;fill-opacity:1;fill-rule:nonzero;stroke:none"
             id="path2811" /></g><g
           id="g2813"
           transform="translate(71.9404,218.2778)"><path
             d="M 0,0 C 0,19.741 -16.104,35.744 -35.971,35.744 -55.836,35.744 -71.94,19.741 -71.94,0 c 0,-19.74 16.104,-35.743 35.969,-35.743 C -16.104,-35.743 0,-19.74 0,0"
             style="fill:#ffc09e;fill-opacity:1;fill-rule:nonzero;stroke:none"
             id="path2815" /></g><g
           id="g2817"
           transform="translate(233.3721,218.2778)"><path
             d="M 0,0 C 0,19.741 16.104,35.744 35.971,35.744 55.836,35.744 71.94,19.741 71.94,0 71.94,-19.74 55.836,-35.743 35.971,-35.743 16.104,-35.743 0,-19.74 0,0"
             style="fill:#ffc09e;fill-opacity:1;fill-rule:nonzero;stroke:none"
             id="path2819" /></g><g
           id="g2821"
           transform="translate(275.2178,218.2778)"><path
             d="m 0,0 c 0,-66.542 -54.873,-120.484 -122.562,-120.484 -67.689,0 -122.561,53.942 -122.561,120.484 0,66.542 54.872,120.485 122.561,120.485 C -54.873,120.485 0,66.542 0,0"
             style="fill:#ffd5be;fill-opacity:1;fill-rule:nonzero;stroke:none"
             id="path2823" /></g><g
           id="g2825"
           transform="translate(104.6191,192.8999)"><path
             d="m 0,0 c 0,-12.354 -12.576,-22.369 -28.09,-22.369 -15.513,0 -28.089,10.015 -28.089,22.369 0,12.354 12.576,22.369 28.089,22.369 C -12.576,22.369 0,12.354 0,0"
             style="fill:#ffa2ad;fill-opacity:1;fill-rule:nonzero;stroke:none"
             id="path2827" /></g><g
           id="g2829"
           transform="translate(200.6934,192.8999)"><path
             d="m 0,0 c 0,-12.354 12.576,-22.369 28.09,-22.369 15.513,0 28.089,10.015 28.089,22.369 0,12.354 -12.576,22.369 -28.089,22.369 C 12.576,22.369 0,12.354 0,0"
             style="fill:#ffa2ad;fill-opacity:1;fill-rule:nonzero;stroke:none"
             id="path2831" /></g><g
           id="g2833"
           transform="translate(92.8994,207.7144)"><path
             d="m 0,0 c -4.143,0 -7.5,3.358 -7.5,7.5 v 9.919 c 0,4.143 3.357,7.5 7.5,7.5 4.143,0 7.5,-3.357 7.5,-7.5 V 7.5 C 7.5,3.358 4.143,0 0,0"
             style="fill:#495560;fill-opacity:1;fill-rule:nonzero;stroke:none"
             id="path2835" /></g><g
           id="g2837"
           transform="translate(212.4121,207.7144)"><path
             d="m 0,0 c -4.143,0 -7.5,3.358 -7.5,7.5 v 9.919 c 0,4.143 3.357,7.5 7.5,7.5 4.143,0 7.5,-3.357 7.5,-7.5 V 7.5 C 7.5,3.358 4.143,0 0,0"
             style="fill:#495560;fill-opacity:1;fill-rule:nonzero;stroke:none"
             id="path2839" /></g><g
           id="g2841"
           transform="translate(152.6562,200.0977)"><path
             d="m 0,0 c -8.205,0 -16.009,3.554 -21.409,9.75 -2.721,3.122 -2.397,7.859 0.726,10.581 3.122,2.722 7.86,2.397 10.582,-0.726 C -7.55,16.679 -3.868,15 0,15 c 3.868,0 7.55,1.678 10.1,4.604 2.719,3.124 7.459,3.45 10.581,0.728 C 23.804,17.61 24.13,12.873 21.408,9.75 16.009,3.554 8.206,0 0,0"
             style="fill:#495560;fill-opacity:1;fill-rule:nonzero;stroke:none"
             id="path2843" /></g><g
           id="g2845"
           transform="translate(124.3076,357.4492)"><path
             d="m 0,0 c -4.098,24.191 -27.541,59.701 -61.171,81.89 -12.572,8.296 -29.515,4.72 -37.868,-7.813 l -18.663,-28.005 c -7.415,-11.127 -2.405,-26.291 10.202,-30.745 23.163,-8.184 41.145,-21.129 51.185,-37.676 z"
             style="fill:#495560;fill-opacity:1;fill-rule:nonzero;stroke:none"
             id="path2847" /></g><g
           id="g2849"
           transform="translate(151.3682,357.9453)"><path
             d="m 0,0 c 6.414,-17.622 -11.964,-40.489 -41.048,-51.075 -29.085,-10.586 -57.861,-4.882 -64.275,12.741 -6.414,17.622 11.964,40.489 41.048,51.075 C -35.191,23.327 -6.414,17.623 0,0"
             style="fill:#be9ddf;fill-opacity:1;fill-rule:nonzero;stroke:none"
             id="path2851" /></g><g
           id="g2853"
           transform="translate(152.6562,349.5015)"><path
             d="m 0,0 c 75.692,0 126.214,-52.788 129.942,-105.313 0.548,-7.707 -5.959,-14.148 -13.658,-13.5 -39.406,3.323 -86.92,28.578 -108.325,45.594 -4.67,3.712 -11.248,3.712 -15.918,0 -21.406,-17.016 -68.919,-42.271 -108.326,-45.594 -7.699,-0.648 -14.205,5.793 -13.658,13.5 C -126.214,-52.788 -75.692,0 0,0"
             style="fill:#495560;fill-opacity:1;fill-rule:nonzero;stroke:none"
             id="path2855" /></g></g></g></g></svg>
