<svg height="512pt" viewBox="0 -48 512.00003 512" width="512pt" xmlns="http://www.w3.org/2000/svg"><path d="m460.007812 356.785156c-94.644531 0-189.292968 0-283.9375 0-18.246093 0-31.15625-17.476562-26.21875-35.042968 26.890626-95.632813-57.453124-191.265626-30.414062-286.898438 5.859375-20.71875 25.039062-34.84375 46.574219-34.84375h283.933593c18.246094 0 31.160157 17.476562 26.21875 35.042969-26.886718 95.632812 57.457032 191.265625 30.417969 286.898437-5.859375 20.71875-25.039062 34.84375-46.574219 34.84375zm0 0" fill="#ffb3c2"/><path d="m222.007812 120.414062c-18.097656-87.039062 24.128907-119.734374 24.128907-119.734374l-.714844-.679688c-26.46875 0-52.941406 0-79.414063 0-21.53125 0-40.714843 14.125-46.570312 34.847656-27.042969 95.632813 57.300781 191.265625 30.414062 286.894532-4.9375 17.566406 7.972657 35.042968 26.21875 35.042968h128.769532c.355468-94.640625-67.738282-163.777344-82.832032-236.371094zm0 0" fill="#ff899f"/><path d="m440.601562 122.527344c-14.996093 0-27.152343 12.15625-27.152343 27.152344v-24.972657c0-14.996093-12.15625-27.152343-27.152344-27.152343-14.992187 0-27.152344 12.15625-27.152344 27.152343v-25.511719c0-14.996093-12.15625-27.152343-27.152343-27.152343-14.992188 0-27.152344 12.15625-27.152344 27.152343v25.511719c0-14.996093-12.15625-27.152343-27.152344-27.152343s-27.152344 12.15625-27.152344 27.152343v147.449219s-45.125-47.1875-72.171875-21.910156c-11.300781 9.855468-12.46875 27.007812-2.613281 38.308594l92.191406 108.503906s17.566406 19.472656 45.484375 19.472656h91.4375c34.734375 0 62.890625-28.15625 62.890625-62.886719v-203.964843c0-14.996094-12.15625-27.152344-27.152344-27.152344zm0 0" fill="#ffddcf"/><path d="m79.304688 163.902344h-61.285157c-9.953125 0-18.019531-8.066406-18.019531-18.015625 0-9.953125 8.066406-18.019531 18.019531-18.019531h61.285157c9.953124 0 18.015624 8.066406 18.015624 18.019531.003907 9.949219-8.0625 18.015625-18.015624 18.015625zm0 0" fill="#c2eafb"/><path d="m104.738281 246.164062h-47.789062c-9.953125 0-18.019531-8.066406-18.019531-18.015624 0-9.953126 8.066406-18.019532 18.019531-18.019532h47.789062c9.953125 0 18.019531 8.070313 18.019531 18.019532 0 9.949218-8.066406 18.015624-18.019531 18.015624zm0 0" fill="#c2eafb"/><g fill="#ffcbbe"><path d="m304.839844 264.082031c-4.265625 0-7.726563-3.457031-7.726563-7.726562v-103.824219c0-4.265625 3.460938-7.726562 7.726563-7.726562 4.269531 0 7.726562 3.460937 7.726562 7.726562v103.824219c0 4.269531-3.457031 7.726562-7.726562 7.726562zm0 0"/><path d="m359.144531 264.082031c-4.265625 0-7.726562-3.457031-7.726562-7.726562v-103.824219c0-4.265625 3.460937-7.726562 7.726562-7.726562 4.269531 0 7.726563 3.460937 7.726563 7.726562v103.824219c0 4.269531-3.457032 7.726562-7.726563 7.726562zm0 0"/><path d="m413.449219 264.082031c-4.265625 0-7.726563-3.457031-7.726563-7.726562v-81.828125c0-4.265625 3.460938-7.722656 7.726563-7.722656 4.269531 0 7.726562 3.457031 7.726562 7.722656v81.828125c0 4.269531-3.460937 7.726562-7.726562 7.726562zm0 0"/></g></svg>