<svg id="Capa_1" enable-background="new 0 0 512 512" height="512" viewBox="0 0 512 512" width="512" xmlns="http://www.w3.org/2000/svg"><g><path d="m189.55 214.139-11.82 12.04-25.75-12.04-63.92-93.63 25.63-17.49z" fill="#eaaa83"/><path d="m230.34 273.899h-37.57l-40.79-59.76h37.57z" fill="#df8a57"/><path d="m162.26 88.679c-.37 4.54-1.66 9.38-3.84 14.4-2.48 5.73-9.35 11.18-16.05 13.01v.01c3.27 2.92 1.82 8.97-3.75 14.37-9.84 9.53-21.82 17.66-34.09 23.26-3.38 1.55-6.56 2.15-9.12 1.91-.01 0-.01 0-.01 0-1.08-.1-2.04-.35-2.87-.75-1.31-.62-2.26-1.6-2.74-2.9-96.89-60.92-4.23-147.54-4.23-147.54 4.99-.59 9.68-.6 13.96-.03 5.61.75 7.12 5.57 3.89 11.2 6.72-3.75 13.63-4 16.14-.33l6.05 8.87c2.07 3.03.57 7.87-3.35 12.22 5.47-2.07 10.53-1.71 12.6 1.32l6.05 8.87c2.07 3.03.56 7.87-3.36 12.22 5.48-2.07 10.54-1.71 12.61 1.32l6.05 8.87c2.31 3.39.15 9.05-4.87 13.75 6.62-1.62 11.35.79 10.93 5.95z" fill="#d4d4ff"/><path d="m89.79 151.989c-4.15 5.57-11.769 9.984-18.009 10.214-5.47.19-10.45-.37-14.81-1.68-4.96-1.48-5.48-6.77-1.56-12.34-6.2 2.96-12.27 2.91-14.58-.48l-6.05-8.86c-2.07-3.03-.56-7.88 3.36-12.22-5.48 2.06-10.54 1.7-12.61-1.33l-6.05-8.86c-2.07-3.03-.56-7.87 3.36-12.22-5.48 2.07-10.54 1.7-12.6-1.33l-6.06-8.86c-2.5-3.67.25-10.02 6.19-14.91-6.42.96-10.36-2.21-9.01-7.71 1.18-4.79 3.25-9.8 6.15-14.88 3.32-5.8 10.62-10.77 17.1-11.89-2.46-3.53-.01-9.82 6.09-14.88 5.97-4.96 12.75-9.55 19.29-13.17 6.94-3.84 13.69-3.84 16.09-.26 3.4-5.62 10.68-10.61 17.3-11.59.72-.1 1.43-.2 2.14-.28-46.931 85.637 4.236 147.503 4.269 147.536z" fill="#aab3e5"/><path d="m471.81 229.769-100.19 24.65-103.14-24.76c.59-.62 1.2-1.23 1.8-1.84l39.87-43.6c19.06-19.22 19.06-50.31 0-69.53-4.33-4.36-6.85-9.72-7.66-15.25l57.21-42.03 56.36 56.79c31.06 31.29 50.56 72.07 55.75 115.57z" fill="#b1ecd0"/><path d="m473.21 253.239v20.66h-238.51c9.41-15.92 20.72-30.79 33.78-44.24h199.39c1.32 0 2.64.04 3.94.11.93 7.75 1.4 15.58 1.4 23.47z" fill="#80e0b7"/><path d="m333.49 15.425c-8.617-12.112-25.42-14.946-37.532-6.329l-17.96 12.776c-12.112 8.617-14.946 25.42-6.329 37.532l15.602 21.93 61.821-43.979z" fill="#48d397"/><path d="m371.896 31.924c-8.076-11.351-23.825-14.007-35.177-5.932l-57.939 41.219c-11.351 8.076-14.007 23.825-5.932 35.176s23.825 14.007 35.176 5.932l57.94-41.218c11.351-8.076 14.007-23.825 5.932-35.177z" fill="#80e0b7"/><path d="m473.209 344.512-35.669 110.449c-10.427 31.631-39.564 53.04-71.936 53.04-218.837 0-192.152 0-219.208 0-32.372 0-61.509-21.409-71.936-53.04l-35.669-110.449 30.961-10.561 96.869-33.042 154.237-2.143 15.341-.216z" fill="#ffb3c2"/><path d="m320.858 298.767-154.237 2.143-96.869 33.042v84.506c0 25.253 17.845 46.642 42.428 50.856 2.462.422 4.925.659 7.387.711 8.211 10.437 20.42 17.484 34.526 18.772 1.329.124 2.668.196 3.997.216 8.541 10.983 21.492 18.227 36.236 18.917.783.031 1.566.051 2.349.051 13.281 0 26.324-5.234 36.102-14.558 1.484-1.422 2.875-2.916 4.152-4.461 1.432-.072 2.875-.196 4.317-.391 25.665-3.369 45.766-25.716 45.766-50.876v-49.805c11.787-1.638 22.697-7.222 31.259-16.124 9.87-10.262 15.29-23.718 15.29-37.936v-.484c-.123-12.778-4.584-24.874-12.703-34.579z" fill="#fc95ae"/><path d="m512 306.309c0 25.706-19.751 46.539-44.128 46.539h-137.7l-138.329-14.702-122.091 14.702h-25.624c-24.377 0-44.128-20.833-44.128-46.539s19.751-46.549 44.128-46.549h38.76l101.392 12.642 100.393-12.642h183.199c24.377-.001 44.128 20.843 44.128 46.549z" fill="#fc95ae"/><path d="m317.53 295.119c-1.525-1.525-2.957-2.967-4.317-4.327-9.438-9.489-16.31-16.382-26.541-24.119-.216-.423-.67-1.432-1.082-3.297-.268-1.226-.577-2.431-.917-3.616h-201.785c-1.154 2.988-2.473 5.862-3.926 8.562-5.419 9.983-9.211 24.665-9.211 35.7v48.826h260.42c2.225-6.017 3.39-12.436 3.39-19.019v-.484c-.134-14.435-5.821-27.995-16.031-38.226z" fill="#ff758f"/><path d="m178.19 441.929c-71.49-68.75-17.72-191.87-15.22-197.49.02-.05.04-.1.06-.13.02-.05.03-.07.03-.07h59.56c15.56 0 29.33 10.64 32.69 25.83 1.74 7.88 5.3 15.81 12.22 21 10.07 7.56 16.33 14.24 28.07 25.99 9.15 9.16 9.26 23.92.32 33.2-8.964 9.314-22.512 13.193-31.896 4.754-.541-.487-1.11-.941-1.735-1.312l-.46-.273c-2.165-1.176-5.828-.228-5.828 3.582v80.68c0 10.07-8.82 18.83-18.79 20.14-11.7 1.54-20-7.47-20-18.8v18.97c0 3.09-.88 6.02-2.38 8.59-14.71-6.86-26.7-15.14-36.4-24.42" fill="#fce3a0"/><g fill="#f9d171"><path d="m214.829 466.593c-3.709 6.408-11.302 10.715-19.061 10.354-10.19-.474-17.34-9.149-17.34-19.339v-18.576c0 11.066-10.21 19.926-21.492 18.886-10.128-.927-17.299-9.695-17.299-19.865v-17.989c0 11.581-10.231 20.73-22.224 18.679-9.726-1.669-16.65-10.416-16.65-20.287v-114.435c0-6.099 2.586-15.63 5.45-20.905 2.874-5.306 5.244-10.807 7.161-16.464 4.564-13.476 17.392-22.409 31.62-22.409h18.061c-12.641 55.482-25.612 165.869 51.774 222.35z"/><path d="m217.212 441.265c-4.268 0-7.727-3.459-7.727-7.727v-72.065c0-4.268 3.459-7.727 7.727-7.727s7.727 3.459 7.727 7.727v72.065c0 4.268-3.459 7.727-7.727 7.727z"/><path d="m186.33 434.339v.16c.01 1.14-.23 2.22-.67 3.2-12.31-.1-14.89-25.09-14.89-25.09l-.02-4.13-.23-45.97c-.02-4.27 3.42-7.75 7.69-7.77s7.75 3.43 7.77 7.69z"/></g><path d="m185.66 437.699c-1.2 2.68-3.89 4.55-7.01 4.57 0 0 0 0-.51-.02-4.04-.23-7.24-3.58-7.26-7.67l-.11-21.97c4.07 8.74 8.98 17.15 14.89 25.09z" fill="#f3c23b"/><path d="m139.636 422.047c-4.268 0-7.727-3.459-7.727-7.727v-72.064c0-4.268 3.459-7.727 7.727-7.727s7.727 3.459 7.727 7.727v72.064c0 4.268-3.459 7.727-7.727 7.727z" fill="#f3c23b"/></g></svg>