<svg id="Capa_1" enable-background="new 0 0 512 512" height="512" viewBox="0 0 512 512" width="512" xmlns="http://www.w3.org/2000/svg"><g><path d="m333.802 12.569h-143.321l-31.857 32.289 40.381 62.397h145.886l27.244-47.343z" fill="#385abe"/><path d="m506.356 128.016-22.824 32.476c-9.818 13.97-29.08 17.379-43.096 7.626l-45.435-31.614v218.064c0 19.48-15.791 35.271-35.271 35.271h-195.187c-19.48 0-35.271-15.791-35.271-35.271v-218.065l-45.435 31.614c-14.016 9.752-33.278 6.344-43.096-7.626l-22.824-32.476c-9.884-14.063-6.447-33.482 7.663-43.299l77.579-53.978c17.001-11.829 37.216-18.17 57.927-18.17h29.397c1.567 38.225 33.049 68.727 71.655 68.727 38.617 0 70.098-30.502 71.665-68.727h29.386c20.711 0 40.926 6.341 57.927 18.17l77.579 53.978c14.109 9.817 17.545 29.236 7.661 43.3z" fill="#5877cb"/><path d="m237.433 281.094c-51.097-43.793-83.48-108.795-83.48-181.368 0-30.758 5.82-60.156 16.412-87.158h-9.279c-20.711 0-40.926 6.341-57.927 18.17l-77.58 53.978c-14.11 9.817-17.546 29.236-7.663 43.299l22.824 32.476c9.818 13.97 29.08 17.379 43.096 7.626l45.435-31.614v218.064c0 19.48 15.791 35.271 35.271 35.271h72.89v-108.744z" fill="#385abe"/><g><g><g><ellipse cx="180.101" cy="195.242" fill="#eae9fb" rx="30.269" ry="24.105"/></g><g><ellipse cx="344.172" cy="195.242" fill="#eae9fb" rx="30.269" ry="24.105"/></g></g></g><g fill="#423e4f"><path d="m197.742 151.938c-4.267 0-7.726 3.459-7.726 7.726v12.374c0 4.267 3.459 7.726 7.726 7.726s7.726-3.459 7.726-7.726v-12.374c0-4.267-3.459-7.726-7.726-7.726z"/><path d="m326.531 151.938c-4.267 0-7.726 3.459-7.726 7.726v12.374c0 4.267 3.459 7.726 7.726 7.726s7.726-3.459 7.726-7.726v-12.374c0-4.267-3.459-7.726-7.726-7.726z"/><path d="m284.19 165.844c-3.217-2.803-8.098-2.468-10.901.749-2.816 3.231-6.881 5.085-11.152 5.085-4.272 0-8.337-1.853-11.152-5.084-2.803-3.217-7.684-3.552-10.901-.749s-3.552 7.684-.749 10.901c5.751 6.6 14.062 10.385 22.802 10.385 8.739 0 17.051-3.785 22.802-10.384 2.803-3.218 2.468-8.099-.749-10.903z"/></g><path d="m277.281 339.565-118.657-39.967-118.658 39.967c-22.072 0-39.966 17.894-39.966 39.967 0 22.073 17.894 39.966 39.966 39.966l118.658 39.967 118.657-39.967c22.073 0 39.967-17.894 39.967-39.966 0-22.073-17.894-39.967-39.967-39.967z" fill="#71d7b6"/><path d="m115.779 337.319c0-7.999.406-15.903 1.198-23.693l-77.011 25.939c-22.072 0-39.966 17.894-39.966 39.967 0 22.073 17.894 39.966 39.966 39.966l108.578 36.571c-20.798-34.718-32.765-75.334-32.765-118.75z" fill="#31c897"/><path d="m277.281 259.632h-237.315c-22.072 0-39.966 17.894-39.966 39.967 0 22.073 17.894 39.966 39.966 39.966h237.315c22.073 0 39.967-17.894 39.967-39.966 0-22.073-17.894-39.967-39.967-39.967z" fill="#f0d693"/><path d="m277.281 419.498h-237.315c-22.072 0-39.966 17.894-39.966 39.967 0 22.073 17.894 39.966 39.966 39.966h237.315c22.073 0 39.967-17.894 39.967-39.966 0-22.073-17.894-39.967-39.967-39.967z" fill="#fbb0bb"/><path d="m115.779 337.319c0-27.255 4.726-53.403 13.379-77.687h-89.192c-22.072 0-39.966 17.894-39.966 39.967 0 22.073 17.894 39.967 39.966 39.967h75.841c-.007-.75-.028-1.496-.028-2.247z" fill="#fbc972"/><path d="m130.814 419.498h-90.848c-22.072 0-39.966 17.894-39.966 39.967 0 22.073 17.894 39.966 39.966 39.966h142.104c-22.202-22.612-39.791-49.761-51.256-79.933z" fill="#fb8999"/></g></svg>