<svg id="Layer_1" enable-background="new 0 0 512 512" viewBox="0 0 512 512" xmlns="http://www.w3.org/2000/svg"><g><path d="m55.288 411.153h-8.79c-10.79 0-18.259-10.778-14.471-20.881l15.442-41.18h69.818l-37.273 49.697c-5.836 7.783-14.997 12.364-24.726 12.364z" fill="#ffea97"/><path d="m456.712 411.153h8.79c10.79 0 18.259-10.778 14.471-20.881l-15.442-41.18h-69.818l37.273 49.697c5.836 7.783 14.997 12.364 24.726 12.364z" fill="#fff2c3"/><path d="m480.967 162.666v124.121h-449.934v-124.121c0-34.144 27.674-61.818 61.818-61.818h326.298c34.144-.001 61.818 27.673 61.818 61.818z" fill="#e89fcd"/><path d="m185.62 100.847c-11.426 4.564-30.652 17.68-30.652 54.143v131.797h-123.935v-124.121c0-34.144 27.674-61.818 61.818-61.818h92.769z" fill="#dc74b8"/><path d="m512 201.395v93.397c0 34.134-27.674 61.818-61.818 61.818h-338.528l-37.493-11.807-28.684 9.623c-26.21-7.161-45.477-31.156-45.477-59.634v-93.397c0-8.531 6.924-15.455 15.455-15.455 5.44 0 10.695.948 15.578 2.72l7.841 19.442 24.676 33.361 6.264 37.565h372.373l9.128-54.761c3.678-22.121 22.811-38.327 45.23-38.327 4.265 0 8.129 1.731 10.932 4.533 2.792 2.793 4.523 6.656 4.523 10.922z" fill="#f2c5e1"/><path d="m173.885 356.61h-112.067c-34.144 0-61.818-27.684-61.818-61.818v-93.397c0-8.531 6.924-15.455 15.455-15.455 11.21 0 21.595 4.049 29.642 10.87 8.047 6.81 13.744 16.392 15.589 27.458l9.128 54.761h78.18l.876 15.516v35.968c-.001.072.019 18.246 25.015 26.097z" fill="#e89fcd"/><path d="m266.303 270.539-10.303 8.551c0 8.541-6.924 15.455-15.455 15.455h-91.677l-19.689-3.668v-51.031l25.789-7.356h69.937c17.175 0 31.095 13.919 31.095 31.084z" fill="#d466a9"/><path d="m140.492 282.727s-.259 9.006 8.376 11.818h-79.106c-8.541 0-15.455-6.913-15.455-15.455v-15.516c0-17.165 13.919-31.084 31.084-31.084h69.577s-14.476 5.255-14.476 26.293z" fill="#bd3b91"/><path d="m271 294.546h171.697c8.284 0 15-6.716 15-15v-16.884c0-16.666-13.51-30.176-30.176-30.176h-141.345c-16.666 0-30.176 13.51-30.176 30.176v16.884c0 8.285 6.716 15 15 15z" fill="#bd3b91"/><g><path d="m204.529 179.053c-.042 13.237-13.55 23.925-30.172 23.873s-30.064-10.825-30.022-24.062c.041-13.237 13.55-23.926 30.172-23.874 16.622.053 30.063 10.826 30.022 24.063z" fill="#fff"/><path d="m307.471 179.376c-.041 13.237 13.4 24.01 30.022 24.062s30.131-10.636 30.172-23.873c.042-13.237-13.4-24.01-30.022-24.062-16.622-.053-30.13 10.635-30.172 23.873z" fill="#fff"/><path d="m280.323 160.875c.047-14.997-10.813-16.44-24.214-16.482s-24.27 1.333-24.317 16.33c-.047 14.996 10.779 27.187 24.181 27.229 13.401.042 24.303-12.081 24.35-27.077z" fill="#495560"/><g><path d="m206.38 160.704c-.009 0-.016 0-.025 0-4.268-.013-7.716-3.484-7.703-7.751.012-3.638-2.939-6.608-6.577-6.619-.007 0-.014 0-.021 0-3.629 0-6.587 2.946-6.598 6.577-.013 4.259-3.471 7.703-7.727 7.703-.009 0-.016 0-.025 0-4.268-.013-7.716-3.484-7.703-7.751.038-12.136 9.924-21.984 22.052-21.984h.07c12.16.038 22.021 9.962 21.984 22.122-.013 4.26-3.471 7.703-7.727 7.703z" fill="#495560"/></g><g><path d="m334.436 161.106c-.008 0-.016 0-.025 0-4.268-.013-7.716-3.484-7.703-7.751.012-3.638-2.939-6.608-6.578-6.619-.007 0-.015 0-.021 0-3.629 0-6.586 2.946-6.598 6.578-.014 4.259-3.471 7.703-7.727 7.703-.009 0-.017 0-.025 0-4.268-.014-7.716-3.484-7.703-7.752.039-12.136 9.925-21.983 22.051-21.983h.07c12.16.038 22.022 9.962 21.984 22.122-.012 4.258-3.469 7.701-7.725 7.702z" fill="#495560"/></g></g></g><g/><g/><g/><g/><g/><g/><g/><g/><g/><g/><g/><g/><g/><g/><g/></svg>