<svg id="Layer_1" enable-background="new 0 0 512 512" viewBox="0 0 512 512" xmlns="http://www.w3.org/2000/svg"><g><path d="m141.493 235.363c3.05-1.308 6.027-2.441 8.933-3.42v93.109l-52.339-7.171 2.318-6.944c3.132-9.396-3.266-19.277-13.126-20.266l-29.137-2.916c-4.605-.453-9.19 1.175-12.467 4.451l-16.752 16.753c-3.307 3.318-7.645 4.966-11.983 4.966-4.461 0-8.912-1.751-12.24-5.233-5.811-6.069-6.285-15.475-1.133-22.11l21.935-28.2c8.778-11.292 22.285-17.896 36.596-17.896h54.75c8.48-.002 16.857-1.785 24.645-5.123z" fill="#b07058"/><path d="m342.331 264.376-21.801 28.024c-8.778 11.292-22.285 17.907-36.596 17.907h-39.667c-7.243 0-13.517 5.028-15.094 12.106l-2.895 13.023-30.796-4.214v-102.535c13.28 3.111 23.275 9.715 30.147 15.856 9.901 8.861 22.265 14.486 35.473 15.815l26.788 2.668c4.616.464 9.19-1.174 12.467-4.451l16.598-16.588c3.307-3.317 7.655-4.976 11.993-4.976 4.389 0 8.768 1.69 12.085 5.07 5.955 6.058 6.511 15.588 1.298 22.295z" fill="#c8866a"/><path d="m98.087 317.88 59.562 8.16v86.989l-5.605 1.638-8.201 79.426c-1.051 10.169-9.633 17.907-19.865 17.907h-2.565c-10.324 0-18.937-7.861-19.885-18.133l-10.849-117.785c-1.978-17.783-.072-35.782 5.594-52.762z" fill="#c8866a"/><path d="m274.928 446.245-2.009 31.537c-.33 5.255-2.679 9.932-6.264 13.291-3.575 3.359-8.387 5.409-13.652 5.409-10.025 0-18.484-7.418-19.802-17.351l-4.585-34.752c-.876-5.172-3.688-9.18-6.718-12.466-1.813-1.968-3.802-3.761-5.873-5.45l-27.488-22.492-5.739 1.679v-76.171l43.479 5.955-1.319 5.934c-1.072 4.853.237 9.912 3.534 13.621l31.208 43.365c11.632 13.088 16.186 29.263 15.228 47.891z" fill="#db9e82"/><path d="m247.028 361.225-10.695 41.367-93.263-14.579-64.363-10.066c.227-19.843 2.298-44.653 9.809-62.869 2.411-5.842 6.532-10.798 11.797-14.197h.01l8.521 1.731 32.269-29.364-2.72-25.562c.937-16.866-4.162-30.476-4.162-30.476l11.539 1.051 73.79 6.707s-25.067 56.42 9.304 84.732c5.78 4.75 7.078 13.043 3.359 19.534-3.214 5.625-4.265 12.745 2.854 19.854 4.512 4.513 8.365 8.366 11.951 12.137z" fill="#fce3a0"/><path d="m143.039 386.807c.011.402.011.804.031 1.205l-64.363-10.066c.227-19.843 2.298-44.653 9.809-62.869 2.875-6.975 8.191-12.673 14.97-15.99 51.917-25.397 30.744-81.878 30.744-81.878l11.539 1.051 30.992 38.616s-35.072 27.972-33.722 129.931z" fill="#fdcb89"/><path d="m263.141 405.847c-11.714 9.046-33.392 20.822-66.846 20.822-15.115 0-27.231-1.803-37.843-4.245l-28.385-20.977 12.992-27.633.217-.113 6.965-3.483c2.936-1.463 6.47-.886 8.788 1.422l14.002 14.002c2.977 2.977 7.81 2.977 10.787 0l13.456-13.456c2.576-2.576 6.604-2.967 9.623-.958l12.868 8.582c3.029 2.019 7.057 1.618 9.623-.948l17.639-17.639c6.543 6.903 12.178 13.518 19.225 23.367 4.854 6.771 3.484 16.168-3.111 21.257z" fill="#ffb25a"/><path d="m158.452 422.425c-23.13-5.306-39.131-13.62-63.611-12.796-8.5.278-15.609-6.388-15.918-14.888-.175-4.873-.288-10.592-.216-16.784v-.011l11.519-6.903 12.147-7.295c3.493-2.092 8.005-1.082 10.272 2.308l7.14 10.705.185.278.422.639c2.133 3.204 6.306 4.306 9.747 2.586l11.972-5.976.948-.474c-.072 4.193-.082 8.521-.021 12.992.197 14.858 5.874 26.532 15.414 35.619z" fill="#ff9c20"/><path d="m226.36 3.39s-26.067 63.23-93.181 87.122c-11.673 4.152-24.583 7.12-38.822 8.356 0 0-48.486 5.017-22.955-53.38 10.303-23.574 32.197-32.785 56.8-36.267 36.339-5.14 78.603 2.195 98.158-5.831z" fill="#59697f"/><path d="m133.179 90.513c-11.673 4.152-24.583 7.12-38.822 8.356 0 0-48.486 5.017-22.955-53.38 10.303-23.574 32.197-32.785 56.8-36.267-8.593 11.168-19.607 34.33.103 66.475 3.308 5.399 4.823 10.334 4.874 14.816z" fill="#455060"/><path d="m264.981 90.391s48.572 4.076 21.915-53.818c-20.788-45.149-83.769-35.852-126.169-35.653-12.736.06-19.865 14.675-12.169 24.823 19.592 25.834 56.729 60.626 116.423 64.648z" fill="#455060"/><path d="m149.289 76.553c17.979 32.186 62.56 73.502 124.1 88.894 0 0 53.668 14.352 35.432-55.955-11.684-45.014-62.632-54.596-106.842-61.18z" fill="#4677d5"/><path d="m208.504 65.291c-11.766 24.418-33.804 58.037-72.379 80.879-13.61 8.057-29.271 14.775-47.27 19.277 0 0-53.658 14.352-35.422-55.956 2.504-9.664 6.82-17.69 12.497-24.408l16.959-.7 36.565-28.344h.01c24.511-6.336 51.247-8.706 72.307-12.683 12.458-2.36 22.235 10.509 16.733 21.935z" fill="#7293df"/><path d="m136.126 146.17c-13.61 8.057-29.271 14.775-47.27 19.277 0 0-53.658 14.352-35.422-55.956 8.139-31.352 35.329-45.518 66.022-53.452h.01s-29.786 52.278 10.396 83.846c2.761 2.163 4.821 4.265 6.264 6.285z" fill="#4677d5"/><path d="m194.41 256.021c-5.955.814-11.848 1.082-17.649.855l-51.999-16.907c-23.543-15.743-40.367-41.253-44.087-71.575-.072-.597-.144-1.195-.196-1.792l46.168-29.426c18.309-6.13 32.362-16.207 40.429-23.007 4.709-3.977 11.302-4.791 16.835-2.071 14.321 7.037 43.767 18.03 76.417 10.149 8.448-2.04 16.918 3.183 18.824 11.663.721 3.215 1.288 6.491 1.7 9.829 6.739 54.523-32.011 104.874-86.442 112.282z" fill="#db9e82"/><path d="m176.761 256.876c-48.548-1.865-89.976-38.698-96.086-88.483-.412-3.359-.66-6.697-.731-10.004-.206-8.696 6.738-15.825 15.434-15.887 11.385-.083 21.884-2.184 31.27-5.327-.001 0-20.659 78.344 50.113 119.701z" fill="#c8866a"/><path d="m463.175 510.748c-8.307 3.454-17.841-.481-21.294-8.788l-23.528-56.591 35.816-14.891 18.341 60.502c2.428 8.01-1.608 16.555-9.335 19.768z" fill="#db9e82"/><path d="m343.616 510.748c8.307 3.454 17.841-.481 21.294-8.788l23.528-56.591-35.816-14.891-18.341 60.502c-2.428 8.01 1.608 16.555 9.335 19.768z" fill="#c8866a"/><path d="m503.831 362.76-45.745 24.583c-5.018 2.699-8.14 7.923-8.14 13.621v25.706h-93.098v-25.706c0-5.698-3.122-10.921-8.139-13.621l-45.745-24.583c-7.552-4.059-10.375-13.466-6.326-21.008 4.059-7.552 13.466-10.386 21.018-6.326l16.804 9.036c13.538 7.274 29.899 6.037 42.552-2.689 4.358-3.008 9.252-5.285 14.517-6.666 3.781-1.01 7.758-1.535 11.869-1.535 9.778 0 18.937 3.029 26.499 8.273 12.601 8.727 28.941 9.86 42.438 2.607l16.804-9.026c7.552-4.059 16.959-1.226 21.008 6.326 4.059 7.542 1.225 16.949-6.316 21.008z" fill="#c8866a"/><path d="m403.397 349.088s-17.258 6.573-17.968 34.185c-.021.588-.021 1.175-.021 1.782v41.614h-28.56v-25.706c0-5.698-3.122-10.921-8.139-13.621l-45.745-24.583c-7.552-4.059-10.375-13.466-6.326-21.008 4.059-7.552 13.466-10.386 21.018-6.326l16.804 9.036c13.538 7.274 29.899 6.037 42.552-2.689 4.358-3.008 9.252-5.285 14.517-6.666 6.665 7.841 11.868 13.982 11.868 13.982z" fill="#b07058"/><path d="m492.641 267.931c-.968 14.806-13.002 26.809-27.818 27.715-17.309 1.061-31.661-12.662-31.661-29.724l-45.725-.021h-13.827c-.01 17.052-14.352 30.765-31.63 29.714-6.893-.423-13.167-3.246-18.02-7.635l10.406-42.438-12.766-6.862c-1.463-16.372 11.045-31.033 27.149-32.29 3.926-.309 7.532-2.102 10.159-5.028 5.45-6.079 13.363-9.901 22.172-9.901 3.637.011 7.13.66 10.355 1.844 1.587.598 3.122 1.329 4.564 2.164 4.554 2.648 10.272 2.648 14.826.01 4.379-2.545 9.479-3.997 14.919-3.997 8.809 0 16.722 3.833 22.172 9.912 2.627 2.926 6.233 4.719 10.159 5.038 16.207 1.309 28.983 16.258 27.045 33.011-.402 3.4.464 6.851 2.401 9.674 3.627 5.296 5.584 11.828 5.12 18.814z" fill="#59697f"/><path d="m383.296 259.832c1.772 1.834 3.132 3.874 4.142 6.069h-13.827c-.01 17.052-14.352 30.765-31.63 29.714-15.176-.928-27.396-13.518-27.9-28.715-.217-6.625 1.731-12.786 5.193-17.835 1.937-2.833 2.792-6.285 2.401-9.685-1.886-16.65 10.746-31.713 27.076-32.99 3.926-.309 7.532-2.102 10.159-5.028 5.45-6.079 13.363-9.901 22.172-9.901 3.637.011 7.13.66 10.355 1.844-6.006 3.871-12.724 11.033-11.639 23.452.255 2.918-.382 5.835-1.732 8.434-3.471 6.677-8.056 20.845 5.23 34.641z" fill="#455060"/><path d="m465.462 287.033c0 34.268-27.787 62.055-62.065 62.055l-27.622-6.481h-.021c-17.958-8.953-30.971-26.345-33.825-46.992l37.379-40.677c3.791-1.185 7.295-3.338 10.097-6.357 1.999-2.143 5.1-2.813 7.789-1.638 1.896.835 3.997 1.298 6.202 1.298s4.307-.463 6.202-1.298c2.689-1.175 5.79-.505 7.789 1.638 4.801 5.172 11.694 7.83 18.607 7.377 3.122-.216 5.955 1.772 6.913 4.76 1.968 6.141 7.727 10.798 14.795 10.798h.052c3.441-.011 6.408 2.37 6.944 5.77.507 3.174.764 6.429.764 9.747z" fill="#db9e82"/><path d="m403.397 349.088c-34.278 0-62.055-27.788-62.055-62.055 0-3.318.258-6.573.762-9.747.525-3.4 3.493-5.78 6.934-5.77h.062c6.986 0 12.817-4.626 14.795-10.818.948-2.988 3.791-4.956 6.913-4.74 2.885.186 5.77-.165 8.5-1.02 0 .001-22.11 54.504 24.089 94.15z" fill="#c8866a"/><path d="m460.62 469.056-32.898 9.396c-5.254 1.504-10.859-.567-13.888-5.1-2.483-3.73-6.46-5.584-10.437-5.584s-7.954 1.854-10.437 5.584c-2.37 3.544-6.316 5.584-10.437 5.584-1.144 0-2.308-.154-3.452-.484l-1.494-.423-2.431-.69-.011-.011-16.34-18.978 14.991-32.084 11.622-.206c5.337.381 11.323.608 17.989.608 20.689 0 34.752-2.205 43.376-4.266 6.336-1.514 12.766 2.051 14.826 8.222l7.47 22.399c2.256 6.781-1.587 14.065-8.449 16.033z" fill="#8ce09f"/><path d="m385.408 426.062s-5.79.907-7.501 8.005l-6.048 28.405s-1.721 8.861 5.718 15.558l-31.404-8.974c-6.862-1.968-10.715-9.252-8.459-16.032l7.47-22.399c2.061-6.172 8.49-9.737 14.826-8.222 5.843 1.403 14.188 2.855 25.398 3.659z" fill="#55d47b"/><g><g><path d="m246.881 182.137c-3.939 0-7.305-2.998-7.684-6.999l-1.166-12.309c-.402-4.249 2.716-8.019 6.965-8.422 4.255-.392 8.019 2.716 8.422 6.964l1.166 12.309c.402 4.249-2.716 8.019-6.965 8.422-.248.023-.495.035-.738.035z" fill="#495560"/></g><g><path d="m118.771 194.264c-3.94 0-7.305-2.998-7.684-6.999l-1.165-12.308c-.402-4.249 2.717-8.019 6.965-8.422 4.263-.398 8.018 2.717 8.422 6.965l1.165 12.308c.402 4.249-2.717 8.019-6.965 8.422-.248.022-.495.034-.738.034z" fill="#495560"/></g><g><path d="m181.41 195.627c-7.709 0-15.169-2.953-20.819-8.319-3.094-2.939-3.221-7.83-.282-10.925 2.94-3.095 7.83-3.22 10.925-.282 3.103 2.947 7.312 4.41 11.566 4.005 4.248-.402 8.115-2.627 10.61-6.104 2.489-3.468 7.317-4.26 10.784-1.773 3.467 2.488 4.261 7.316 1.773 10.783-5.101 7.108-13.014 11.657-21.71 12.48-.951.09-1.901.135-2.847.135z" fill="#495560"/></g></g></g><g/><g/><g/><g/><g/><g/><g/><g/><g/><g/><g/><g/><g/><g/><g/></svg>