<svg id="Capa_1" enable-background="new 0 0 497 497" height="512" viewBox="0 0 497 497" width="512" xmlns="http://www.w3.org/2000/svg"><g><path d="m167.544 125.426h83.057l43.579 70.12-43.579 71.592h-86.943l-67.98-76.416z" fill="#dd6642"/><path d="m157.934 205.288c0-27.526 3.346-54.267 9.611-79.862h-105.442v141.712h101.555c-3.745-20.048-5.724-40.717-5.724-61.85z" fill="#cb5935"/><path d="m177.687 216.457h-26.67c-11.142 0-20.175-9.033-20.175-20.175 0-11.142 9.033-20.175 20.175-20.175h26.67c11.142 0 20.175 9.033 20.175 20.175 0 11.142-9.032 20.175-20.175 20.175z" fill="#fff8e6"/><path d="m157.934 205.288c0-9.833.435-19.565 1.269-29.181h-8.186c-11.142 0-20.175 9.033-20.175 20.175 0 11.142 9.033 20.175 20.175 20.175h7.123c-.122-3.71-.206-7.429-.206-11.169z" fill="#ffeab7"/><path d="m452.847 437.68h-175.209c-14.932 0-27.037-12.105-27.037-27.037v-285.217h229.283v285.217c0 14.932-12.105 27.037-27.037 27.037z" fill="#e7896e"/><path d="m17.116 110.725 9.287 303.642c.397 12.989 11.042 23.313 24.037 23.313 12.995 0 23.64-10.324 24.037-23.313l9.287-303.642z" fill="#dd6642"/><path d="m165.594 133.87h304.739c14.728 0 26.667-11.939 26.667-26.667v-21.216c0-14.728-11.939-26.667-26.667-26.667h-278.977l-55.01 29.921z" fill="#fdcb89"/><path d="m191.356 59.32h-164.689c-14.728 0-26.667 11.939-26.667 26.667v21.216c0 14.728 11.939 26.667 26.667 26.667h138.927c5.675-26.116 14.382-51.099 25.762-74.55z" fill="#fab658"/><path d="m417.755 262.536h-105.026c-13.826 0-25.034-11.208-25.034-25.034v-41.955c0-13.826 11.208-25.034 25.034-25.034h105.026c13.826 0 25.034 11.208 25.034 25.034v41.955c.001 13.826-11.207 25.034-25.034 25.034z" fill="#fff8e6"/><path d="m417.755 392.594h-105.026c-13.826 0-25.034-11.208-25.034-25.034v-41.955c0-13.826 11.208-25.034 25.034-25.034h105.026c13.826 0 25.034 11.208 25.034 25.034v41.955c.001 13.826-11.207 25.034-25.034 25.034z" fill="#fff8e6"/><g fill="#e7896e"><circle cx="365.242" cy="216.524" r="17.444"/><circle cx="365.242" cy="346.582" r="17.444"/></g></g></svg>