<svg id="Capa_1" enable-background="new 0 0 512 512" height="512" viewBox="0 0 512 512" width="512" xmlns="http://www.w3.org/2000/svg"><g><path d="m242.193 403.239c-3.015 29.578-3.314 57.018-2.048 81.743-4.938.803-11.892 2.546-19.341 6.6-11.917 6.486-18.766 15.438-22.022 20.418-7.62 0-15.239 0-22.859 0-11.888 0-22.581-7.217-26.975-18.249-18.629-46.809-59.375-171.711 7.801-231.905 23.126-20.726 80.567-28.509 129.433-23.337-19.186 43.282-37.268 98.861-43.989 164.73z" fill="#ff8c42"/><path d="m363.495 493.751c-4.395 11.032-15.098 18.249-26.975 18.249h-22.859c-11.862-6.266-28.055-13.219-48.081-17.55-12.52-2.708-23.91-3.822-33.618-4.132-4.623-11.179-9.704-26.061-13.184-44.033-3.35-17.3-5.089-37.037-3.52-58.652 6.062-83.542 57.224-135.933 70.923-149.124 29.353 3.115 55.618 10.887 69.513 23.337 67.176 60.195 26.429 185.097 7.801 231.905z" fill="#ffaa75"/><path d="m325.177 418.444c-4.693 51.621-11.516 93.556-11.516 93.556h-71.458c-4.215-5.959-41.012-59.892-19.709-123.566 15.098-45.128 50.143-67.535 60.331-73.559 30.98 6.405 46.562 57.203 42.352 103.569z" fill="#ffc7a4"/><path d="m236.123 463.758c.845 14.454 2.661 30.655 6.08 48.242h-43.422s-6.824-41.935-11.517-93.556c-4.508-49.595 13.637-104.258 49.042-104.258h39.83c2.306 0 4.539.236 6.69.689-8.549 6.737-18.301 16.102-26.728 28.888-24.793 37.615-22.268 80.788-19.975 119.995z" fill="#ffb88c"/><path d="m249.785 410.823-26.051-26.023c-3.433-3.429-3.433-8.988 0-12.417l26.051-26.023c3.433-3.429 8.998-3.429 12.431 0l26.051 26.023c3.433 3.429 3.433 8.988 0 12.417l-26.051 26.023c-3.433 3.429-8.999 3.429-12.431 0z" fill="#00c5fd"/><path d="m373.392 300.585c-30.969 25.548-76.768 43.992-117.299 43.18-11.535-9.807-17.098-19.918-19.947-26.901-12.536-30.728-.65-69.887 28.984-100.684 40.478 1.131 79.568 10.014 98.124 26.648 5.877 5.274 10.992 11.011 15.407 17.128 9.242 12.778 6.896 30.595-5.269 40.629z" fill="#a8e1f6"/><path d="m246.964 304.234c-.505 18.937 5.784 33.104 9.129 39.53-47.261-.956-89.541-18.619-117.71-42.604-11.929-10.168-14.203-27.686-5.136-40.455 4.539-6.395 9.819-12.388 15.942-17.879 21.274-19.061 69.523-27.943 115.94-26.648-.309 15.103-2.347 31.398-6.577 48.474-3.746 6.211-11.073 20.254-11.588 39.582z" fill="#91d4f2"/><path d="m405.713 172.403c0 69.899-65.272 101.431-146.445 102.243-11.838-16.016-37.668-55.573-41.008-112.045-4.548-76.851 35.772-130.631 46.544-144.133 78.58 5.624 140.909 85.619 140.909 153.935z" fill="#ffaa75"/><path d="m240.639 159.408c.556 45.986 9.077 85.146 18.629 115.238-1.081.01-2.172.021-3.263.021-82.686 0-149.718-31.429-149.718-102.264 0-70.845 67.032-154.254 149.718-154.254 2.954 0 5.887.103 8.8.319-13.247 36.405-24.846 84.416-24.166 140.94z" fill="#ff8c42"/><path d="m200.509 84.307 1.265-59.602c.462-21.744-25.81-32.962-41.197-17.592l-60.932 60.867c-15.396 15.379-4.184 41.676 17.573 41.215l59.667-1.264c12.931-.275 23.349-10.692 23.624-23.624z" fill="#ffc7a4"/><path d="m311.491 84.307-1.265-59.602c-.462-21.744 25.81-32.962 41.197-17.592l60.932 60.866c15.396 15.379 4.184 41.676-17.573 41.215l-59.667-1.264c-12.931-.274-23.349-10.691-23.624-23.623z" fill="#485c70"/><path d="m332.999 240.329c0 31.943-18.32 57.85-40.911 57.85-12.543 0-23.765-7.978-31.266-20.54-2.181-3.653-7.457-3.653-9.639-.001-7.506 12.563-18.727 20.542-31.262 20.542-22.601 0-40.922-25.908-40.922-57.85 0-31.953 18.32-57.861 40.922-57.861h22.725l15.417 8.595 11.291-8.595h22.735c22.591-.001 40.91 25.907 40.91 57.86z" fill="#ffc7a4"/><path d="m268.232 226.112 14.452-15.446c10.013-10.702 2.424-28.194-12.232-28.194h-28.903c-14.656 0-22.244 17.492-12.232 28.194l14.452 15.446c6.619 7.075 17.843 7.075 24.463 0z" fill="#454545"/><path d="m256 377.194c-4.264 0-7.719-3.452-7.719-7.711v-38.431c0-4.258 3.455-7.711 7.719-7.711s7.719 3.452 7.719 7.711v38.431c0 4.259-3.455 7.711-7.719 7.711z" fill="#0081b9"/><g fill="#454545"><path d="m206.848 161.982c-4.264 0-7.719-3.452-7.719-7.711 0-3.552-2.893-6.441-6.448-6.441-3.556 0-6.449 2.889-6.449 6.441 0 4.258-3.455 7.711-7.719 7.711s-7.719-3.452-7.719-7.711c0-12.055 9.819-21.862 21.887-21.862s21.886 9.807 21.886 21.862c0 4.258-3.456 7.711-7.719 7.711z"/><path d="m333.486 161.982c-4.264 0-7.719-3.452-7.719-7.711 0-3.552-2.893-6.441-6.448-6.441-3.556 0-6.449 2.889-6.449 6.441 0 4.258-3.456 7.711-7.719 7.711-4.264 0-7.719-3.452-7.719-7.711 0-12.055 9.819-21.862 21.887-21.862s21.886 9.807 21.886 21.862c0 4.258-3.455 7.711-7.719 7.711z"/></g></g></svg>