<?xml version="1.0" encoding="UTF-8" standalone="no"?>
<!-- Created with Inkscape (http://www.inkscape.org/) -->

<svg
   version="1.1"
   id="svg3009"
   xml:space="preserve"
   width="682.66669"
   height="682.66669"
   viewBox="0 0 682.66669 682.66669"
   xmlns="http://www.w3.org/2000/svg"
   xmlns:svg="http://www.w3.org/2000/svg"><defs
     id="defs3013"><clipPath
       clipPathUnits="userSpaceOnUse"
       id="clipPath3023"><path
         d="M 0,512 H 512 V 0 H 0 Z"
         id="path3021" /></clipPath></defs><g
     id="g3015"
     transform="matrix(1.3333333,0,0,-1.3333333,0,682.66667)"><g
       id="g3017"><g
         id="g3019"
         clip-path="url(#clipPath3023)"><g
           id="g3025"
           transform="translate(492.0203,238.1891)"><path
             d="m 0,0 h -472.041 v 200.785 c 0,12.522 10.151,22.673 22.673,22.673 H -22.673 C -10.151,223.458 0,213.307 0,200.785 Z"
             style="fill:#a2735e;fill-opacity:1;fill-rule:nonzero;stroke:none"
             id="path3027" /></g><g
           id="g3029"
           transform="translate(492.0202,284.9893)"><path
             d="m 0,0 c -11.508,10.938 -27.058,17.664 -44.188,17.664 h -383.665 c -17.13,0 -32.68,-6.726 -44.187,-17.664 V -46.8 H 0 Z"
             style="fill:#916754;fill-opacity:1;fill-rule:nonzero;stroke:none"
             id="path3031" /></g><g
           id="g3033"
           transform="translate(61.187,270.4212)"><path
             d="m 0,0 v 139.708 c 0,5.695 4.616,10.311 10.311,10.311 h 369.004 c 5.695,0 10.311,-4.616 10.311,-10.311 V 0"
             style="fill:none;stroke:#825c4b;stroke-width:15;stroke-linecap:round;stroke-linejoin:round;stroke-miterlimit:10;stroke-dasharray:none;stroke-opacity:1"
             id="path3035" /></g><g
           id="g3037"
           transform="translate(220.3153,246.3507)"><path
             d="m 0,0 h -142.754 c -12.966,0 -23.477,10.511 -23.477,23.477 v 90.136 c 0,12.966 10.511,23.477 23.477,23.477 H 0 c 12.966,0 23.477,-10.511 23.477,-23.477 V 23.477 C 23.477,10.511 12.966,0 0,0"
             style="fill:#f2f3f3;fill-opacity:1;fill-rule:nonzero;stroke:none"
             id="path3039" /></g><g
           id="g3041"
           transform="translate(64.1676,302.6533)"><path
             d="m 0,0 c -3.431,0 -6.798,-0.276 -10.083,-0.795 v -32.031 c 0,-12.966 10.511,-23.477 23.477,-23.477 h 142.754 c 12.966,0 23.477,10.511 23.477,23.477 V 0 Z"
             style="fill:#e8e9ea;fill-opacity:1;fill-rule:nonzero;stroke:none"
             id="path3043" /></g><g
           id="g3045"
           transform="translate(434.4386,246.3507)"><path
             d="m 0,0 h -142.754 c -12.966,0 -23.477,10.511 -23.477,23.477 v 90.136 c 0,12.966 10.511,23.477 23.477,23.477 H 0 c 12.966,0 23.477,-10.511 23.477,-23.477 V 23.477 C 23.477,10.511 12.966,0 0,0"
             style="fill:#f2f3f3;fill-opacity:1;fill-rule:nonzero;stroke:none"
             id="path3047" /></g><g
           id="g3049"
           transform="translate(447.8324,302.6533)"><path
             d="m 0,0 h -179.625 v -32.826 c 0,-12.966 10.511,-23.477 23.477,-23.477 h 142.754 c 12.966,0 23.477,10.511 23.477,23.477 V -0.795 C 6.798,-0.276 3.431,0 0,0"
             style="fill:#e8e9ea;fill-opacity:1;fill-rule:nonzero;stroke:none"
             id="path3051" /></g><g
           id="g3053"
           transform="translate(447.8324,143.4124)"><path
             d="m 0,0 h -383.665 c -35.439,0 -64.167,28.729 -64.167,64.168 v 0 c 0,35.439 28.728,64.167 64.167,64.167 H 0 c 35.439,0 64.168,-28.728 64.168,-64.167 v 0 C 64.168,28.729 35.439,0 0,0"
             style="fill:#f284b9;fill-opacity:1;fill-rule:nonzero;stroke:none"
             id="path3055" /></g><g
           id="g3057"
           transform="translate(470.7296,189.7706)"><path
             d="m 0,0 h -429.459 c -19.194,0 -35.325,13.103 -39.942,30.852 -0.869,-4.212 -1.329,-8.573 -1.329,-13.042 v -10e-4 c 0,-35.438 28.729,-64.167 64.168,-64.167 h 383.665 c 35.439,0 64.167,28.729 64.167,64.167 v 10e-4 c 0,4.469 -0.459,8.83 -1.329,13.042 C 35.324,13.103 19.194,0 0,0"
             style="fill:#d977a6;fill-opacity:1;fill-rule:nonzero;stroke:none"
             id="path3059" /></g><g
           id="g3061"
           transform="translate(0,157.234)"><path
             d="m 0,0 v -95.979 c 0,-6.021 4.881,-10.902 10.903,-10.902 h 21.571 c 6.021,0 10.902,4.881 10.902,10.902 v 0.001 c 0,24.702 20.025,44.727 44.727,44.727 h 335.794 c 24.702,0 44.727,-20.025 44.727,-44.727 v -0.001 c 0,-6.021 4.881,-10.902 10.902,-10.902 h 21.571 c 6.022,0 10.903,4.881 10.903,10.902 V 0 c 0,6.021 -4.881,10.903 -10.903,10.903 H 10.903 C 4.881,10.903 0,6.021 0,0"
             style="fill:#a2735e;fill-opacity:1;fill-rule:nonzero;stroke:none"
             id="path3063" /></g></g></g></g></svg>
