<svg id="Capa_1" enable-background="new 0 0 512 512" height="512" viewBox="0 0 512 512" width="512" xmlns="http://www.w3.org/2000/svg"><g><path d="m256 101.109c-51.864 0-102.807-6.141-147.32-17.76-43.576-11.374-80.138-27.728-105.734-47.294-3.291-2.516-3.919-7.223-1.404-10.513s7.224-3.918 10.513-1.404c50.006 38.225 143.48 61.971 243.945 61.971s193.939-23.746 243.945-61.971c3.291-2.516 7.998-1.887 10.514 1.404 2.515 3.291 1.887 7.998-1.404 10.513-25.597 19.566-62.158 35.92-105.734 47.294-44.514 11.619-95.457 17.76-147.321 17.76z" fill="#7a8fa5"/><g><path d="m499.49 205.048-28.18 53.69c-6.34 12.06-21.26 16.71-33.33 10.38l-43.29-22.73v162.7c0 13.63-11.05 24.68-24.68 24.68h-159.99c-44.284-76.683-50.533-194.787-12.41-278.3 13.91 16.78 34.91 27.47 58.41 27.47 36.73 0 67.36-26.12 74.33-60.8l50.44.01c9.13 0 18.13 2.22 26.21 6.46l82.11 43.11c12.07 6.34 16.72 21.26 10.38 33.33z" fill="#fcf5af"/><path d="m210.02 433.768h-68c-13.63 0-24.68-11.05-24.68-24.68v-162.72l-43.32 22.75c-12.07 6.33-26.99 1.68-33.33-10.38l-28.18-53.69c-6.34-12.07-1.69-26.99 10.38-33.32l82.14-43.13c8.09-4.24 17.09-6.46 26.22-6.46h50.44c2.51 12.49 8.09 23.88 15.92 33.33-24.08 87.29-18.65 200.75 12.41 278.3z" fill="#f8ea69"/><path d="m151.71 75.748-6.94 55.02c-.53 4.23-2.6 7.93-5.6 10.57-1.27 1.12-2.71 2.05-4.27 2.75-15.818-23.838-16.82-62.132-1.81-87.37h1.84c10.18 0 18.06 8.93 16.78 19.03z" fill="#ed9b84"/><path d="m134.9 144.088c-2.12.96-4.47 1.48-6.92 1.48-8.52 0-15.71-6.34-16.78-14.8l-6.94-55.02c-1.28-10.1 6.59-19.03 16.78-19.03h12.05c-10.14 26.52-9.05 62.12 1.81 87.37z" fill="#e7896e"/><path d="m407.74 75.748-6.94 55.02c-.54 4.23-2.6 7.93-5.6 10.57-1.13 1.01-2.41 1.86-3.78 2.52-13.869-24.615-16.745-60.77-1.71-87.14h1.25c10.19 0 18.06 8.93 16.78 19.03z" fill="#ed9b84"/><path d="m391.42 143.858c-2.24 1.1-4.76 1.71-7.4 1.71-8.53 0-15.72-6.34-16.79-14.8l-6.94-55.02c-1.28-10.1 6.59-19.03 16.78-19.03h12.64c-10.11 26.44-9.05 61.9 1.71 87.14z" fill="#e7896e"/><path d="m240.88 418.908c0 17.02-13.43 30.89-30.27 31.6-17.792-18.424-18.138-59.678.87-80.63.11.07.22.15.32.24 7.52 6.29 29.08 26.28 29.08 48.79z" fill="#5ad6ff"/><path d="m210.61 450.508c-.23.02-.46.03-.69.03-17.48.37-32.32-14.14-32.32-31.63.01-22.51 21.56-42.5 29.08-48.79 1.39-1.15 3.35-1.23 4.8-.24-14.71 22.69-14.26 57.67-.87 80.63z" fill="#00c5fd"/><path d="m360.09 457.768c0 16.39-12.47 29.87-28.44 31.46-16.496-19.748-17.275-57.423.27-79.5 8.21 7.05 28.17 26.37 28.17 48.04z" fill="#5ad6ff"/><path d="m331.65 489.228c-.83.1-1.67.15-2.52.17-17.48.36-32.32-14.15-32.32-31.63.01-22.52 21.56-42.5 29.08-48.8 1.49-1.24 3.64-1.24 5.12 0 .28.24.59.5.91.76-14.02 22.69-13.4 56.89-.27 79.5z" fill="#00c5fd"/></g><g><ellipse cx="176.443" cy="287.076" fill="#ffa1ac" rx="29.355" ry="23.377"/><ellipse cx="335.557" cy="287.076" fill="#ffa1ac" rx="29.355" ry="23.377"/><g><path d="m193.551 270.457c-7.133 0-13.916-3.089-18.61-8.475-2.721-3.123-2.396-7.86.727-10.582 3.123-2.721 7.86-2.396 10.582.727 1.844 2.116 4.505 3.33 7.301 3.33s5.458-1.214 7.302-3.33c2.721-3.123 7.458-3.448 10.582-.726 3.123 2.721 3.448 7.459.726 10.582-4.694 5.385-11.477 8.474-18.61 8.474z" fill="#516980"/></g><g><path d="m318.448 270.457c-7.133 0-13.915-3.089-18.609-8.475-2.722-3.123-2.396-7.86.727-10.582 3.122-2.722 7.86-2.397 10.582.726 1.844 2.116 4.505 3.33 7.301 3.33s5.458-1.214 7.302-3.33c2.722-3.123 7.46-3.448 10.582-.726 3.123 2.721 3.448 7.459.727 10.582-4.696 5.386-11.479 8.475-18.612 8.475z" fill="#516980"/></g><path d="m290.753 259.865c-7.257-10.738-18.207-8.232-25.455-6.573-3.107.711-6.32 1.447-9.298 1.447s-6.191-.736-9.298-1.447c-7.246-1.659-18.196-4.167-25.455 6.573-3.672 5.433-3.846 12.187-.477 18.531 5.672 10.68 20.159 18.138 35.23 18.138s29.559-7.459 35.23-18.138c3.37-6.344 3.195-13.099-.477-18.531z" fill="#516980"/></g></g></svg>