<svg id="Capa_1" enable-background="new 0 0 512 512" viewBox="0 0 512 512" xmlns="http://www.w3.org/2000/svg"><g><g><g><g><circle cx="201.902" cy="470.232" fill="#555a66" r="41.768"/></g><g><path d="m226.773 473.987h-49.743c-20.401 0-36.939-16.538-36.939-36.939v-34.158c0-6.104 4.948-11.052 11.052-11.052h101.517c6.104 0 11.052 4.948 11.052 11.052v34.158c0 20.401-16.538 36.939-36.939 36.939z" fill="#e1f1fa"/></g><g><path d="m228.243 473.956c-.484.021-.979.031-1.473.031h-49.737c-20.408 0-36.942-16.534-36.942-36.942v-34.15c0-6.109 4.945-11.054 11.054-11.054h52.683c-6.109 0-11.054 4.945-11.054 11.054v34.15c.001 19.913 15.741 36.138 35.469 36.911z" fill="#cdebfc"/></g></g><g><path d="m287.825 322.533h-106.527l20.604-279.572c0-23.726 19.234-42.961 42.961-42.961 23.727 0 42.962 19.235 42.962 42.962z" fill="#ffee6e"/></g><g><path d="m265.467 5.257c-6.117-3.35-13.137-5.257-20.604-5.257-23.727 0-42.962 19.235-42.962 42.962l-20.604 279.572h61.811v-279.572c.001-16.261 9.036-30.409 22.359-37.705z" fill="#ffdf61"/></g><g><path d="m201.902 322.533h-85.923v-279.571c0-23.727 19.234-42.962 42.961-42.962 23.727 0 42.962 19.235 42.962 42.962z" fill="#ffee6e"/></g><g><path d="m179.544 5.257c-6.118-3.35-13.137-5.257-20.604-5.257-23.727 0-42.962 19.235-42.962 42.962v279.572h41.207v-279.572c.001-16.261 9.036-30.409 22.359-37.705z" fill="#ffdf61"/></g><g><path d="m248.068 434.751h-92.333c-39.552 0-71.614-32.063-71.614-71.614v-22.978c0-17.069 13.837-30.905 30.905-30.905h173.751c17.069 0 30.905 13.837 30.905 30.905v22.978c.001 39.551-32.062 71.614-71.614 71.614z" fill="#f5fafc"/></g><g><path d="m217.55 434.747h-61.811c-39.559 0-71.618-32.059-71.618-71.608v-22.983c0-17.07 13.835-30.905 30.905-30.905h61.811c-17.07 0-30.905 13.835-30.905 30.905v22.983c0 39.549 32.059 71.608 71.618 71.608z" fill="#e1f1fa"/></g></g><g><g><g><path d="m475.636 351.127c0-48.052-29.917-89.101-72.134-105.582-114.875 26.4-112.584 184.646 0 211.163 42.217-16.48 72.134-57.529 72.134-105.581z" fill="#c3dc4b"/></g><g><path d="m331.411 351.127c0-48.047 29.903-89.106 72.113-105.59-12.772-4.988-26.669-7.729-41.207-7.729-62.585 0-113.32 50.735-113.32 113.32 0 50.614 33.185 93.472 78.983 108.018l6.719-4.677 8.281 8.329c6.285 1.081 12.744 1.65 19.337 1.65 14.538 0 28.435-2.741 41.207-7.729-42.21-16.486-72.113-57.545-72.113-105.592z" fill="#b4d241"/></g></g></g><g><g><path d="m355.899 396.525c7.863-15.876 5.474-32.508-6.291-44.274-8.492-8.492-22.647-15.04-37.267-16.619 0-.001 0-.002 0-.004-4.752-.513-9.553-.504-14.224.138-3.256.448-5.814 3.006-6.262 6.262-2.618 19.046 5.233 40.24 16.485 51.492 11.766 11.766 28.398 14.155 44.274 6.291.707-.35 1.348-.813 1.901-1.364l-.008-.008c.56-.557 1.038-1.198 1.392-1.914z" fill="#e1f1fa"/></g><g><g><g><path d="m349.778 402.314c-11.152-22.516-7.764-46.104 8.923-62.791 12.043-12.043 32.118-21.33 52.854-23.569 0-.002 0-.003.001-.005 6.739-.728 13.548-.715 20.173.195 4.617.635 8.246 4.263 8.881 8.881 3.712 27.012-7.422 57.07-23.379 73.028-16.686 16.686-40.274 20.075-62.791 8.923-1.002-.496-1.912-1.153-2.697-1.934l.012-.012c-.796-.792-1.474-1.701-1.977-2.716z" fill="#f5fafc"/></g></g></g></g><g><path d="m411.666 345.087c-2.929-2.928-7.678-2.928-10.606 0l-53.995 53.995c-.157.157-.302.323-.443.49-.056.053-.116.1-.171.155-11.912 11.911-18.471 27.748-18.471 44.594v14.824c4.866 1.545 9.874 2.771 15 3.652v-18.477c0-12.839 5-24.909 14.078-33.988.154-.154.296-.316.434-.48.059-.055.122-.105.18-.162l53.995-53.995c2.928-2.93 2.928-7.678-.001-10.608z" fill="#cdebfc"/></g><g><g><path d="m359.934 128.282h-30.905c-4.142 0-7.5-3.357-7.5-7.5s3.358-7.5 7.5-7.5h30.905c4.142 0 7.5 3.357 7.5 7.5s-3.358 7.5-7.5 7.5z" fill="#ffee6e"/></g><g><path d="m331.292 97.377c-1.919 0-3.839-.732-5.303-2.196-2.929-2.93-2.929-7.678 0-10.607l10.927-10.927c2.929-2.928 7.678-2.928 10.606 0 2.929 2.93 2.929 7.678 0 10.607l-10.927 10.927c-1.465 1.464-3.384 2.196-5.303 2.196z" fill="#ffee6e"/></g><g><path d="m342.218 170.114c-1.919 0-3.839-.732-5.303-2.196l-10.927-10.927c-2.929-2.93-2.929-7.678 0-10.607 2.929-2.928 7.678-2.928 10.606 0l10.927 10.927c2.929 2.93 2.929 7.678 0 10.607-1.464 1.464-3.383 2.196-5.303 2.196z" fill="#ffee6e"/></g></g><g><g><path d="m74.77 128.282h-30.906c-4.142 0-7.5-3.357-7.5-7.5s3.358-7.5 7.5-7.5h30.906c4.142 0 7.5 3.357 7.5 7.5s-3.358 7.5-7.5 7.5z" fill="#ffee6e"/></g><g><path d="m72.506 97.377c-1.919 0-3.839-.732-5.303-2.196l-10.927-10.927c-2.929-2.93-2.929-7.678 0-10.607 2.929-2.928 7.678-2.928 10.606 0l10.928 10.926c2.929 2.93 2.929 7.678 0 10.607-1.465 1.465-3.384 2.197-5.304 2.197z" fill="#ffee6e"/></g><g><path d="m61.58 170.114c-1.919 0-3.839-.732-5.303-2.196-2.929-2.93-2.929-7.678 0-10.607l10.927-10.927c2.929-2.928 7.678-2.928 10.606 0 2.929 2.93 2.929 7.678 0 10.607l-10.927 10.927c-1.464 1.464-3.384 2.196-5.303 2.196z" fill="#ffee6e"/></g></g></g><g/><g/><g/><g/><g/><g/><g/><g/><g/><g/><g/><g/><g/><g/><g/></svg>