<svg id="Capa_1" enable-background="new 0 0 512 512" height="512" viewBox="0 0 512 512" width="512" xmlns="http://www.w3.org/2000/svg"><g><path d="m87.695 42.296c0-23.36 18.936-42.296 42.295-42.296h252.02c23.359 0 42.296 18.936 42.296 42.296v427.409c0 23.359-18.936 42.296-42.296 42.296h-252.02c-23.359 0-42.296-18.936-42.296-42.296v-427.409z" fill="#a2ddfd"/><path d="m129.99 0c-23.359 0-42.296 18.936-42.296 42.296v427.409c0 23.359 18.936 42.296 42.296 42.296h121.064c-87.074-69.655-76.115-382.591-64.388-512h-56.676z" fill="#7acdf9"/><path d="m382.01 512h-252.02c-23.359 0-42.296-18.936-42.296-42.296v-11.858h336.61v11.858c.001 23.36-18.935 42.296-42.294 42.296z" fill="#4e5660"/><path d="m87.695 469.704c0 23.359 18.936 42.296 42.296 42.296h121.064c-14.727-11.781-26.651-30.518-36.24-54.153h-127.12z" fill="#383c43"/><path d="m146.99 333.379h-5.321c-7.951 0-14.396-6.445-14.396-14.396v-75.698c0-7.951 6.445-14.396 14.396-14.396h5.321c7.951 0 14.396 6.445 14.396 14.396v75.698c.001 7.951-6.445 14.396-14.396 14.396z" fill="#6a95d6"/><path d="m149.079 133.841h-9.498c-6.797 0-12.307-5.51-12.307-12.307v-51.754c0-6.797 5.51-12.307 12.307-12.307h9.498c6.797 0 12.307 5.51 12.307 12.307v51.754c.001 6.797-5.51 12.307-12.307 12.307z" fill="#6a95d6"/><g><g><ellipse cx="208.958" cy="401.603" fill="#fff" rx="31.456" ry="25.05"/><ellipse cx="379.46" cy="401.603" fill="#fff" rx="31.456" ry="25.05"/><ellipse cx="294.209" cy="382.356" fill="#4e5660" rx="16.698" ry="18.685"/></g><g fill="#4e5660"><path d="m214.217 378.875c-4.143 0-7.5-3.358-7.5-7.5v-12.201c0-4.142 3.357-7.5 7.5-7.5s7.5 3.358 7.5 7.5v12.201c0 4.142-3.358 7.5-7.5 7.5z"/><path d="m374.201 378.875c-4.143 0-7.5-3.358-7.5-7.5v-12.201c0-4.142 3.357-7.5 7.5-7.5s7.5 3.358 7.5 7.5v12.201c0 4.142-3.357 7.5-7.5 7.5z"/></g></g><path d="m338.463 318.89h-88.507c-12.43 0-22.506-10.076-22.506-22.506v-30.5c0-12.43 10.076-22.506 22.506-22.506h88.507c12.43 0 22.506 10.076 22.506 22.506v30.5c0 12.43-10.077 22.506-22.506 22.506z" fill="#6a95d6"/><path d="m360.969 275.983h-133.519v-10.099c0-12.43 10.076-22.506 22.506-22.506h88.507c12.43 0 22.506 10.076 22.506 22.506z" fill="#fbf1cf"/><path d="m87.695 183.814h336.609v15h-336.609z" fill="#4e5660"/></g></svg>