<svg id="Capa_1" enable-background="new 0 0 512 512" height="512" viewBox="0 0 512 512" width="512" xmlns="http://www.w3.org/2000/svg"><g><g><g><g><path d="m282.428 96.694-8.535 8.535c-3.333 3.333-3.333 8.736 0 12.068l8.534 8.534c3.333 3.333 3.333 8.736 0 12.069l-8.534 8.534c-3.333 3.333-3.333 8.736 0 12.069 5.376 5.376 1.569 14.568-6.034 14.568h-20.649c-26.195 0-51.382-8.66-71.84-24.236-15.881-12.092-35.382-18.464-55.343-18.464v-38.222c19.961 0 39.462-6.373 55.343-18.464 20.458-15.576 45.645-24.236 71.84-24.236h20.652c7.602 0 11.41 9.191 6.034 14.567l-.005.005c-3.332 3.332-3.332 8.735 0 12.067l8.537 8.538c3.332 3.333 3.332 8.736 0 12.068z" fill="#67b758"/></g></g></g><g><g><g><path d="m130.329 131.863v-41.207c0-5.69-4.612-10.302-10.302-10.302h-20.604c-5.69 0-10.302 4.612-10.302 10.302v41.207c0 5.69 4.612 10.302 10.302 10.302h20.604c5.69 0 10.302-4.612 10.302-10.302z" fill="#c68d6d"/></g></g></g><g><g><g><path d="m436.11 52.953-27.026-27.026c-14.18 14.18-32.594 23.376-52.46 26.114-25.379 3.498-49.209 15.167-67.666 33.624l-51.023 51.023c-12.069 12.069-12.069 31.638 0 43.707l43.707 43.707c12.069 12.069 31.638 12.069 43.707 0l51.023-51.023c18.457-18.457 30.126-42.287 33.624-67.666 2.738-19.866 11.933-38.28 26.114-52.46z" fill="#bdfaff"/></g></g></g><g><g><g><path d="m267.073 165.825 51.023-51.023c8.988-8.988 19.25-16.366 30.345-21.975 20.7-10.465 44.394-10.994 65.009-2.66 4.442-13.966 12.191-26.745 22.661-37.215l-27.026-27.026c-14.18 14.18-32.594 23.376-52.46 26.114-25.379 3.498-49.209 15.167-67.666 33.624l-51.023 51.023c-12.069 12.069-12.069 31.638 0 43.707l29.138 29.138c-12.07-12.069-12.07-31.637-.001-43.707z" fill="#a0f0f2"/></g></g></g><g><g><g><path d="m429.881 61.293-29.138-29.138c-4.023-4.023-4.023-10.546 0-14.569l14.569-14.569c4.023-4.023 10.546-4.023 14.569 0l29.138 29.138c4.023 4.023 4.023 10.546 0 14.569l-14.569 14.569c-4.023 4.023-10.546 4.023-14.569 0z" fill="#5f7080"/></g></g></g><g><g><g><path d="m415.312 32.155 14.569-14.569c4.023-4.023 10.546-4.023 14.569 0l-14.569-14.569c-4.023-4.023-10.546-4.023-14.569 0l-14.569 14.569c-4.023 4.023-4.023 10.546 0 14.569l14.569 14.569c-4.023-4.023-4.023-10.546 0-14.569z" fill="#495560"/></g></g></g><g><g><g><path d="m411.824 429.097 21.356-274.57h-354.36l21.356 274.57 155.824 41.451z" fill="#92dd7a"/></g></g></g><g><g><g><path d="m427.571 226.64 5.609-72.113h-354.36l21.356 274.57 57.931 15.41-16.945-217.867z" fill="#7ec66a"/></g></g></g><g><g><g><path d="m431.131 185.433h-350.262c-17.069 0-30.905-13.837-30.905-30.905 0-17.069 13.837-30.905 30.905-30.905h350.262c17.069 0 30.905 13.837 30.905 30.905 0 17.068-13.837 30.905-30.905 30.905z" fill="#b1ef97"/></g></g></g><g><g><g><path d="m189.17 154.527c0-17.069 13.837-30.905 30.905-30.905h-139.206c-17.069 0-30.905 13.837-30.905 30.905s13.837 30.905 30.905 30.905h139.206c-17.068.001-30.905-13.836-30.905-30.905z" fill="#92dd7a"/></g></g></g><g><g><g><path d="m100.176 429.097 2.013 25.886c2.503 32.18 29.347 57.017 61.625 57.017h184.373c32.278 0 59.122-24.837 61.625-57.018l2.013-25.886h-311.649z" fill="#7ec66a"/></g></g></g><g><g><g><path d="m102.189 454.982c2.503 32.181 29.347 57.018 61.625 57.018h56.733c-32.278 0-59.122-24.837-61.625-57.018l-2.013-25.886h-56.733z" fill="#67b758"/></g></g></g><g><g><g><g><path d="m293.575 305.936c-9.999-13.133-16.075-28.744-17.882-45.041h.911c5.69 0 10.302-4.612 10.302-10.302v-20.604c0-5.69-4.612-10.302-10.302-10.302h-41.207c-5.69 0-10.302 4.612-10.302 10.302v20.604c0 5.689 4.612 10.302 10.302 10.302h.911c-1.808 16.297-7.883 31.908-17.882 45.041-15.576 20.457-24.236 45.644-24.236 71.838.001 7.602 9.192 11.409 14.568 6.033 3.333-3.333 8.736-3.333 12.069 0l8.534 8.534c3.333 3.333 8.736 3.333 12.069 0l8.534-8.534c3.333-3.333 8.736-3.333 12.068 0l8.535 8.535c3.332 3.333 8.735 3.333 12.068 0l8.538-8.537c3.332-3.332 8.735-3.332 12.067 0l.005.005c5.376 5.375 14.567 1.568 14.567-6.034-.001-26.195-8.661-51.382-24.237-71.84z" fill="#67b758"/></g></g></g><g><g><g><path d="m194.189 377.776v-.002-.001z" fill="#eebf00"/></g></g></g></g></g></svg>