<?xml version="1.0" encoding="iso-8859-1"?>
<!-- Generator: Adobe Illustrator 19.0.0, SVG Export Plug-In . SVG Version: 6.00 Build 0)  -->
<svg version="1.1" id="Capa_1" xmlns="http://www.w3.org/2000/svg" xmlns:xlink="http://www.w3.org/1999/xlink" x="0px" y="0px"
	 viewBox="0 0 512 512" style="enable-background:new 0 0 512 512;" xml:space="preserve">
<path style="fill:#3AC7B4;" d="M385.624,23.085c-25.596-8.473-54.541-6.496-79.831,7.869c-30.086,17.09-47.763,47.6-49.794,79.733
	c28.639,14.713,63.898,15.156,93.983-1.934c25.29-14.365,41.812-38.214,47.643-64.537C399.632,35.163,394.427,26,385.624,23.085z"/>
<path style="fill:#00AD94;" d="M256.007,118.415c-2.689,0-5.301-1.406-6.725-3.912c-2.108-3.711-0.808-8.427,2.902-10.535
	l98.986-56.224c3.71-2.107,8.427-0.808,10.535,2.902s0.808,8.427-2.902,10.535l-98.986,56.224
	C258.612,118.09,257.3,118.415,256.007,118.415z"/>
<path style="fill:#3AC7B4;" d="M206.206,30.955c-25.29-14.365-54.235-16.342-79.831-7.869c-8.803,2.914-14.008,12.077-12.003,21.131
	c5.831,26.324,22.353,50.172,47.643,64.537c30.086,17.09,65.345,16.647,93.983,1.934C253.969,78.554,236.293,48.044,206.206,30.955z
	"/>
<path style="fill:#00AD94;" d="M255.993,118.415c-1.294,0-2.603-0.325-3.809-1.01l-98.986-56.224
	c-3.711-2.108-5.01-6.824-2.902-10.535c2.109-3.712,6.824-5.01,10.535-2.902l98.986,56.224c3.711,2.108,5.01,6.824,2.902,10.535
	C261.294,117.008,258.682,118.415,255.993,118.415z"/>
<path style="fill:#3AC7B4;" d="M424.02,142.479c-33.37-12.518-71.843-10.694-105.256,8.285c-37.924,21.541-60.206,60-62.765,100.503
	c36.1,18.545,80.544,19.104,118.468-2.437c33.413-18.979,54.683-51.09,61.021-86.161
	C437.041,154.075,432.197,145.547,424.02,142.479z"/>
<path style="fill:#00AD94;" d="M256.007,258.996c-2.689,0-5.301-1.406-6.725-3.912c-2.108-3.711-0.808-8.427,2.902-10.535
	l124.772-70.871c3.71-2.108,8.427-0.808,10.535,2.902c2.108,3.71,0.808,8.427-2.902,10.535l-124.772,70.871
	C258.612,258.67,257.3,258.996,256.007,258.996z"/>
<path style="fill:#3AC7B4;" d="M193.235,150.764c-33.413-18.979-71.886-20.802-105.256-8.285
	c-8.177,3.068-13.02,11.596-11.468,20.189c6.338,35.072,27.608,67.183,61.021,86.161c37.924,21.541,82.367,20.983,118.468,2.437
	C253.441,210.764,231.159,172.305,193.235,150.764z"/>
<path style="fill:#00AD94;" d="M255.993,258.996c-1.294,0-2.603-0.324-3.809-1.01l-124.771-70.871
	c-3.711-2.108-5.01-6.824-2.902-10.535c2.109-3.711,6.823-5.01,10.535-2.902l124.771,70.871c3.711,2.108,5.01,6.824,2.902,10.535
	C261.294,257.59,258.682,258.996,255.993,258.996z"/>
<path style="fill:#FF8C57;" d="M256,321.939l-130.045,29.995l28.393,125.438c4.584,20.251,22.58,34.629,43.343,34.629h116.618
	c20.763,0,38.76-14.377,43.343-34.629l28.393-125.438L256,321.939z"/>
<g>
	<path style="fill:#3A484A;" d="M181.642,428.061c-4.268,0-7.726-3.459-7.726-7.726v-13.457c0-4.267,3.458-7.726,7.726-7.726
		s7.726,3.459,7.726,7.726v13.457C189.368,424.603,185.91,428.061,181.642,428.061z"/>
	<path style="fill:#3A484A;" d="M330.358,428.061c-4.268,0-7.726-3.459-7.726-7.726v-13.457c0-4.267,3.458-7.726,7.726-7.726
		c4.268,0,7.726,3.459,7.726,7.726v13.457C338.085,424.603,334.625,428.061,330.358,428.061z"/>
	<path style="fill:#3A484A;" d="M256,435.244c-9.382,0-18.191-3.923-24.169-10.761c-2.809-3.213-2.481-8.094,0.732-10.902
		c3.212-2.808,8.094-2.48,10.901,0.732c3.043,3.481,7.613,5.478,12.535,5.478c4.923,0,9.493-1.996,12.536-5.478
		c2.808-3.213,7.689-3.541,10.901-0.732c3.213,2.808,3.542,7.689,0.732,10.902C274.192,431.321,265.383,435.244,256,435.244z"/>
</g>
<path style="fill:#00AD94;" d="M256,337.84c-8.781,0-15.901-7.119-15.901-15.901V15.901C240.099,7.119,247.219,0,256,0
	c8.781,0,15.901,7.119,15.901,15.901v306.038C271.901,330.72,264.781,337.84,256,337.84z"/>
<polygon style="fill:#EC6A34;" points="125.955,351.934 132.951,382.839 379.049,382.839 386.045,351.934 256,321.939 "/>
<path style="fill:#FF8C57;" d="M386.045,291.944h-260.09c-10.948,0-19.823,8.875-19.823,19.823v20.344
	c0,10.948,8.875,19.823,19.823,19.823h260.089c10.948,0,19.823-8.875,19.823-19.823v-20.344
	C405.868,300.819,396.993,291.944,386.045,291.944z"/>
<g>
</g>
<g>
</g>
<g>
</g>
<g>
</g>
<g>
</g>
<g>
</g>
<g>
</g>
<g>
</g>
<g>
</g>
<g>
</g>
<g>
</g>
<g>
</g>
<g>
</g>
<g>
</g>
<g>
</g>
</svg>
