<svg id="Capa_1" enable-background="new 0 0 512 512" height="512" viewBox="0 0 512 512" width="512" xmlns="http://www.w3.org/2000/svg"><g><path d="m118.467 226.959-71.566 20v-103.073h71.566c22.94 0 41.536 18.597 41.536 41.536 0 22.941-18.596 41.537-41.536 41.537z" fill="#ffebce"/><path d="m110.144 164.021h48.743v175.23h-48.743z" fill="#fff4e5" transform="matrix(0 1 -1 0 386.151 117.12)"/><path d="m475.1 286.652-184.88-13.75-34.05-2.53-50-3.72v-42.26c0-20.5 16.62-37.13 37.13-37.13h221.8z" fill="#b1ecd0"/><path d="m303.87 266.652-13.65 6.25-34.05-2.53-50-3.72v-42.26c0-20.5 16.62-37.13 37.13-37.13h60.57c-21.93 0-39.7 17.77-39.7 39.69v.01c0 21.92 17.77 39.69 39.7 39.69z" fill="#80e0b7"/><path d="m46.9 266.652h418.2v132.83h-418.2z" fill="#b3c2ce"/><path d="m124.88 380.032c12.02 12.02 28.63 19.45 46.97 19.45h-124.95v-132.83h124.95c-36.68 0-66.42 29.74-66.42 66.41 0 18.34 7.43 34.95 19.45 46.97z" fill="#97aabb"/><g><path d="m512 171.604v257.813c0 7.65-3.104 14.579-8.121 19.596-1.709 1.709-3.631 3.187-5.738 4.398-4.074 2.374-8.814 3.723-13.859 3.723-15.309 0-27.717-12.408-27.717-27.717v-257.813c0-7.65 3.104-14.579 8.121-19.596s11.946-8.121 19.596-8.121c5.045 0 9.784 1.349 13.859 3.723 8.288 4.786 13.859 13.738 13.859 23.994z" fill="#f6d6c5"/><path d="m498.141 453.41c-4.074 2.374-8.814 3.723-13.859 3.723-15.309 0-27.717-12.408-27.717-27.717v-257.812c0-7.65 3.104-14.579 8.121-19.596s11.946-8.121 19.596-8.121c5.045 0 9.784 1.349 13.859 3.723-2.106 1.21-4.028 2.689-5.737 4.398-5.017 5.017-8.121 11.946-8.121 19.596v257.813c0 10.255 5.571 19.207 13.858 23.993z" fill="#efb899"/></g><g><path d="m55.435 82.584v346.832c0 7.65-3.104 14.579-8.121 19.596-1.709 1.709-3.631 3.187-5.738 4.398-4.074 2.374-8.814 3.723-13.859 3.723-15.309.001-27.717-12.408-27.717-27.717v-346.832c0-7.65 3.104-14.579 8.121-19.596s11.946-8.121 19.596-8.121c5.045 0 9.784 1.349 13.859 3.723 8.288 4.786 13.859 13.738 13.859 23.994z" fill="#f6d6c5"/><path d="m41.576 453.41c-4.074 2.374-8.814 3.723-13.859 3.723-15.309.001-27.717-12.408-27.717-27.717v-346.832c0-7.65 3.104-14.579 8.121-19.596s11.946-8.121 19.596-8.121c5.045 0 9.784 1.349 13.859 3.723-2.106 1.21-4.028 2.689-5.737 4.398-5.017 5.017-8.121 11.946-8.121 19.596v346.832c-.001 10.256 5.571 19.208 13.858 23.994z" fill="#efb899"/></g><g><g fill="#fff"><ellipse cx="173.435" cy="335.392" rx="30.834" ry="24.555"/><ellipse cx="340.565" cy="335.392" rx="30.834" ry="24.555"/></g><g><g><path d="m191.405 318.953c-4.142 0-7.5-3.357-7.5-7.5v-12c0-4.143 3.358-7.5 7.5-7.5s7.5 3.357 7.5 7.5v12c0 4.142-3.358 7.5-7.5 7.5z" fill="#59636f"/></g><g><path d="m257 326.758c-8.795 0-17.16-3.81-22.948-10.451-2.721-3.123-2.396-7.86.727-10.582 3.124-2.721 7.861-2.396 10.582.727 2.939 3.372 7.181 5.307 11.64 5.307s8.701-1.935 11.64-5.307c2.721-3.123 7.459-3.448 10.582-.727 3.123 2.722 3.448 7.459.727 10.582-5.79 6.642-14.155 10.451-22.95 10.451z" fill="#59636f"/></g><g><path d="m338.818 318.619c-4.142 0-7.5-3.357-7.5-7.5 0-3.532-2.874-6.406-6.406-6.406s-6.406 2.874-6.406 6.406c0 4.143-3.358 7.5-7.5 7.5s-7.5-3.357-7.5-7.5c0-11.804 9.603-21.406 21.406-21.406s21.406 9.603 21.406 21.406c0 4.142-3.358 7.5-7.5 7.5z" fill="#59636f"/></g></g></g></g></svg>