<svg height="512pt" viewBox="0 -93 512.00003 512" width="512pt" xmlns="http://www.w3.org/2000/svg"><path d="m354.164062 185.945312h-103.972656v-24.914062c0-10.691406 8.667969-19.359375 19.359375-19.359375h65.253907c10.691406 0 19.359374 8.667969 19.359374 19.359375zm0 0" fill="#889cb0"/><path d="m105.785156 145.625-20.96875-12.488281c-7.890625-4.703125-18.101562-2.0625-22.722656 5.875l-19.066406 32.734375c-4.574219 7.851562-1.945313 17.925781 5.886718 22.542968l21.355469 12.582032zm0 0" fill="#2eddda"/><path d="m169.582031 133.714844h-53.589843v-72.125c0-10.433594 8.457031-18.890625 18.890624-18.890625h15.808594c10.433594 0 18.890625 8.457031 18.890625 18.890625zm0 0" fill="#76e7e7"/><path d="m495.871094 103.816406-64.4375-76.128906c-16.917969-19.988281-42.714844-30.222656-68.722656-27.148438-88.800782 10.496094-286.640626 59.09375-327.953126 283.285157h403.457032l63.164062-99.445313c15.984375-25.171875 13.75-57.804687-5.507812-80.5625zm-101.898438 38.640625c0 17.296875-14.019531 31.316407-31.316406 31.316407h-129.351562c-18.339844 0-28.34375-21.472657-16.496094-35.46875 46.914062-55.433594 107.539062-68.175782 144.332031-70.289063 17.828125-1.023437 32.832031 13.179687 32.832031 31.039063zm0 0" fill="#c2eafb"/><path d="m495.871094 103.816406-62.058594-73.320312c-11.609375 14.058594-33.910156 32.71875-72.671875 37.519531 17.828125-1.023437 32.832031 13.179687 32.832031 31.039063v43.402343c0 17.296875-14.019531 31.316407-31.316406 31.316407h-129.351562c-18.339844 0-28.34375-21.472657-16.496094-35.46875 0 0-67.9375 78.140624-164.636719 81.792968-7.269531 19.492188-13.164063 40.667969-17.414063 63.726563h403.457032l63.164062-99.449219c15.984375-25.167969 13.75-57.800781-5.507812-80.558594zm0 0" fill="#91d4f2"/><path d="m446.496094 327.511719h-419.757813c-14.765625 0-26.738281-11.972657-26.738281-26.742188 0-14.765625 11.972656-26.738281 26.738281-26.738281h419.757813c14.765625 0 26.738281 11.972656 26.738281 26.738281.003906 14.769531-11.96875 26.742188-26.738281 26.742188zm0 0" fill="#889cb0"/><path d="m101.851562 300.769531c0-14.765625 11.972657-26.738281 26.738282-26.738281h-101.851563c-14.765625 0-26.738281 11.972656-26.738281 26.738281 0 14.769531 11.972656 26.742188 26.738281 26.742188h101.851563c-14.765625 0-26.738282-11.972657-26.738282-26.742188zm0 0" fill="#6a829a"/></svg>