<?xml version="1.0" encoding="iso-8859-1"?>
<!-- Generator: Adobe Illustrator 19.0.0, SVG Export Plug-In . SVG Version: 6.00 Build 0)  -->
<svg version="1.1" id="Capa_1" xmlns="http://www.w3.org/2000/svg" xmlns:xlink="http://www.w3.org/1999/xlink" x="0px" y="0px"
	 viewBox="0 0 512 512" style="enable-background:new 0 0 512 512;" xml:space="preserve">
<path style="fill:#EFEDEE;" d="M341.851,214.532c-6.95-12.508-20.134-20.266-34.442-20.266h-59.645
	c-14.309,0-27.493,7.757-34.442,20.266l-9.009,16.217l73.275,18.748l73.275-18.748L341.851,214.532z"/>
<path style="fill:#D4D2D3;" d="M245.518,230.749l9.009-16.217c6.949-12.508,20.133-20.266,34.442-20.266h-41.207
	c-14.309,0-27.493,7.758-34.442,20.266l-9.009,16.217l73.275,18.748l20.604-5.271L245.518,230.749z"/>
<path style="fill:#3A484A;" d="M393.235,130.637c-0.217-0.485-0.452-0.963-0.704-1.433C379.847,105.472,355.25,90.73,328.34,90.73
	H195.06c-7.232,0-13.094,5.863-13.094,13.094c0,17.955,14.555,32.509,32.509,32.509H328.34c9.824,0,18.821,5.26,23.646,13.775
	l66.573,148.736l41.625-18.632L393.235,130.637z"/>
<path style="fill:#323E40;" d="M418.56,298.842l41.625-18.631l-35.44-79.178c-5.149-0.773-10.362-1.19-15.601-1.19h-34.895
	L418.56,298.842z"/>
<path style="fill:#42C3E2;" d="M482.344,289.645c-7.536-34.39-37.995-58.895-73.201-58.895H204.311
	c-13.328,0-26.388,1.983-38.812,5.748c-34.777,10.539-63.475,35.309-79.919,67.715L52.22,369.951l195.279,25.66l252.443-25.66
	L482.344,289.645z"/>
<path style="fill:#00A6C8;" d="M93.428,369.951l33.359-65.739c16.444-32.404,45.143-57.175,79.919-67.714
	c12.424-3.765,25.484-5.748,38.812-5.748h-41.207c-13.328,0-26.388,1.983-38.812,5.748c-34.777,10.539-63.475,35.309-79.919,67.714
	L52.22,369.951l195.279,25.66l23.235-2.361L93.428,369.951z"/>
<path style="fill:#D4D2D3;" d="M499.942,369.951H52.22c-17.781,0-34.243,9.382-43.306,24.679l-7.627,12.876
	c-3.6,6.078,0.78,13.764,7.845,13.764h490.81c6.659,0,12.058-5.398,12.058-12.058v-27.204
	C512,375.35,506.602,369.951,499.942,369.951z"/>
<path style="fill:#9E9C9D;" d="M42.494,407.506l7.627-12.876c9.063-15.298,25.525-24.68,43.306-24.68H52.22
	c-17.781,0-34.243,9.382-43.306,24.68l-7.627,12.876c-3.6,6.078,0.78,13.764,7.845,13.764h41.207
	C43.275,421.271,38.894,413.584,42.494,407.506z"/>
<g>
	<path style="fill:#3A484A;" d="M167.958,306.876c-4.267,0-7.726-3.459-7.726-7.726v-14.622c0-4.267,3.459-7.726,7.726-7.726
		s7.726,3.459,7.726,7.726v14.622C175.684,303.416,172.225,306.876,167.958,306.876z"/>
	<path style="fill:#3A484A;" d="M329.544,306.876c-4.267,0-7.726-3.459-7.726-7.726v-14.622c0-4.267,3.459-7.726,7.726-7.726
		c4.267,0,7.726,3.459,7.726,7.726v14.622C337.27,303.416,333.811,306.876,329.544,306.876z"/>
	<path style="fill:#3A484A;" d="M248.751,314.68c-10.001,0-19.39-4.178-25.758-11.464c-2.808-3.213-2.481-8.094,0.732-10.902
		c3.212-2.807,8.093-2.481,10.902,0.732c3.434,3.928,8.581,6.181,14.123,6.181c5.541,0,10.69-2.253,14.124-6.181
		c2.809-3.213,7.689-3.54,10.902-0.731c3.213,2.808,3.541,7.689,0.731,10.902C268.14,310.502,258.752,314.68,248.751,314.68z"/>
</g>
<circle style="fill:#C13247;" cx="411.599" cy="275.986" r="14.405"/>
<circle style="fill:#EFEDEE;" cx="427.999" cy="328.164" r="14.405"/>
<g>
</g>
<g>
</g>
<g>
</g>
<g>
</g>
<g>
</g>
<g>
</g>
<g>
</g>
<g>
</g>
<g>
</g>
<g>
</g>
<g>
</g>
<g>
</g>
<g>
</g>
<g>
</g>
<g>
</g>
</svg>
