<?xml version="1.0" encoding="UTF-8" standalone="no"?>
<!-- Created with Inkscape (http://www.inkscape.org/) -->

<svg
   version="1.1"
   id="svg2562"
   xml:space="preserve"
   width="682.66669"
   height="682.66669"
   viewBox="0 0 682.66669 682.66669"
   xmlns="http://www.w3.org/2000/svg"
   xmlns:svg="http://www.w3.org/2000/svg"><defs
     id="defs2566"><clipPath
       clipPathUnits="userSpaceOnUse"
       id="clipPath2576"><path
         d="M 0,512 H 512 V 0 H 0 Z"
         id="path2574" /></clipPath></defs><g
     id="g2568"
     transform="matrix(1.3333333,0,0,-1.3333333,0,682.66667)"><g
       id="g2570"><g
         id="g2572"
         clip-path="url(#clipPath2576)"><g
           id="g2578"
           transform="translate(330.8037,57.3672)"><path
             d="m 0,0 1.617,35.284 c 0.378,8.25 7.177,14.745 15.436,14.745 h 43.211 c 9.067,0 16.186,-7.77 15.393,-16.803 L 72.563,-2.057 C 71.863,-10.038 65.18,-16.16 57.169,-16.16 H 15.437 C 6.625,-16.16 -0.403,-8.803 0,0 m -209.858,50.029 h 43.197 c 8.26,0 15.059,-6.495 15.437,-14.745 L -149.607,0 c 0.403,-8.803 -6.625,-16.16 -15.437,-16.16 h -41.729 c -8.012,0 -14.696,6.124 -15.394,14.107 l -3.085,35.283 c -0.79,9.031 6.328,16.799 15.394,16.799 m 48.792,200.047 1.617,-35.283 c 0.403,-8.803 -6.625,-16.16 -15.437,-16.16 h -50.67 c -8.013,0 -14.696,6.124 -15.394,14.106 l -3.086,35.284 c -0.79,9.031 6.328,16.799 15.394,16.799 h 52.14 c 8.259,0 15.058,-6.495 15.436,-14.746 m 131.252,-1.414 -1.616,-35.284 c -0.379,-8.25 -7.178,-14.745 -15.437,-14.745 h -55.873 c -8.26,0 -15.059,6.495 -15.437,14.745 l -1.617,35.284 c -0.403,8.803 6.625,16.16 15.437,16.16 h 59.107 c 8.812,0 15.84,-7.357 15.436,-16.16 m 51.788,-91.236 h 47.71 c 9.067,0 16.186,-7.771 15.393,-16.803 L 81.982,105.339 C 81.282,97.359 74.6,91.236 66.589,91.236 H 20.357 c -8.812,0 -15.84,7.358 -15.436,16.16 l 1.616,35.284 c 0.378,8.251 7.178,14.746 15.437,14.746 m -241.224,0 h 47.669 c 8.259,0 15.058,-6.495 15.436,-14.746 l 1.617,-35.284 c 0.403,-8.802 -6.625,-16.16 -15.437,-16.16 h -46.2 c -8.012,0 -14.695,6.125 -15.393,14.107 l -3.086,35.284 c -0.79,9.031 6.328,16.799 15.394,16.799 M -39.655,33.869 -41.272,-1.415 c -0.378,-8.25 -7.177,-14.745 -15.437,-14.745 h -36.19 c -8.259,0 -15.058,6.495 -15.436,14.745 l -1.617,35.284 c -0.403,8.803 6.625,16.16 15.436,16.16 h 39.424 c 8.812,0 15.84,-7.357 15.437,-16.16 m -73.601,72.113 -1.617,35.284 c -0.403,8.802 6.625,16.16 15.437,16.16 h 49.265 c 8.812,0 15.84,-7.358 15.436,-16.16 l -1.616,-35.284 C -36.729,97.731 -43.529,91.236 -51.788,91.236 H -97.82 c -8.259,0 -15.058,6.495 -15.436,14.746 M 94.497,248.019 91.402,212.735 c -0.7,-7.98 -7.382,-14.102 -15.393,-14.102 H 25.278 c -8.812,0 -15.84,7.357 -15.436,16.16 l 1.616,35.283 c 0.378,8.251 7.177,14.746 15.437,14.746 h 52.209 c 9.067,0 16.185,-7.771 15.393,-16.803 m 14.508,165.407 -8.183,-93.294 c -0.7,-7.981 -7.382,-14.103 -15.393,-14.103 h -55.23 c -8.812,0 -15.84,7.357 -15.437,16.16 l 4.181,91.237 h -41.207 l -4.246,-92.651 c -0.378,-8.251 -7.177,-14.746 -15.436,-14.746 h -65.715 c -8.26,0 -15.059,6.495 -15.437,14.746 l -4.245,92.651 h -41.207 l 4.18,-91.237 c 0.403,-8.803 -6.624,-16.16 -15.436,-16.16 h -55.142 c -8.013,0 -14.696,6.125 -15.394,14.107 l -8.158,93.29 h -41.398 l 37.092,-423.775 c 2.328,-26.606 24.606,-47.018 51.312,-47.018 h 273.38 c 26.707,0 48.984,20.412 51.313,47.018 l 37.092,423.775 z"
             style="fill:#f492c8;fill-opacity:1;fill-rule:nonzero;stroke:none"
             id="path2580" /></g><g
           id="g2582"
           transform="translate(165.7598,41.2072)"><path
             d="m 0,0 h -41.729 c -8.012,0 -14.696,6.124 -15.394,14.107 l -3.085,35.283 c -0.79,9.031 6.328,16.799 15.394,16.799 h 43.197 c 8.26,0 15.059,-6.495 15.437,-14.745 L 15.436,16.16 C 15.84,7.357 8.812,0 0,0 m -66.514,121.503 -3.086,35.284 c -0.79,9.031 6.328,16.799 15.394,16.799 h 47.669 c 8.259,0 15.058,-6.495 15.436,-14.746 l 1.617,-35.284 c 0.403,-8.802 -6.625,-16.16 -15.437,-16.16 h -46.2 c -8.012,0 -14.695,6.125 -15.393,14.107 m -9.392,107.396 -3.086,35.284 c -0.79,9.031 6.328,16.799 15.394,16.799 h 52.14 c 8.259,0 15.058,-6.495 15.436,-14.746 l 1.617,-35.283 c 0.403,-8.803 -6.625,-16.16 -15.437,-16.16 h -50.67 c -8.013,0 -14.696,6.124 -15.394,14.106 M 69.637,-20.604 C 69.637,-9.225 78.861,0 90.24,0 H 72.145 C 63.886,0 57.087,6.495 56.709,14.745 l -1.617,35.284 c -0.403,8.803 6.624,16.16 15.436,16.16 H 90.24 c -11.379,0 -20.603,9.225 -20.603,20.604 0,11.379 9.224,20.603 20.603,20.603 H 67.224 c -8.259,0 -15.058,6.495 -15.436,14.746 l -1.617,35.284 c -0.403,8.802 6.625,16.16 15.437,16.16 H 90.24 c -11.379,0 -20.603,9.224 -20.603,20.603 0,11.379 9.224,20.604 20.603,20.604 H 62.303 c -8.259,0 -15.058,6.495 -15.436,14.745 l -1.617,35.284 c -0.403,8.803 6.625,16.16 15.437,16.16 H 90.24 c -11.379,0 -20.603,9.224 -20.603,20.604 0,11.379 9.224,20.603 20.603,20.603 H 57.383 c -8.26,0 -15.059,6.495 -15.437,14.746 l -4.245,92.651 H -3.506 l 4.18,-91.237 c 0.403,-8.803 -6.624,-16.16 -15.436,-16.16 h -55.142 c -8.013,0 -14.696,6.125 -15.394,14.107 l -8.158,93.29 h -41.398 L -97.762,5.811 c 2.328,-26.606 24.606,-47.018 51.312,-47.018 H 90.24 c -11.379,0 -20.603,9.224 -20.603,20.603"
             style="fill:#ea7dbe;fill-opacity:1;fill-rule:nonzero;stroke:none"
             id="path2584" /></g><g
           id="g2586"
           transform="translate(470.7928,429.5855)"><path
             d="m 0,0 h -429.586 c -22.758,0 -41.207,18.449 -41.207,41.207 v 0 c 0,22.758 18.449,41.207 41.207,41.207 H 0 c 22.758,0 41.207,-18.449 41.207,-41.207 v 0 C 41.207,18.449 22.758,0 0,0"
             style="fill:#ffa4d2;fill-opacity:1;fill-rule:nonzero;stroke:none"
             id="path2588" /></g><g
           id="g2590"
           transform="translate(82.4145,470.7928)"><path
             d="M 0,0 V 0 C 0,22.758 18.449,41.207 41.207,41.207 H -41.207 C -63.965,41.207 -82.414,22.758 -82.414,0 v 0 c 0,-22.758 18.449,-41.207 41.207,-41.207 H 41.207 C 18.449,-41.207 0,-22.758 0,0"
             style="fill:#f492c8;fill-opacity:1;fill-rule:nonzero;stroke:none"
             id="path2592" /></g><g
           id="g2594"
           transform="translate(202.8374,478.9411)"><path
             d="M 0,0 V -10.216"
             style="fill:none;stroke:#555a66;stroke-width:15;stroke-linecap:round;stroke-linejoin:round;stroke-miterlimit:10;stroke-dasharray:none;stroke-opacity:1"
             id="path2596" /></g><g
           id="g2598"
           transform="translate(309.1626,478.9411)"><path
             d="M 0,0 V -10.216"
             style="fill:none;stroke:#555a66;stroke-width:15;stroke-linecap:round;stroke-linejoin:round;stroke-miterlimit:10;stroke-dasharray:none;stroke-opacity:1"
             id="path2600" /></g><g
           id="g2602"
           transform="translate(241.984,469.0296)"><path
             d="m 0,0 c 3.408,-3.911 8.421,-6.385 14.016,-6.385 5.595,0 10.608,2.474 14.016,6.385"
             style="fill:none;stroke:#555a66;stroke-width:15;stroke-linecap:round;stroke-linejoin:round;stroke-miterlimit:10;stroke-dasharray:none;stroke-opacity:1"
             id="path2604" /></g></g></g></g></svg>
