<svg id="Capa_1" enable-background="new 0 0 512 512" height="512" viewBox="0 0 512 512" width="512" xmlns="http://www.w3.org/2000/svg"><g><g><path id="XMLID_553_" d="m342.885 477.049c37.702 0 68.267-30.565 68.267-68.267v-257.551l-19.394-29.134h-227.368c-145.944 23.445-142.496 320.085 40.252 354.776.31 0 .625 0 .934.001 35.933-.029 80.884.002 137.309.175z" fill="#e6eeff"/><path id="XMLID_551_" d="m164.39 122.097h-144.565l-19.825 29.134v257.552c0 37.702 30.565 68.267 68.267 68.267 55.94-.171 100.597-.203 136.375-.176-76.357-97.445-90.448-240.437-40.252-354.777z" fill="#d7e2ff"/><path id="XMLID_550_" d="m306.424 314.14c0-44.872-29.305-82.889-69.818-95.977-71.973 0-98.553 51.105-98.553 95.977 0 44.871 32.613 95.977 98.553 95.977 40.514-13.088 69.818-51.106 69.818-95.977z" fill="#9be9f1"/><path id="XMLID_548_" d="m166.788 314.14c0-44.872 29.305-82.889 69.818-95.977-9.776-3.158-20.202-4.871-31.03-4.871-55.699 0-100.849 45.149-100.849 100.849s45.149 100.849 100.849 100.849c10.828 0 21.254-1.713 31.03-4.872-40.514-13.089-69.818-51.107-69.818-95.978z" fill="#33d9e7"/><path id="XMLID_547_" d="m488.727 325.776c0-14.998-12.154-27.151-27.152-27.151-17.013 0-34.048 0-51.026 0-34.307 0-40.77 12.167-40.77 27.151 0 14.998 12.154 27.152 27.151 27.152l.086 17.067h64.473l.086-17.067c14.999 0 27.152-12.167 27.152-27.152z" fill="#a0ecc0"/><path id="XMLID_545_" d="m383.398 325.776c0-14.984 12.153-27.151 27.151-27.151h-34.307c-14.998 0-27.151 12.167-27.151 27.151 0 14.998 12.153 27.152 27.151 27.152l.086 17.067h34.307l-.086-17.067c-14.997 0-27.151-12.154-27.151-27.152z" fill="#4de09c"/><path id="XMLID_544_" d="m488.727 380.079c0-14.998-12.154-27.151-27.152-27.151h-51.026c-34.307 0-40.77 12.167-40.77 27.151 0 14.998 12.154 27.151 27.151 27.151l.086 17.756h64.645l-.086-17.756c14.999.001 27.152-12.166 27.152-27.151z" fill="#ffd984"/><path id="XMLID_542_" d="m383.398 380.079c0-14.984 12.153-27.151 27.151-27.151h-34.307c-14.998 0-27.151 12.167-27.151 27.151 0 14.998 12.153 27.151 27.151 27.151l.086 17.756h34.307l-.086-17.756c-14.997.001-27.151-12.153-27.151-27.151z" fill="#ffca4b"/><path id="XMLID_540_" d="m512 425.59v-1.034c0-9.568-7.758-17.325-17.325-17.325-9.834 0-62.607 0-103.607 0-43.27 0-41.827 13.52-38.615 28.657 3.922 18.487 21.382 38.834 69.398 41.016 8.797-.021 19.137-.006 31.366.084 3.266-.025 6.837-.047 10.744-.064 26.827-1.761 48.039-24.06 48.039-51.334z" fill="#d7e2ff"/><path id="XMLID_538_" d="m391.068 407.231c-22.625 0-41.668 0-47.925 0-9.568 0-17.325 7.758-17.325 17.325v1.034c0 22.859 14.895 42.232 35.509 48.935 10.817 3.539 15.117 2.487 60.523 2.379-48.97-2.963-63.116-69.673-30.782-69.673z" fill="#bac8f8"/><path id="XMLID_536_" d="m267.636 314.14c0-26.641-16.785-49.35-40.354-58.151-70.838 0-89.229 90.991-18.493 105.583 18.799-1.149 37.79-7.794 52.383-19.826 4.137-8.316 6.464-17.687 6.464-27.606z" fill="#e6eeff"/><path id="XMLID_534_" d="m186.928 314.14c0-26.641 16.785-49.35 40.354-58.151-6.757-2.523-14.069-3.91-21.706-3.91-34.278 0-62.061 27.782-62.061 62.061 0 9.919 2.327 19.29 6.465 27.607 14.072 14.69 36.302 21.201 58.809 19.826-13.008-11.062-21.861-28.249-21.861-47.433z" fill="#d7e2ff"/><path id="XMLID_533_" d="m261.172 341.747c-8.78-11.412-23.933-15.02-36.625-9.655-6.076 2.569-7.936-2.437-18.97-2.437-9.06 0-11.659 3.25-15.779 3.127-21.203 21.944 1.686 45.229 37.479 39.543 13.937-5.1 26.293-15.29 33.895-30.578z" fill="#ff8a99"/><path id="XMLID_531_" d="m189.797 332.782c-1.085-.033-2.166-.256-3.191-.69-3.705-1.566-7.779-2.437-12.06-2.437-10.002 0-18.908 4.737-24.566 12.091 15.216 30.602 49.423 40.778 77.296 30.578-18.543-6.786-31.865-21.704-37.479-39.542z" fill="#ff5c70"/><path id="XMLID_530_" d="m411.151 103.134c0-37.702-30.565-68.267-68.267-68.267h-121.46c-128.333 0-170.569 89.988-68.252 116.364h257.979z" fill="#7188b1"/><path id="XMLID_528_" d="m68.267 34.867c-37.702 0-68.267 30.565-68.267 68.267v48.097h153.172c14.985-44.99 38.545-84.742 68.252-116.364z" fill="#4b73a7"/><ellipse id="XMLID_526_" cx="62.061" cy="96.928" fill="#ff8a99" rx="15.515" ry="15.515" transform="matrix(.23 -.973 .973 .23 -46.533 135.059)"/><ellipse id="XMLID_524_" cx="131.879" cy="96.928" fill="#ffd984" rx="15.515" ry="15.515" transform="matrix(.707 -.707 .707 .707 -29.912 121.642)"/><path id="XMLID_522_" d="m237.899 112.443c-8.564 0-15.515-6.951-15.515-15.515 0-8.55 6.951-15.515 15.515-15.515h111.192c8.564 0 15.515 6.951 15.515 15.515 0 8.55-6.951 15.515-15.515 15.515z" fill="#4b73a7"/></g></g></svg>