<?xml version="1.0" encoding="UTF-8" standalone="no"?>
<!-- Created with Inkscape (http://www.inkscape.org/) -->

<svg
   version="1.1"
   id="svg2382"
   xml:space="preserve"
   width="682.66669"
   height="682.66669"
   viewBox="0 0 682.66669 682.66669"
   xmlns="http://www.w3.org/2000/svg"
   xmlns:svg="http://www.w3.org/2000/svg"><defs
     id="defs2386"><clipPath
       clipPathUnits="userSpaceOnUse"
       id="clipPath2396"><path
         d="M 0,512 H 512 V 0 H 0 Z"
         id="path2394" /></clipPath></defs><g
     id="g2388"
     transform="matrix(1.3333333,0,0,-1.3333333,0,682.66667)"><g
       id="g2390"><g
         id="g2392"
         clip-path="url(#clipPath2396)"><g
           id="g2398"
           transform="translate(18.4395,393.8457)"><path
             d="M 0,0 92.164,-222.503 H 196.128 L 92.164,28.488 H 19.036 C 4.352,28.488 -5.619,13.566 0,0"
             style="fill:#f8475d;fill-opacity:1;fill-rule:nonzero;stroke:none"
             id="path2400" /></g><path
           d="M 368.854,226.432 H 254.079 v 74.962 h 114.775 z"
           style="fill:#eaeaea;fill-opacity:1;fill-rule:nonzero;stroke:none"
           id="path2402" /><path
           d="m 254.078,226.432 h 41.208 v 74.962 h -41.208 z"
           style="fill:#d4d3d9;fill-opacity:1;fill-rule:nonzero;stroke:none"
           id="path2404" /><g
           id="g2406"
           transform="translate(212.4854,222.8516)"><path
             d="m 0,0 -103.964,250.992 c -9.567,23.097 -32.105,38.156 -57.105,38.156 h -30.813 c -11.379,0 -20.603,-9.224 -20.603,-20.603 0,-11.379 9.224,-20.604 20.603,-20.604 h 30.813 c 8.333,0 15.845,-5.02 19.035,-12.719 L -38.07,-15.77 Z"
             style="fill:#eaeaea;fill-opacity:1;fill-rule:nonzero;stroke:none"
             id="path2408" /></g><g
           id="g2410"
           transform="translate(157.0312,356.7305)"><path
             d="m 0,0 c 0.214,-1.206 0.346,-2.441 0.346,-3.709 0,-11.664 -9.455,-21.119 -21.119,-21.119 -7.142,0 -13.443,3.555 -17.265,8.98 l 55.422,-133.8 38.07,15.769 z"
             style="fill:#d4d3d9;fill-opacity:1;fill-rule:nonzero;stroke:none"
             id="path2412" /></g><g
           id="g2414"
           transform="translate(370.7754,247.2437)"><path
             d="m 0,0 h -219.249 c -19.314,0 -36.036,-13.415 -40.227,-32.269 l -13.432,-60.447 H 53.659 L 40.227,-32.269 C 36.036,-13.415 19.314,0 0,0"
             style="fill:#3b4456;fill-opacity:1;fill-rule:nonzero;stroke:none"
             id="path2416" /></g><g
           id="g2418"
           transform="translate(203.0352,247.2437)"><path
             d="m 0,0 h -51.509 c -19.314,0 -36.036,-13.415 -40.226,-32.268 l -13.433,-60.448 h 51.509 l 13.433,60.448 C -36.036,-13.415 -19.313,0 0,0"
             style="fill:#303746;fill-opacity:1;fill-rule:nonzero;stroke:none"
             id="path2420" /></g><g
           id="g2422"
           transform="translate(92.7158,185.4326)"><path
             d="m 0,0 h 331.719 c 31.293,0 56.66,-25.368 56.66,-56.66 v -56.66 H 0 Z"
             style="fill:#ff6e7f;fill-opacity:1;fill-rule:nonzero;stroke:none"
             id="path2424" /></g><g
           id="g2426"
           transform="translate(281.7549,185.4326)"><path
             d="M 0,0 H -189.039 V -113.32 H -56.66 v 56.66 C -56.66,-25.368 -31.293,0 0,0"
             style="fill:#f8475d;fill-opacity:1;fill-rule:nonzero;stroke:none"
             id="path2428" /></g><g
           id="g2430"
           transform="translate(512,72.1128)"><path
             d="m 0,0 c 0,-39.827 -32.286,-72.113 -72.112,-72.113 -39.827,0 -72.114,32.286 -72.114,72.113 0,39.827 32.287,72.113 72.114,72.113 C -32.286,72.113 0,39.827 0,0"
             style="fill:#3b4456;fill-opacity:1;fill-rule:nonzero;stroke:none"
             id="path2432" /></g><g
           id="g2434"
           transform="translate(413.9941,25.8931)"><path
             d="M 0,0 C 0,14.3 11.593,25.893 25.894,25.893 V 66.546 C 11.593,66.546 0,78.139 0,92.439 c 0,14.301 11.593,25.894 25.894,25.894 -39.828,0 -72.114,-32.287 -72.114,-72.113 0,-39.827 32.286,-72.113 72.114,-72.113 C 11.593,-25.893 0,-14.3 0,0"
             style="fill:#303746;fill-opacity:1;fill-rule:nonzero;stroke:none"
             id="path2436" /></g><g
           id="g2438"
           transform="translate(460.4912,72.1128)"><path
             d="m 0,0 c 0,-11.379 -9.225,-20.604 -20.604,-20.604 -11.379,0 -20.603,9.225 -20.603,20.604 0,11.379 9.224,20.604 20.603,20.604 C -9.225,20.604 0,11.379 0,0"
             style="fill:#748696;fill-opacity:1;fill-rule:nonzero;stroke:none"
             id="path2440" /></g><g
           id="g2442"
           transform="translate(185.4326,92.7163)"><path
             d="m 0,0 c 0,-51.206 -41.511,-92.716 -92.717,-92.716 -51.205,0 -92.716,41.51 -92.716,92.716 0,51.206 41.511,92.716 92.716,92.716 C -41.511,92.716 0,51.206 0,0"
             style="fill:#3b4456;fill-opacity:1;fill-rule:nonzero;stroke:none"
             id="path2444" /></g><g
           id="g2446"
           transform="translate(56.6602,36.0562)"><path
             d="M 0,0 C 0,19.914 16.143,36.057 36.056,36.057 V 77.264 C 16.143,77.264 0,93.407 0,113.32 c 0,19.913 16.143,36.056 36.056,36.056 -51.205,0 -92.716,-41.51 -92.716,-92.716 0,-51.205 41.511,-92.716 92.716,-92.716 C 16.143,-36.056 0,-19.913 0,0"
             style="fill:#303746;fill-opacity:1;fill-rule:nonzero;stroke:none"
             id="path2448" /></g><g
           id="g2450"
           transform="translate(113.3203,92.7163)"><path
             d="m 0,0 c 0,-11.379 -9.225,-20.604 -20.604,-20.604 -11.379,0 -20.604,9.225 -20.604,20.604 0,11.379 9.225,20.604 20.604,20.604 C -9.225,20.604 0,11.379 0,0"
             style="fill:#748696;fill-opacity:1;fill-rule:nonzero;stroke:none"
             id="path2452" /></g><g
           id="g2454"
           transform="translate(375.0615,288.4507)"><path
             d="m 0,0 h -127.19 c -10.394,0 -18.82,8.426 -18.82,18.819 v 65.38 c 0,10.393 8.426,18.819 18.82,18.819 1.758,0 3.508,-0.247 5.199,-0.732 L 5.199,65.726 c 8.065,-2.318 13.62,-9.696 13.62,-18.087 V 18.819 C 18.819,8.426 10.394,0 0,0"
             style="fill:#3b4456;fill-opacity:1;fill-rule:nonzero;stroke:none"
             id="path2456" /></g><g
           id="g2458"
           transform="translate(270.2598,307.27)"><path
             d="m 0,0 v 53.761 c 0,10.393 8.425,18.819 18.819,18.819 0.816,0 1.629,-0.059 2.436,-0.164 l -38.444,11.05 c -1.691,0.486 -3.441,0.733 -5.2,0.733 -10.393,0 -18.819,-8.426 -18.819,-18.82 V 0 c 0,-10.394 8.426,-18.819 18.819,-18.819 H 18.819 C 8.425,-18.819 0,-10.394 0,0"
             style="fill:#303746;fill-opacity:1;fill-rule:nonzero;stroke:none"
             id="path2460" /></g></g></g></g></svg>
