<svg id="Layer_1" enable-background="new 0 0 512 512" viewBox="0 0 512 512" xmlns="http://www.w3.org/2000/svg"><g><path d="m496.483 301.63h-263.756c11.632-12.755 12.065-28.055 16.68-44.427 5.11-18.174 15.176-39.295 34.927-52.102 5.059-3.276 9.468-7.335 12.91-12.136 9.303-12.982 31.764-37.812 67.361-37.812 2.318 0 4.574.103 6.779.299 31.682 2.885 51.886 25.376 60.581 37.513 3.441 4.801 7.851 8.86 12.909 12.136 19.751 12.807 29.817 33.928 34.927 52.102 4.617 16.372 5.05 31.672 16.682 44.427z" fill="#fbf198"/><path d="m312.884 277.727c.299 8.902-.412 16.835-1.957 23.903h-78.199c11.632-12.755 12.065-28.055 16.68-44.427 5.11-18.174 15.176-39.295 34.927-52.102 5.059-3.276 9.468-7.335 12.91-12.136 9.303-12.982 31.764-37.812 67.361-37.812 2.318 0 4.574.103 6.779.299-18.207 14.198-60.778 54.75-58.501 122.275z" fill="#fad989"/><path d="m511.999 481.108c0 8.211-3.42 16.412-10.251 22.543-12.961 11.622-33.526 10.891-46.136-1.061-4.359-4.131-10.21-6.357-16.227-6.357-1.814 0-3.647.206-5.45.618-18.092 4.162-41.356 7.522-69.329 7.522-6.213 0-12.199-.165-17.948-.464-20.101-1.072-37.297-3.822-51.371-7.058-7.799-1.792-16.011.361-21.677 5.739-6.542 6.203-15.248 9.406-23.934 9.406-7.521 0-15.032-2.411-21.1-7.387-14.537-11.931-15.124-32.794-1.772-45.446 4.626-4.379 7.109-10.262 7.109-16.3 0-1.824-.227-3.657-.69-5.471-4.338-17.092-7.82-38.894-7.82-64.898 0-40.779 8.552-71.245 15.568-89.368 4.873-12.601 9.005-19.236 9.005-19.236h229.272s24.562 39.491 24.562 108.604c0 26.004-3.482 47.805-7.82 64.898-1.989 7.831.401 16.073 6.419 21.771 6.396 6.058 9.59 14.002 9.59 21.945z" fill="#e4996d"/><path d="m346.657 503.909c-20.101-1.072-37.297-3.822-51.371-7.058-7.799-1.792-16.011.361-21.677 5.739-6.542 6.203-15.248 9.406-23.934 9.406-7.521 0-15.032-2.411-21.1-7.387-14.537-11.931-15.124-32.794-1.772-45.446 4.626-4.379 7.109-10.262 7.109-16.3 0-1.824-.227-3.657-.69-5.471-4.338-17.092-7.82-38.894-7.82-64.898 0-40.779 8.552-71.245 15.568-89.368l65.455 41.788c-.001.001-30.858 106.853 40.232 178.995z" fill="#d97c41"/><path d="m511.999 287.021c0 10.045-1.524 17.195-3.255 22.079-1.947 5.482-6.934 9.469-12.961 10.354-15.135 2.236-53.565 6.357-131.177 6.357-22.574 0-41.841-.35-58.181-.896-39.821-1.339-62.261-3.874-72.997-5.46-6.027-.885-11.014-4.873-12.961-10.354-1.731-4.884-3.255-12.034-3.255-22.079 0-7.202.783-12.92 1.875-17.381 1.886-7.768 9.808-12.827 18.144-11.715 3.152.423 7.006.875 11.622 1.349h.01l24.037 8.716 40.202-4.935c14.847.423 31.929.69 51.505.69 71.791 0 110.056-3.524 127.375-5.821 8.335-1.113 16.258 3.946 18.154 11.715 1.08 4.461 1.863 10.179 1.863 17.381z" fill="#d97c41"/><path d="m302.055 317.445s1.05 4.235 4.368 7.47c-39.821-1.339-62.261-3.874-72.997-5.46-6.027-.885-11.014-4.873-12.961-10.354-1.731-4.884-3.255-12.034-3.255-22.079 0-7.202.783-12.92 1.875-17.381 1.886-7.768 9.808-12.827 18.144-11.715 12.6 1.669 36.277 3.987 75.871 5.13 0 0-14.414 3.091-14.949 19.401-.526 16.309 3.904 34.988 3.904 34.988z" fill="#af602d"/><path d="m460.017 206.953c-3.459 0-7.162-.196-11.131-.633-4.242-.466-7.303-4.283-6.837-8.525.467-4.241 4.286-7.292 8.525-6.837 30.24 3.328 39.334-9.372 39.418-9.501 2.314-3.586 7.1-4.615 10.682-2.303 3.586 2.314 4.617 7.097 2.303 10.682-.497.771-11.451 17.117-42.96 17.117z" fill="#ffb25a"/><path d="m443.725 170.783c14.841 1.631 25.55 14.984 23.919 29.824-1.631 14.841-14.984 25.55-29.824 23.919-13.3-1.461-32.664-18.58-40.338-27.145-2.382-2.659-1.929-6.781.973-8.859 9.351-6.695 31.97-19.2 45.27-17.739z" fill="#ffca8b"/><path d="m241.537 159.171c.215.938.609 1.849 1.192 2.686 23.747 34.087 48.314 30.935 49.349 30.784l-2.232-15.292.165-.021c-.674.067-16.723 1.358-34.602-24.304-2.44-3.502-7.256-4.363-10.757-1.924-2.663 1.856-3.799 5.088-3.115 8.071z" fill="#f54432"/><path d="m303.545 163.411c-14.31-5.764-30.584 1.165-36.348 15.475s1.165 30.584 15.475 36.348c12.825 5.166 38.819-.964 49.991-5.016 3.468-1.258 5.069-5.233 3.441-8.543-5.246-10.663-19.734-33.098-32.559-38.264z" fill="#fb695b"/><path d="m116.293 321.783s-25.963 30.507-68.566 27.035c-11.983-.979-25.284-4.646-39.698-12.446-8.933-4.832-10.756-16.907-3.719-24.232 5.234-5.45 11.313-12.672 17.124-21.688 5.646-8.747 8.881-18.752 10.375-29.045 1.072-7.367 4.781-14.404 11.096-19.576 11.694-9.592 28.941-9.241 40.223.834.752.67 1.453 1.36 2.122 2.082 3.719 4.007 6.182 8.736 7.398 13.713 1.308 5.327 5.44 9.624 10.715 11.128 5.08 1.452 9.86 4.234 13.785 8.314 11.879 12.354 11.498 32.002-.855 43.881z" fill="#ffca8b"/><path d="m47.727 348.818c-11.983-.979-25.284-4.646-39.698-12.446-8.933-4.832-10.756-16.907-3.719-24.232 5.234-5.45 11.313-12.672 17.124-21.688 5.646-8.747 8.881-18.752 10.375-29.045 1.072-7.367 4.781-14.404 11.096-19.576 11.694-9.592 28.941-9.241 40.223.834.752.67 1.453 1.36 2.122 2.082-12.838 7.8-60.303 41.604-37.523 104.071z" fill="#ffb25a"/><path d="m125.029 220.148c.743 1.384.967 2.985.801 4.548-.779 7.34-7.156 40.172-59.242 80.208-1.404 1.079-3.06 1.601-4.703 1.601-2.318 0-4.609-1.038-6.132-3.018-2.585-3.361-1.727-8.414 1.632-11.002 51.083-39.346 53.089-69.383 53.104-69.682 0 0 .305-5.714 6.158-6.503 4.228-.571 7.033 1.335 8.382 3.848z" fill="#ffb25a"/><path d="m436.107 87.7c-2.875-1.195-5.059-3.565-6.491-6.718-.638-1.402-2.4-1.854-3.678-1.009-.773.504-1.195 1.39-1.123 2.318.319 4.049-.402 8.654-2.288 13.188-4.554 10.942-14.156 17.34-21.451 14.3-5.749-2.401-8.345-9.953-6.944-18.401.237-1.39-.7-2.71-2.091-2.998-.701-.144-1.422.011-2.009.402-.103.071-.206.144-.309.236-1.092.969-2.246 1.917-3.452 2.844-1.329 1.03-2.72 2.029-4.172 2.987-16.258 10.757-33.804 12.889-39.193 4.75-5.378-8.14 3.452-23.449 19.72-34.206 2.761-1.823 5.553-3.39 8.314-4.709.495-.236.937-.598 1.205-1.072.556-.958.464-2.039-.072-2.843-.351-.525-.886-.927-1.545-1.092-8.325-2.019-14.26-7.357-14.218-13.59.062-7.892 9.706-14.228 21.554-14.135 4.925.041 9.437 1.174 13.033 3.06.824.423 1.813.381 2.576-.134 1.164-.773 1.494-2.338.752-3.472-.072-.103-.144-.206-.237-.299-2.339-2.555-3.668-5.502-3.647-8.613.175-23.203 28.436-21.472 53.235-11.643 6.182 2.452 12.157 5.409 17.422 8.604 3.03 1.833 5.069 4.924 5.574 8.428 4.411 30.559-3.718 74.975-30.465 63.817z" fill="#ffca8b"/><path d="m386.272 91.862c-1.329 1.03-2.72 2.029-4.172 2.987-16.258 10.757-33.804 12.889-39.193 4.75-5.378-8.14 3.452-23.449 19.72-34.206 2.761-1.823 5.553-3.39 8.314-4.709.495-.236.937-.598 1.205-1.072.556-.958.464-2.039-.072-2.843-.351-.525-.886-.927-1.545-1.092-8.325-2.019-14.26-7.357-14.218-13.59.062-7.892 9.706-14.228 21.554-14.135 4.925.041 9.437 1.174 13.033 3.06.824.423 1.813.381 2.576-.134 1.164-.773 1.494-2.338.752-3.472-.072-.103-.144-.206-.237-.299-2.339-2.555-3.668-5.502-3.647-8.613.175-23.203 28.436-21.472 53.235-11.643-13.466 5.843-64.414 31.641-57.305 85.011z" fill="#ffb25a"/><path d="m406.157 64.854c-2.304 0-4.583-1.025-6.105-2.984-2.62-3.369-2.013-8.222 1.355-10.842 6.301-4.901 61.41-47.037 93.154-47.037.674 0 1.333.019 1.986.057 4.26.254 7.509 3.911 7.256 8.172-.253 4.259-3.92 7.497-8.172 7.256-21.682-1.305-68.522 31.145-84.738 43.751-1.409 1.096-3.079 1.627-4.736 1.627z" fill="#ffb25a"/><path d="m173.34 486.692c-3.359 9.159-20.915 11.148-39.234 4.451-3.101-1.134-6.027-2.453-8.727-3.895-.484-.258-1.03-.391-1.576-.34-1.102.124-1.916.855-2.246 1.752-.216.598-.216 1.267.041 1.896 3.318 7.892 2.545 15.846-2.493 19.513-6.388 4.636-17.206.639-24.171-8.953-2.895-3.977-4.657-8.284-5.285-12.302-.144-.917-.763-1.679-1.628-1.998-1.319-.474-2.771.195-3.245 1.463-.041.124-.072.236-.093.37-.67 3.401-2.256 6.213-4.77 8.047-18.978 13.795-34.504-10.653-41.201-36.772-1.587-6.161-2.679-12.405-3.204-18.267-.319-3.524.948-6.996 3.472-9.489 21.956-21.699 62.519-41.532 69.432-13.394.742 3.018.134 6.192-1.545 9.221-.752 1.339-.072 3.029 1.37 3.554.865.31 1.834.134 2.534-.474 3.06-2.668 7.191-4.811 11.972-5.986 11.498-2.833 22.347 1.092 24.243 8.758 1.484 6.048-3.05 12.621-10.684 16.516-1.257.638-1.762 2.183-1.174 3.461.309.649.855 1.134 1.514 1.38.124.041.248.082.371.114 3.009.639 6.11 1.514 9.221 2.658 1.195.433 2.359.896 3.503 1.391 16.329 6.967 26.735 18.763 23.603 27.325z" fill="#fb695b"/><path d="m173.34 486.692c-3.359 9.159-20.915 11.148-39.234 4.451-3.101-1.134-6.027-2.453-8.727-3.895-.484-.258-1.03-.391-1.576-.34-1.102.124-1.916.855-2.246 1.752-.216.598-.216 1.267.041 1.896 3.318 7.892 2.545 15.846-2.493 19.513-6.388 4.636-17.206.639-24.171-8.953-2.895-3.977-4.657-8.284-5.285-12.302-.144-.917-.763-1.679-1.628-1.998-1.319-.474-2.771.195-3.245 1.463-.041.124-.072.236-.093.37-.67 3.401-2.256 6.213-4.77 8.047-18.978 13.795-34.504-10.653-41.201-36.772 14.744 6.45 76.098 30.405 111.025-.556 16.329 6.966 26.735 18.762 23.603 27.324z" fill="#f54432"/><path d="m101.612 468.766c-.692 0-1.395-.094-2.094-.29-7.848-2.204-77.167-22.298-94.301-48.643-2.327-3.577-1.313-8.363 2.265-10.69 3.575-2.328 8.363-1.314 10.69 2.265 11.859 18.233 65.758 36.637 85.526 42.19 4.108 1.154 6.504 5.42 5.35 9.529-.958 3.409-4.06 5.639-7.436 5.639z" fill="#f54432"/><path d="m201.024 73.048c0 3.72-2.164 7.377-6.089 8.881l-16.701 6.398c-7.15 2.741-8.253 12.395-1.916 16.691l13.744 9.304c2.72 1.844 4.09 4.719 4.152 7.614.082 3.307-1.545 6.636-4.822 8.48-1.453.814-2.628 1.988-3.462 3.369-.835 1.37-1.309 2.967-1.36 4.626l-.546 19.05c-.196 7.14-7.944 11.497-14.157 7.954l-16.557-9.438c-2.895-1.648-6.429-1.659-9.335-.02-1.494.844-3.08 1.225-4.626 1.225-4.801 0-9.221-3.709-9.479-9.025l-.804-16.577c-.371-7.645-9.2-11.715-15.258-7.027l-14.136 10.932c-5.574 4.316-13.723 1.257-15.094-5.657-.319-1.628-1.051-3.122-2.102-4.338-1.051-1.226-2.411-2.174-3.977-2.741l-17.927-6.459c-6.728-2.422-8.448-11.138-3.142-15.939l14.125-12.775c2.473-2.236 3.585-5.595 2.947-8.861l-.01-.03c-1.36-6.903 5.007-12.827 11.787-10.973l26.396 7.212 9.448 2.586c5.007 1.37 10.169-1.535 11.601-6.522l10.262-35.71c1.937-6.768 10.303-9.128 15.495-4.379l.021.021c2.463 2.246 5.914 3.04 9.098 2.092l18.267-5.43c6.851-2.039 13.404 3.956 11.983 10.963l-3.802 18.679c-.659 3.256.433 6.624 2.895 8.87 2.092 1.917 3.081 4.451 3.081 6.954z" fill="#fbf198"/><path d="m194.214 121.936c.082 3.307-1.545 6.636-4.822 8.48-1.453.814-2.628 1.988-3.462 3.369-.835 1.37-1.309 2.967-1.36 4.626l-.546 19.05c-.196 7.14-7.944 11.497-14.157 7.954l-16.557-9.438c-2.895-1.648-6.429-1.659-9.335-.02-1.494.844-3.08 1.225-4.626 1.225-4.801 0-9.221-3.709-9.479-9.025l-.804-16.577c-.371-7.645-9.2-11.715-15.258-7.027l-14.136 10.932c-5.574 4.316-13.723 1.257-15.094-5.657-.319-1.628-1.051-3.122-2.102-4.338-1.051-1.226-2.411-2.174-3.977-2.741l-17.927-6.459c-6.728-2.422-8.448-11.138-3.142-15.939l14.125-12.775c2.473-2.236 3.585-5.595 2.947-8.861l-.01-.03c-1.36-6.903 5.007-12.827 11.787-10.973l26.396 7.212c2.278 14.97 14.704 59.417 81.539 47.012z" fill="#fad989"/><path d="m143.002 106.508c-2.32 0-4.614-1.04-6.135-3.024-1.263-1.647-30.981-40.778-36.07-79.197-.559-4.23 2.416-8.115 6.647-8.675 4.229-.547 8.114 2.416 8.675 6.647 4.54 34.278 32.732 71.454 33.016 71.825 2.593 3.389 1.95 8.238-1.437 10.832-1.404 1.073-3.056 1.592-4.696 1.592z" fill="#fad989"/><g><g fill="#fff"><ellipse cx="282.638" cy="407.91" rx="30.244" ry="24.085"/><ellipse cx="446.571" cy="407.91" rx="30.244" ry="24.085"/></g><g><path d="m300.263 392.452c-4.268 0-7.727-3.459-7.727-7.727v-12.364c0-4.268 3.459-7.727 7.727-7.727s7.727 3.459 7.727 7.727v12.364c.001 4.268-3.458 7.727-7.727 7.727z" fill="#495560"/></g><g><path d="m428.945 392.452c-4.268 0-7.727-3.459-7.727-7.727v-12.364c0-4.268 3.459-7.727 7.727-7.727s7.727 3.459 7.727 7.727v12.364c0 4.268-3.459 7.727-7.727 7.727z" fill="#495560"/></g><g><path d="m364.605 399.812c-8.734 0-17.041-3.783-22.788-10.379-2.804-3.217-2.468-8.098.75-10.902 3.217-2.803 8.098-2.469 10.902.75 2.812 3.227 6.871 5.077 11.137 5.077s8.325-1.85 11.137-5.077c2.802-3.22 7.684-3.554 10.902-.75 3.218 2.803 3.554 7.685.75 10.902-5.749 6.596-14.056 10.379-22.79 10.379z" fill="#495560"/></g></g></g><g/><g/><g/><g/><g/><g/><g/><g/><g/><g/><g/><g/><g/><g/><g/></svg>