<svg id="Capa_1" enable-background="new 0 0 512 512" height="512" viewBox="0 0 512 512" width="512" xmlns="http://www.w3.org/2000/svg"><g><g fill="#d18f88"><path d="m46.688 385.081v98.165c0 10.927 8.858 19.784 19.784 19.784h31.206c10.927 0 19.784-8.858 19.784-19.784v-98.165z"/><path d="m465.312 385.081v98.165c0 10.927-8.858 19.784-19.784 19.784h-31.206c-10.927 0-19.784-8.858-19.784-19.784v-98.165z"/><path d="m63.241 177.398v-148.644c0-10.927 8.858-19.784 19.784-19.784h31.206c10.927 0 19.784 8.858 19.784 19.784v20.092c27.626-15.105 66.803-23.845 121.985-23.845s94.359 8.739 121.985 23.845v-20.092c0-10.927 8.858-19.784 19.784-19.784h31.206c10.927 0 19.784 8.858 19.784 19.784v148.644c-14.686 3.216-170.787 41.843-170.787 41.843h-85.381z"/></g><path d="m155.164 97.597c0-22.283 4.815-43.44 13.459-62.491-13.174 3.68-24.646 8.294-34.607 13.741v-20.093c0-10.927-8.858-19.784-19.784-19.784h-31.207c-10.927 0-19.784 8.858-19.784 19.784v148.644l129.351 41.843h23.817c-37.161-27.592-61.245-71.803-61.245-121.644z" fill="#c9807c"/><path d="m208.03 129.427h-117.422c-26.493 0-47.97 21.477-47.97 47.97v94.644h213.362l21.973-52.801-21.973-41.842c0-26.494-21.477-47.971-47.97-47.971z" fill="#eae9fb"/><path d="m110.036 194.119c0-23.675 6.576-45.813 17.997-64.691h-37.425c-26.493 0-47.97 21.477-47.97 47.97v94.644h94.619c-17.035-21.382-27.221-48.461-27.221-77.923z" fill="#cfcffb"/><path d="m190.617 117.974c-12.697-2.681-22.057-11.858-24.748-24.867-.939-4.54-4.964-7.779-9.721-7.779h-.624c-4.658 0-8.536 3.348-9.497 7.906-2.677 12.703-11.857 22.067-24.87 24.759-4.54.939-7.779 4.964-7.779 9.702v.523c0 4.652 3.267 8.662 7.821 9.609 12.987 2.702 22.148 12.055 24.825 24.739.963 4.562 4.837 7.917 9.62 7.917h.623c4.636 0 8.661-3.239 9.6-7.778 2.691-13.009 12.051-22.188 24.748-24.868 4.562-.963 7.917-4.837 7.917-9.5v-.862c.003-4.664-3.353-8.538-7.915-9.501z" fill="#f0d693"/><path d="m303.97 129.427h117.422c26.493 0 47.97 21.477 47.97 47.97v94.644h-213.362v-94.644c0-26.493 21.477-47.97 47.97-47.97z" fill="#eae9fb"/><path d="m323.603 194.119c0-23.675 6.576-45.813 17.997-64.691h-37.63c-26.493 0-47.97 21.477-47.97 47.97v94.644h94.823c-17.035-21.382-27.22-48.461-27.22-77.923z" fill="#cfcffb"/><path d="m416.295 235.557h-320.59c-38.451 0-69.621 31.17-69.621 69.621v79.903h459.831v-79.903c.001-38.45-31.17-69.621-69.62-69.621z" fill="#fb8999"/><path d="m101.2 311.935c0-27.123 5.582-52.94 15.647-76.377h-21.142c-38.451 0-69.621 31.171-69.621 69.621v79.903h89.415c-9.21-22.573-14.299-47.264-14.299-73.147z" fill="#e55b70"/><path d="m394.538 385.081h70.774v69.259h-70.774z" fill="#c9807c"/><path d="m46.688 385.081h70.774v69.259h-70.774z" fill="#c9807c"/><path d="m485.916 346.728h-459.832c-14.406 0-26.084 11.678-26.084 26.084v24.538c0 14.406 11.678 26.084 26.084 26.084h459.831c14.406 0 26.084-11.678 26.084-26.084v-24.538c.001-14.406-11.677-26.084-26.083-26.084z" fill="#5877cb"/><path d="m428.328 336.817c-12.697-2.681-22.057-11.858-24.748-24.867-.939-4.54-4.964-7.779-9.721-7.779h-.624c-4.658 0-8.536 3.348-9.497 7.906-2.677 12.703-11.857 22.067-24.87 24.759-4.54.939-7.779 4.964-7.779 9.702v.523c0 4.652 3.267 8.662 7.821 9.609 12.987 2.702 22.148 12.055 24.825 24.739.963 4.562 4.837 7.917 9.62 7.917h.623c4.636 0 8.661-3.239 9.6-7.778 2.691-13.009 12.051-22.188 24.748-24.868 4.562-.963 7.917-4.837 7.917-9.5v-.862c.002-4.664-3.353-8.538-7.915-9.501z" fill="#f0d693"/><path d="m104.322 346.728h-78.238c-14.406 0-26.084 11.678-26.084 26.084v24.538c0 14.406 11.678 26.084 26.084 26.084h110.406c-15.867-22.508-27.062-48.546-32.168-76.706z" fill="#385abe"/><path d="m151.101 119.442c0-11.949 4.863-22.761 12.715-30.57-1.827-2.185-4.591-3.544-7.667-3.544h-.624c-4.658 0-8.536 3.348-9.497 7.906-2.677 12.703-11.857 22.067-24.87 24.759-4.54.939-7.779 4.964-7.779 9.702v.523c0 4.652 3.267 8.661 7.821 9.609 12.987 2.703 22.148 12.056 24.825 24.739.963 4.562 4.837 7.918 9.62 7.918h.623c4.636 0 8.661-3.239 9.6-7.779.628-3.034 1.631-5.849 2.942-8.432-10.731-7.844-17.709-20.52-17.709-34.831z" fill="#fbc972"/><path d="m388.812 338.285c0-11.949 4.863-22.761 12.715-30.57-1.827-2.185-4.591-3.544-7.667-3.544h-.624c-4.658 0-8.536 3.348-9.497 7.906-2.677 12.703-11.857 22.067-24.87 24.759-4.54.939-7.779 4.964-7.779 9.702v.523c0 4.652 3.267 8.661 7.821 9.609 12.987 2.703 22.148 12.056 24.825 24.739.963 4.562 4.837 7.917 9.62 7.917h.623c4.636 0 8.661-3.239 9.6-7.779.628-3.034 1.631-5.849 2.942-8.432-10.732-7.843-17.709-20.519-17.709-34.83z" fill="#fbc972"/></g></svg>