<svg id="Capa_1" enable-background="new 0 0 497 497" height="512" viewBox="0 0 497 497" width="512" xmlns="http://www.w3.org/2000/svg"><g><path d="m49.634 370.849v48.737c0 16.304 13.217 29.521 29.521 29.521h35.178c16.304 0 29.521-13.217 29.521-29.521v-48.737z" fill="#6a647f"/><path d="m79.634 419.586v-48.737h-30v48.737c0 16.304 13.217 29.521 29.521 29.521h30c-16.304 0-29.521-13.217-29.521-29.521z" fill="#4f4c5f"/><path d="m447.366 370.849v48.737c0 16.304-13.217 29.521-29.521 29.521h-35.178c-16.304 0-29.521-13.217-29.521-29.521v-48.737z" fill="#6a647f"/><path d="m383.147 419.586v-48.737h-30v48.737c0 16.304 13.217 29.521 29.521 29.521h30c-16.304 0-29.521-13.217-29.521-29.521z" fill="#4f4c5f"/><path d="m447.366 47.893h-397.732c-27.412 0-49.634 22.222-49.634 49.634v248.739c0 27.412 22.222 49.634 49.634 49.634h397.733c27.412 0 49.634-22.222 49.634-49.634v-248.739c-.001-27.412-22.223-49.634-49.635-49.634z" fill="#c7c5cb"/><path d="m30 346.266v-248.74c0-27.412 22.222-49.633 49.634-49.633h-30c-27.412 0-49.634 22.222-49.634 49.633v248.739c0 27.412 22.222 49.634 49.634 49.634h30c-27.412 0-49.634-22.221-49.634-49.633z" fill="#b2b0bc"/><path d="m69.578 102.893c-8.051 0-14.578 6.527-14.578 14.578v208.851c0 8.051 6.527 14.578 14.578 14.578h258.422v-238.007z" fill="#b0ebce"/><path d="m85 326.321v-208.85c0-8.051 6.527-14.578 14.578-14.578h-30c-8.051 0-14.578 6.527-14.578 14.578v208.851c0 8.051 6.527 14.578 14.578 14.578h30c-8.051-.001-14.578-6.527-14.578-14.579z" fill="#60d9a7"/><path d="m328 84.739c-13.042 0-23.615 10.573-23.615 23.615v227.083c0 13.042 10.573 23.615 23.615 23.615s23.615-10.573 23.615-23.615v-227.082c0-13.043-10.573-23.616-23.615-23.616z" fill="#6a647f"/><g><g><path d="m105.085 235.815c-4.143 0-7.5-3.358-7.5-7.5v-14.336c0-4.142 3.357-7.5 7.5-7.5s7.5 3.358 7.5 7.5v14.336c0 4.142-3.357 7.5-7.5 7.5z" fill="#423e4f"/></g><g><path d="m254.299 235.815c-4.143 0-7.5-3.358-7.5-7.5v-14.336c0-4.142 3.357-7.5 7.5-7.5s7.5 3.358 7.5 7.5v14.336c0 4.142-3.357 7.5-7.5 7.5z" fill="#423e4f"/></g><g><path d="m179.692 244.349c-9.706 0-18.937-4.204-25.323-11.534-2.722-3.123-2.396-7.86.728-10.582 3.122-2.72 7.86-2.396 10.581.727 3.538 4.06 8.646 6.388 14.015 6.388s10.478-2.328 14.016-6.388c2.72-3.123 7.459-3.448 10.581-.727 3.123 2.721 3.449 7.459.728 10.582-6.389 7.33-15.619 11.534-25.326 11.534z" fill="#423e4f"/></g></g><circle cx="424.308" cy="118.831" fill="#ececec" r="34.092"/><circle cx="424.308" cy="220.432" fill="#ececec" r="34.092"/><g><path d="m455.264 305.003h-61.912c-4.143 0-7.5-3.358-7.5-7.5s3.357-7.5 7.5-7.5h61.912c4.143 0 7.5 3.358 7.5 7.5s-3.357 7.5-7.5 7.5z" fill="#6a647f"/></g><g><path d="m455.264 337.553h-61.912c-4.143 0-7.5-3.358-7.5-7.5s3.357-7.5 7.5-7.5h61.912c4.143 0 7.5 3.358 7.5 7.5s-3.357 7.5-7.5 7.5z" fill="#6a647f"/></g></g></svg>