<svg id="Capa_1" enable-background="new 0 0 512 512" height="512" viewBox="0 0 512 512" width="512" xmlns="http://www.w3.org/2000/svg"><g><path d="m62.561 387.287h386.879v82.247h-386.879z" fill="#d4d2ff"/><path d="m468.944 142.38h-425.888l-15-28.983v-82.492c0-17.068 13.836-30.905 30.905-30.905h394.078c17.069 0 30.905 13.837 30.905 30.905v82.491z" fill="#5c576e"/><path d="m28.056 30.905v82.491l15 28.983h81.599c7.626-58.925 23.373-108.001 36.74-142.379h-102.434c-17.069 0-30.905 13.837-30.905 30.905z" fill="#4f4c5e"/><path d="m453.039 410.304h-394.078c-17.069 0-30.905-13.837-30.905-30.905v-266.002h227.944 227.944v266.002c0 17.068-13.836 30.905-30.905 30.905z" fill="#f4eb59"/><path d="m129.165 113.397h-101.109v266.002c0 17.068 13.837 30.905 30.905 30.905h99.75c-11.072-27.147-21.105-58.154-28.177-92.823-15.512-76.04-11.929-145.926-1.369-204.084z" fill="#fdcf5e"/><path d="m79.565 348.493v-173.286c0-5.69 4.612-10.302 10.302-10.302h332.267c5.69 0 10.302 4.612 10.302 10.302v173.286c0 5.69-4.612 10.302-10.302 10.302h-332.267c-5.69 0-10.302-4.613-10.302-10.302z" fill="#94deff"/><path d="m89.867 164.905c-5.69 0-10.302 4.612-10.302 10.302v173.286c0 5.69 4.612 10.302 10.302 10.302h50.89c-3.825-13.132-7.283-26.902-10.223-41.314-11.167-54.741-12.437-106.292-8.333-152.575h-32.334z" fill="#61ceff"/><g><g><ellipse cx="174.043" cy="269.136" fill="#fff" rx="30.241" ry="24.082"/><ellipse cx="337.958" cy="269.136" fill="#fff" rx="30.241" ry="24.082"/><path d="m256 243.549c-11.997 0-22.681-8.062-29.401 1.88-6.816 10.085 8.45 25.723 29.401 25.723s36.217-15.638 29.401-25.723c-6.72-9.942-17.404-1.88-29.401-1.88z" fill="#5c576e"/></g><g><path d="m191.667 252.015c-7.349 0-14.337-3.182-19.172-8.73-2.803-3.217-2.468-8.098.749-10.901s8.097-2.468 10.901.748c1.9 2.18 4.641 3.431 7.522 3.431s5.622-1.251 7.521-3.43c2.804-3.218 7.685-3.552 10.901-.749 3.217 2.803 3.553 7.683.75 10.9-4.834 5.549-11.822 8.731-19.172 8.731z" fill="#5c576e"/></g><g><path d="m320.334 252.015c-7.349 0-14.337-3.182-19.172-8.73-2.804-3.217-2.468-8.098.749-10.901 3.216-2.803 8.098-2.468 10.901.748 1.899 2.18 4.642 3.431 7.522 3.431s5.622-1.249 7.52-3.43c2.804-3.219 7.682-3.554 10.901-.751 3.217 2.803 3.553 7.683.75 10.901-4.833 5.55-11.821 8.732-19.171 8.732z" fill="#5c576e"/></g></g><path d="m463.341 512h-414.682c-11.379 0-20.604-9.225-20.604-20.604v-23.909c0-11.379 9.225-20.604 20.604-20.604h414.682c11.379 0 20.604 9.225 20.604 20.604v23.909c-.001 11.379-9.225 20.604-20.604 20.604z" fill="#5c576e"/><path d="m110.47 491.396v-23.909c0-11.379 9.225-20.604 20.604-20.604h-82.415c-11.379 0-20.604 9.225-20.604 20.604v23.909c0 11.379 9.225 20.604 20.604 20.604h82.414c-11.378 0-20.603-9.224-20.603-20.604z" fill="#4f4c5e"/><path d="m326.19 75.853h-140.38c-3.983 0-7.211-3.229-7.211-7.211v-23.887c0-3.983 3.229-7.211 7.211-7.211h140.38c3.983 0 7.211 3.229 7.211 7.211v23.887c0 3.983-3.228 7.211-7.211 7.211z" fill="#94deff"/><path d="m268.225 37.544h-82.415c-3.983 0-7.211 3.229-7.211 7.211v23.887c0 3.983 3.229 7.211 7.211 7.211h82.414c-1.281-1.091-8.267-7.257-8.89-17.639-.729-12.152 7.877-19.8 8.891-20.67z" fill="#61ceff"/><path d="m418.431 75.853h-23.776c-10.579 0-19.155-8.576-19.155-19.155 0-10.579 8.576-19.155 19.155-19.155h23.776c10.579 0 19.155 8.576 19.155 19.155 0 10.579-8.576 19.155-19.155 19.155z" fill="#f4eb59"/><path d="m416.707 56.698c0-7.437 4.247-13.869 10.44-17.043-2.616-1.341-5.573-2.112-8.716-2.112h-23.776c-10.579 0-19.155 8.576-19.155 19.155 0 10.579 8.576 19.155 19.155 19.155h23.776c3.142 0 6.099-.771 8.716-2.112-6.193-3.174-10.44-9.606-10.44-17.043z" fill="#fdcf5e"/><path d="m117.345 75.853h-23.776c-10.579 0-19.155-8.576-19.155-19.155 0-10.579 8.576-19.155 19.155-19.155h23.776c10.579 0 19.155 8.576 19.155 19.155 0 10.579-8.576 19.155-19.155 19.155z" fill="#f4eb59"/><path d="m115.621 56.698c0-7.437 4.247-13.869 10.44-17.043-2.616-1.341-5.573-2.112-8.715-2.112h-23.777c-10.579 0-19.155 8.576-19.155 19.155 0 10.579 8.576 19.155 19.155 19.155h23.776c3.142 0 6.099-.771 8.715-2.112-6.192-3.174-10.439-9.606-10.439-17.043z" fill="#fdcf5e"/></g></svg>