<svg id="Capa_1" enable-background="new 0 0 512 512" height="512" viewBox="0 0 512 512" width="512" xmlns="http://www.w3.org/2000/svg"><g><path d="m279.275 57.965v337.673h-46.549v-337.673c0-17.711 4.121-35.185 12.044-51.031 1.072-2.122 2.689-3.854 4.636-5.059 1.947-1.206 4.224-1.875 6.594-1.875s4.647.669 6.594 1.874 3.565 2.937 4.636 5.059c3.956 7.924 6.975 16.259 8.995 24.82 2.019 8.563 3.05 17.362 3.05 26.212z" fill="#97aabb"/><path d="m232.725 333.582h46.549v62.056h-46.549z" fill="#7a8fa5"/><path d="m442.187 473.21h-372.374l24.14-67.578c8.789-24.605 32.094-41.027 58.212-41.027h207.669c26.118 0 49.424 16.423 58.212 41.027z" fill="#fcf5af"/><path d="m188.134 473.21h-118.321l24.14-67.578c8.789-24.605 32.094-41.027 58.212-41.027h54.163c-14.578 17.916-37.142 56.512-18.194 108.605z" fill="#f8ea69"/><path d="m473.209 488.726c0 6.429-2.607 12.25-6.81 16.465-4.214 4.204-10.025 6.81-16.454 6.81h-387.89c-12.848 0-23.264-10.416-23.264-23.274 0-6.429 2.607-12.24 6.81-16.454 4.214-4.214 10.025-6.821 16.454-6.821h387.89c12.848-.001 23.264 10.426 23.264 23.274z" fill="#f8ea69"/><path d="m208.956 512h-146.901c-12.848 0-23.264-10.416-23.264-23.274 0-6.429 2.607-12.24 6.81-16.454 4.214-4.214 10.025-6.821 16.454-6.821h123.523c4.245 14.444 11.653 30.013 23.378 46.549z" fill="#eedb00"/><g><g><path d="m206.795 417.546c-4.268 0-7.727-3.459-7.727-7.727 0-3.559-2.896-6.454-6.454-6.454-3.559 0-6.455 2.896-6.455 6.454 0 4.268-3.459 7.727-7.727 7.727s-7.727-3.459-7.727-7.727c0-12.081 9.828-21.909 21.909-21.909s21.909 9.828 21.909 21.909c-.001 4.268-3.46 7.727-7.728 7.727z" fill="#495560"/></g><g><path d="m333.569 417.546c-4.268 0-7.727-3.459-7.727-7.727 0-3.559-2.896-6.454-6.454-6.454s-6.454 2.896-6.454 6.454c0 4.268-3.459 7.727-7.727 7.727s-7.727-3.459-7.727-7.727c0-12.081 9.828-21.909 21.909-21.909s21.909 9.828 21.909 21.909c-.002 4.268-3.461 7.727-7.729 7.727z" fill="#495560"/></g><g><path d="m256 440.976c-7.999 0-15.606-3.464-20.87-9.504-2.804-3.218-2.468-8.099.749-10.903 3.217-2.803 8.098-2.468 10.903.749 2.328 2.671 5.688 4.204 9.218 4.204s6.89-1.532 9.218-4.204c2.804-3.218 7.686-3.553 10.903-.749s3.553 7.685.749 10.903c-5.264 6.04-12.871 9.504-20.87 9.504z" fill="#495560"/></g></g></g></svg>