<svg id="Capa_1" enable-background="new 0 0 512 512" height="512" viewBox="0 0 512 512" width="512" xmlns="http://www.w3.org/2000/svg"><g><g><path d="m80.298 172.351c3.494 1.915 6.811 4.168 9.919 6.76 6.497 5.417 12.258 12.612 16.504 20.534l-35.263 26.455c.977-4.746-7.054-12.73-8.677-14.082-6.893-5.743-17.965-6.366-29.624-1.659-10.971 4.428-23.454-.874-27.883-11.846-4.429-10.971.875-23.455 11.846-27.883 22.255-8.986 45.062-8.209 63.178 1.721z" fill="#de5c6e"/><path d="m193.95 215.469v-201.645c0-7.635 6.19-13.824 13.824-13.824 7.635 0 13.824 6.189 13.824 13.824v201.645z" fill="#928ea2"/><path d="m193.951 157.76v57.709h27.647v-52.839z" fill="#827f97"/><path d="m288.413 367.325-14.746 83.702c-4.978 28.257 13.893 55.199 42.149 60.177 28.257 4.978 55.199-13.893 60.177-42.149l16.722-94.916z" fill="#e26e7e"/><path d="m288.413 367.325-14.746 83.702c-.135.765-.251 1.528-.351 2.29 21.159 1.324 35.291-4.536 45.142-8.626 7.034-2.921 7.609-3.16 12.642-2.272 5.035.887 5.493 1.307 11.105 6.456 6.543 6.003 16.432 15.074 32.639 21.233.29.11.599.211.89.315.092-.454.179-.909.26-1.368l16.722-94.916z" fill="#de5c6e"/><path d="m34.875 324.298-14.466 82.112c-4.978 28.257 13.893 55.199 42.149 60.177 28.257 4.978 55.199-13.893 60.177-42.149l14.746-83.702z" fill="#e26e7e"/><path d="m34.875 324.298-14.466 82.112c-.018.104-.036.208-.054.312 15.078-.945 26.21-5.552 33.614-8.626 7.031-2.92 7.605-3.16 12.639-2.272 5.031.886 5.374 1.201 11.099 6.454 8.482 7.782 20.941 19.201 44.476 24.867.206-.893.392-1.795.552-2.707l14.746-83.702z" fill="#de5c6e"/><path d="m398.72 339.732 1.534 85.138c.105 5.845-5.74 9.921-11.205 7.845-21.323-8.102-22.337-24.637-51.008-29.689-33.063-5.825-36.78 15.272-69.844 9.447-33.062-5.825-29.345-26.922-62.407-32.746-33.061-5.824-36.778 15.272-69.839 9.448-33.059-5.824-29.343-26.921-62.402-32.745-27.863-4.909-34.883 9.304-56.192 10.408-6.398.332-10.707-6.466-7.69-12.118l40.702-76.255s86.802-48.527 187.273-17.087 161.078 78.354 161.078 78.354z" fill="#f9f29d"/><path d="m398.72 339.732s-60.607-46.914-161.078-78.354-187.274 17.087-187.274 17.087l-28.234 52.896c2.646.451 5.341.704 8.069.703.864 0 1.734-.023 2.603-.07 15.455-.836 26.819-5.555 34.339-8.678 7.032-2.92 7.604-3.158 12.639-2.271 5.031.886 5.374 1.201 11.099 6.453 9.268 8.503 23.274 21.354 51.302 26.292s45.583-2.352 57.2-7.176c7.032-2.92 7.607-3.158 12.64-2.272 5.033.887 5.491 1.307 11.103 6.455 9.269 8.503 23.275 21.354 51.304 26.292 28.031 4.938 45.583-2.352 57.201-7.175 7.035-2.921 7.609-3.16 12.642-2.272 5.035.887 5.493 1.307 11.105 6.456 6.557 6.016 16.467 15.106 32.72 21.263 3.805 1.442 7.727 2.369 11.674 2.818z" fill="#f5ea72"/><path d="m411.929 236.089-58.407-18.639-71.958-3.639-163.451-28.796c-29.131-5.132-51.49 14.828-65.339 40.149-6.192 11.321-21.283 39.066-29.793 54.718-3.074 5.653 1.237 12.518 7.662 12.17 21.22-1.148 28.266-15.302 56.079-10.402 33.059 5.824 29.343 26.921 62.402 32.745 33.061 5.825 36.778-15.272 69.839-9.448 33.062 5.825 29.345 26.922 62.407 32.746 33.063 5.825 36.78-15.272 69.844-9.447 28.693 5.055 29.687 21.612 51.057 29.707 5.453 2.066 11.285-1.978 11.206-7.808z" fill="#e26e7e"/><path d="m411.929 236.089-58.407-18.639-71.958-3.639-64.077-11.289c-.126 4.186.273 8.413 1.263 12.579 3.649 15.351 14.598 27.977 29.291 33.776 1.5.592 2.521 1.392 6.828 5.344 9.268 8.507 23.273 21.363 51.308 26.302 28.031 4.938 45.584-2.352 57.201-7.175 7.034-2.921 7.608-3.159 12.644-2.272 5.034.887 5.492 1.307 11.104 6.456 5.483 5.03 13.479 12.349 25.614 18.203z" fill="#de5c6e"/><path d="m479.106 72.665-100.447-30.454 2.916-16.554c2.016-11.444-5.166-22.758-16.53-25.179-11.931-2.542-23.492 5.326-25.59 17.237l-2.109 11.971-6.31 35.814-11.591 65.794-59.918 67.202c-3.835 4.301-2.16 11.059 3.2 13.175 20.734 8.184 21.995 24.457 50.39 29.459 33.063 5.825 36.78-15.272 69.844-9.447 28.045 4.941 29.628 20.869 49.639 29.145 5.823 2.408 12.107-2.264 11.397-8.525l-11.671-103.001 33.372 2.051c20.413 1.255 38.512-13.041 42.011-33.202 3.489-20.11-9.07-39.564-28.603-45.486z" fill="#f9f29d"/></g><g><ellipse cx="376.632" cy="124.313" fill="#ffa1ac" rx="23.03" ry="28.919" transform="matrix(.218 -.976 .976 .218 173.209 464.79)"/><g><path d="m411.984 114.031c-.542 0-1.091-.059-1.642-.182-4.042-.903-6.587-4.912-5.685-8.955.365-1.633.072-3.31-.825-4.723s-2.291-2.392-3.923-2.756c-3.371-.755-6.727 1.376-7.48 4.748-.902 4.042-4.911 6.591-8.954 5.686-4.043-.903-6.588-4.912-5.686-8.954 1.238-5.544 4.561-10.273 9.356-13.318 4.795-3.044 10.489-4.039 16.032-2.801 5.544 1.238 10.274 4.562 13.318 9.357s4.039 10.489 2.801 16.033c-.779 3.49-3.877 5.865-7.312 5.865z" fill="#495560"/></g></g></g></svg>