<svg id="Capa_1" enable-background="new 0 0 512 512" height="512" viewBox="0 0 512 512" width="512" xmlns="http://www.w3.org/2000/svg"><g><path d="m512 248.24c0 124.245-100.723 224.968-224.968 224.968-26.726 0-52.35-4.657-76.13-13.219l-148.59-222.453c5.594-119.269 104.061-214.263 224.72-214.263 124.245 0 224.968 100.722 224.968 224.967z" fill="#aab3e5"/><path d="m308.102 347.748c-11.22 12.93-25.181 22.698-41.491 29.024-20.215 7.851-33.804 23.429-38.266 43.871-3.163 14.497-9.015 27.695-17.443 39.348-86.782-31.189-148.838-114.222-148.838-211.751 0-3.585.082-7.161.247-10.705 5.924-7.181 10.066-15.743 12.168-25.397 3.822-17.495 11.55-33.093 22.976-46.364 18.71-21.709 45.828-34.824 76.377-36.916 37.709-2.596 77.108 11.591 108.11 38.915 12.807 11.292 23.553 24.233 31.991 38.533l.309.247 3.009 5.667c25.006 47.127 21.41 100.322-9.149 135.528z" fill="#96a3e0"/><path d="m449.944 248.24c0 89.977-72.946 162.912-162.912 162.912-18.092 0-35.504-2.947-51.763-8.397l-58.934-274.041c29.055-26.932 67.959-43.386 110.696-43.386 89.968 0 162.913 72.936 162.913 162.912z" fill="#d4d4ff"/><path d="m308.102 347.748c-11.22 12.93-25.181 22.698-41.491 29.024-13.806 5.358-24.521 14.321-31.342 25.984-64.6-21.626-111.15-82.631-111.15-154.515 0-47.24 20.101-89.781 52.216-119.526 36.937-1.824 75.285 12.333 105.607 39.059 12.807 11.292 23.553 24.233 31.991 38.533l.309.247 3.009 5.667c25.006 47.126 21.41 100.321-9.149 135.527z" fill="#aab3e5"/><path d="m372.692 255.216c-4.533 6.295-10.375 11.004-16.856 14.074-7.665 3.616-12.25 11.756-11.57 20.205 1.494 18.587-6.47 37.472-22.708 49.177-3.513 2.535-7.222 4.595-11.055 6.192l-58.82-198.221c9.376-3.74 19.895-4.925 30.538-2.843 17.618 3.441 31.558 15.022 38.709 30.064 3.287 6.924 10.241 11.498 17.886 11.797 9.891.402 19.751 4.132 27.767 11.406 16.422 14.886 19.07 40.18 6.109 58.149z" fill="#efedfe"/><path d="m310.503 344.863c-23.11 9.644-50.64 2.524-65.909-18.659-17.742-24.604-31.631-111.521-26.18-139.442 3.678-18.844 16.67-33.495 33.269-40.12 10.674 5.76 20.853 12.838 30.26 21.132 12.807 11.292 23.553 24.233 31.991 38.533l.309.247 3.009 5.667c24.335 45.859 21.584 97.457-6.749 132.642z" fill="#e6e5f9"/><path d="m284.683 327.42c-8.057 9.283-18.082 16.093-29.292 20.441-29.57 11.478-50.578 35.154-57.347 66.166-1.205 5.543-2.988 10.89-5.368 15.99-169.454-75.624-36.081-266.767-36.081-266.767 32.434-9.675 73.028-.247 104.844 27.788 11.972 10.561 21.554 22.852 28.416 35.721h.01c18.371 34.639 17.691 74.316-5.182 100.661z" fill="#fce3a0"/><path d="m192.676 430.018c-2.782 5.976-6.378 11.601-10.808 16.742-15.238 17.68-37.565 26.448-61.674 26.448-12.075 0-24.593-2.195-36.895-6.574-14.661-5.213-29.003-13.517-41.913-24.892-44.241-39.008-54.658-100.187-23.244-136.382 8.057-9.283 18.082-16.093 29.292-20.441 29.57-11.478 50.578-35.144 57.347-66.166 2.617-12.024 7.964-23.203 16.176-32.733 9.53-11.076 21.853-18.649 35.638-22.77-23.646 68.949-38.008 173.278 36.081 266.768z" fill="#f9d171"/><path d="m126.07 363.901c10.236 8.818 9.558 26.387-1.516 39.242-11.074 12.854-28.349 16.126-38.585 7.308-10.236-8.819-9.558-26.388 1.516-39.242 11.074-12.855 28.349-16.126 38.585-7.308z" fill="#ffa1ac"/><ellipse cx="214.7" cy="261.02" fill="#ffa1ac" rx="30.72" ry="24.464" transform="matrix(.653 -.758 .758 .653 -123.188 253.321)"/><path d="m168.386 281.496c-3.234-2.786-8.112-2.422-10.898.811s-2.422 8.112.811 10.898c1.45 1.25 2.327 2.989 2.469 4.898s-.467 3.759-1.718 5.209c-1.249 1.45-2.988 2.327-4.897 2.469-1.903.141-3.759-.467-5.209-1.717-3.234-2.785-8.112-2.422-10.898.81-2.786 3.233-2.423 8.113.811 10.898 2.994 2.579 3.331 7.114.753 10.107-2.579 2.994-7.112 3.332-10.107.753-3.234-2.786-8.113-2.422-10.898.811s-2.422 8.113.811 10.898c4.264 3.674 9.518 5.473 14.748 5.473 6.36 0 12.687-2.661 17.154-7.846 3.722-4.32 5.497-9.656 5.449-14.955 5.444-.758 10.373-3.411 13.992-7.613 3.944-4.578 5.869-10.417 5.421-16.443s-3.216-11.517-7.794-15.461z" fill="#334151"/><path d="m107.606 333.398c-9.153-7.886-23.014-6.853-30.899 2.299-7.885 9.153-6.854 23.014 2.3 30.899 1.459 1.257 3.254 1.873 5.04 1.873 2.171 0 4.33-.91 5.858-2.684 2.785-3.233 2.422-8.112-.811-10.898-2.696-2.323-3-6.407-.678-9.104 2.323-2.697 6.406-3 9.104-.678 3.234 2.786 8.113 2.422 10.898-.811 2.784-3.231 2.421-8.11-.812-10.896z" fill="#334151"/><path d="m190.349 237.35c-9.154-7.886-23.014-6.854-30.899 2.299-7.885 9.152-6.854 23.015 2.299 30.899 1.46 1.257 3.254 1.873 5.04 1.873 2.171 0 4.33-.91 5.858-2.684 2.786-3.233 2.422-8.112-.811-10.898-2.697-2.323-3-6.407-.678-9.104 2.323-2.696 6.406-3.001 9.104-.677 3.234 2.786 8.113 2.422 10.898-.811 2.786-3.233 2.423-8.111-.811-10.897z" fill="#334151"/><path d="m418.91 368.484c0 19.28-15.629 34.909-34.911 34.909-19.279 0-34.907-15.63-34.907-34.909s15.629-34.909 34.907-34.909c19.282 0 34.911 15.63 34.911 34.909z" fill="#efedfe"/><path d="m457.698 275.393c0 14.995-12.156 27.152-27.153 27.152-14.994 0-27.15-12.156-27.15-27.152 0-14.995 12.156-27.152 27.15-27.152 14.998 0 27.153 12.156 27.153 27.152z" fill="#efedfe"/><circle cx="201.697" cy="325.817" fill="#f9d171" r="7.758"/><ellipse cx="240.485" cy="217.211" fill="#f9d171" rx="7.758" ry="7.758" transform="matrix(.707 -.707 .707 .707 -83.155 233.668)"/><circle cx="85.333" cy="434.424" fill="#f3c23b" r="7.758"/><circle cx="263.758" cy="248.241" fill="#f9d171" r="7.758"/><circle cx="62.06" cy="318.06" fill="#f3c23b" r="7.758"/><circle cx="155.151" cy="201.695" fill="#f9d171" r="7.758"/><circle cx="54.302" cy="403.393" fill="#f3c23b" r="7.758"/><path d="m162.909 356.848c0-4.284 3.473-7.758 7.758-7.758s7.758 3.473 7.758 7.758c0 4.284-3.473 7.758-7.758 7.758-4.285-.001-7.758-3.474-7.758-7.758z" fill="#f9d171"/><circle cx="232.728" cy="318.06" fill="#f9d171" r="7.758"/><circle cx="131.878" cy="248.241" fill="#f3c23b" r="7.758"/><circle cx="108.606" cy="302.544" fill="#f3c23b" r="7.758"/><circle cx="193.939" cy="201.695" fill="#f9d171" r="7.758"/><ellipse cx="263.758" cy="287.029" fill="#f9d171" rx="7.758" ry="7.758" transform="matrix(.936 -.352 .352 .936 -84.17 111.244)"/><circle cx="124.121" cy="434.424" fill="#f3c23b" r="7.758"/><ellipse cx="162.909" cy="395.636" fill="#f3c23b" rx="7.758" ry="7.758" transform="matrix(.16 -.987 .987 .16 -253.675 493.231)"/><ellipse cx="38.787" cy="356.848" fill="#f3c23b" rx="7.758" ry="7.758" transform="matrix(.707 -.707 .707 .707 -240.969 131.945)"/><g fill="#a4e7ff"><path d="m476.097 97.045c-4.968-7.523-5.509-17.03-1.371-25.04 3.166-6.127 3.761-12.078.55-14.961-3.217-2.888-9.055-1.651-14.79 2.139-7.521 4.97-17.028 5.491-25.038 1.356-6.118-3.158-12.063-3.758-14.947-.545-2.887 3.215-1.652 9.056 2.142 14.796 4.967 7.513 5.49 17.018 1.357 25.02-3.164 6.127-3.76 12.077-.55 14.959 3.217 2.888 9.055 1.652 14.79-2.139 7.521-4.97 17.029-5.491 25.039-1.356 6.118 3.159 12.062 3.758 14.947.545 2.892-3.219 1.653-9.049-2.129-14.774z"/><path d="m142.52 111.408c-4.969-7.523-5.509-17.03-1.371-25.04 3.166-6.127 3.761-12.078.55-14.961-3.217-2.888-9.055-1.651-14.79 2.139-7.521 4.97-17.028 5.491-25.038 1.356-6.118-3.158-12.063-3.758-14.947-.545-2.887 3.215-1.652 9.057 2.142 14.796 4.967 7.514 5.49 17.018 1.357 25.02-3.164 6.127-3.76 12.077-.549 14.959 3.217 2.888 9.055 1.652 14.79-2.139 7.521-4.97 17.028-5.491 25.038-1.356 6.118 3.159 12.062 3.758 14.947.545 2.891-3.219 1.652-9.048-2.129-14.774z"/><path d="m429.552 469.41c-4.969-7.523-5.509-17.03-1.371-25.039 3.166-6.127 3.761-12.078.55-14.961-3.217-2.888-9.055-1.651-14.79 2.139-7.521 4.97-17.028 5.491-25.038 1.356-6.118-3.158-12.063-3.758-14.947-.545-2.886 3.215-1.652 9.057 2.142 14.796 4.967 7.514 5.49 17.018 1.357 25.02-3.164 6.126-3.76 12.077-.55 14.959 3.217 2.888 9.055 1.651 14.79-2.139 7.52-4.97 17.028-5.491 25.038-1.356 6.118 3.159 12.062 3.758 14.947.545 2.892-3.22 1.653-9.049-2.128-14.775z"/><path d="m298.823 95.893c-4.969-7.523-5.509-17.03-1.371-25.039 3.166-6.127 3.761-12.078.55-14.961-3.217-2.888-9.055-1.651-14.79 2.139-7.521 4.97-17.028 5.491-25.038 1.356-6.118-3.158-12.063-3.758-14.947-.545-2.887 3.215-1.652 9.057 2.142 14.796 4.967 7.513 5.49 17.018 1.357 25.02-3.164 6.127-3.76 12.077-.55 14.959 3.217 2.888 9.055 1.651 14.79-2.139 7.521-4.97 17.028-5.491 25.038-1.356 6.118 3.159 12.062 3.758 14.947.545 2.892-3.22 1.653-9.05-2.128-14.775z"/></g></g></svg>