<?xml version="1.0" encoding="UTF-8" standalone="no"?>
<!-- Created with Inkscape (http://www.inkscape.org/) -->

<svg
   version="1.1"
   id="svg4425"
   width="682.66669"
   height="682.66669"
   viewBox="0 0 682.66669 682.66669"
   xmlns="http://www.w3.org/2000/svg"
   xmlns:svg="http://www.w3.org/2000/svg">
  <defs
     id="defs4429">
    <clipPath
       clipPathUnits="userSpaceOnUse"
       id="clipPath4439">
      <path
         d="M 0,512 H 512 V 0 H 0 Z"
         id="path4437" />
    </clipPath>
  </defs>
  <g
     id="g4431"
     transform="matrix(1.3333333,0,0,-1.3333333,0,682.66667)">
    <g
       id="g4433">
      <g
         id="g4435"
         clip-path="url(#clipPath4439)">
        <g
           id="g4441"
           transform="translate(204.491,460.491)">
          <path
             d="m 0,0 v -408.982 c 0,-28.448 23.061,-51.509 51.509,-51.509 v 0 c 28.448,0 51.509,23.061 51.509,51.509 V 0 c 0,28.448 -23.061,51.509 -51.509,51.509 v 0 C 23.061,51.509 0,28.448 0,0"
             style="fill:#ce926a;fill-opacity:1;fill-rule:nonzero;stroke:none"
             id="path4443" />
        </g>
        <g
           id="g4445"
           transform="translate(252.2777,51.5091)">
          <path
             d="m 0,0 v 408.982 c 0,19.821 11.203,37.017 27.616,45.63 -7.143,3.748 -15.267,5.879 -23.894,5.879 -28.447,0 -51.509,-23.061 -51.509,-51.509 V 0 c 0,-28.448 23.062,-51.509 51.509,-51.509 8.627,0 16.751,2.131 23.894,5.879 C 11.203,-37.017 0,-19.822 0,0"
             style="fill:#af7954;fill-opacity:1;fill-rule:nonzero;stroke:none"
             id="path4447" />
        </g>
        <g
           id="g4449"
           transform="translate(460.491,103.0181)">
          <path
             d="m 0,0 h -408.982 c -28.448,0 -51.509,-23.061 -51.509,-51.509 v 0 c 0,-28.448 23.061,-51.509 51.509,-51.509 H 0 c 28.448,0 51.509,23.061 51.509,51.509 v 0 C 51.509,-23.061 28.448,0 0,0"
             style="fill:#e2a77f;fill-opacity:1;fill-rule:nonzero;stroke:none"
             id="path4451" />
        </g>
        <g
           id="g4453"
           transform="translate(41.2072,51.5091)">
          <path
             d="M 0,0 V 0 C 0,-28.448 23.061,-51.509 51.509,-51.509 H 10.302 c -28.448,0 -51.509,23.061 -51.509,51.509 0,28.448 23.061,51.509 51.509,51.509 H 51.509 C 23.061,51.509 0,28.448 0,0"
             style="fill:#ce926a;fill-opacity:1;fill-rule:nonzero;stroke:none"
             id="path4455" />
        </g>
        <g
           id="g4457"
           transform="translate(434.7365,206.0362)">
          <path
             d="m 0,0 h -357.473 c -28.448,0 -51.509,-23.061 -51.509,-51.509 v 0 c 0,-28.448 23.061,-51.509 51.509,-51.509 H 0 c 28.448,0 51.509,23.061 51.509,51.509 v 0 C 51.509,-23.061 28.448,0 0,0"
             style="fill:#92dd79;fill-opacity:1;fill-rule:nonzero;stroke:none"
             id="path4459" />
        </g>
        <g
           id="g4461"
           transform="translate(256,133.5976)">
          <path
             d="m 0,0 v 0 c -9.785,0 -17.718,7.932 -17.718,17.718 v 10.225 c 0,1.692 1.371,3.063 3.063,3.063 h 29.31 c 1.691,0 3.063,-1.371 3.063,-3.063 V 17.718 C 17.718,7.932 9.785,0 0,0"
             style="fill:#2d2d30;fill-opacity:1;fill-rule:nonzero;stroke:none"
             id="path4463" />
        </g>
        <g
           id="g4465"
           transform="translate(66.9618,154.5272)">
          <path
             d="M 0,0 V 0 C 0,-28.448 23.061,-51.509 51.509,-51.509 H 10.302 c -28.448,0 -51.509,23.061 -51.509,51.509 0,28.448 23.061,51.509 51.509,51.509 H 51.509 C 23.061,51.509 0,28.448 0,0"
             style="fill:#7ec66a;fill-opacity:1;fill-rule:nonzero;stroke:none"
             id="path4467" />
        </g>
        <g
           id="g4469"
           transform="translate(408.9819,309.0543)">
          <path
             d="m 0,0 h -305.964 c -28.447,0 -51.509,-23.061 -51.509,-51.509 v 0 c 0,-28.448 23.062,-51.509 51.509,-51.509 H 0 c 28.448,0 51.509,23.061 51.509,51.509 v 0 C 51.509,-23.061 28.448,0 0,0"
             style="fill:#4db5a6;fill-opacity:1;fill-rule:nonzero;stroke:none"
             id="path4471" />
        </g>
        <g
           id="g4473"
           transform="translate(274.4156,254.0012)">
          <path
             d="m 0,0 c 0,-10.171 -8.245,-18.416 -18.416,-18.416 -10.17,0 -18.415,8.245 -18.415,18.416 0,10.171 8.245,18.416 18.415,18.416 C -8.245,18.416 0,10.171 0,0"
             style="fill:#2d2d30;fill-opacity:1;fill-rule:nonzero;stroke:none"
             id="path4475" />
        </g>
        <g
           id="g4477"
           transform="translate(92.7163,257.5453)">
          <path
             d="M 0,0 V 0 C 0,-28.448 23.061,-51.509 51.509,-51.509 H 10.302 c -28.448,0 -51.509,23.061 -51.509,51.509 0,28.448 23.061,51.509 51.509,51.509 H 51.509 C 23.061,51.509 0,28.448 0,0"
             style="fill:#3da094;fill-opacity:1;fill-rule:nonzero;stroke:none"
             id="path4479" />
        </g>
        <g
           id="g4481"
           transform="translate(383.2274,412.0724)">
          <path
             d="m 0,0 h -254.455 c -28.447,0 -51.509,-23.061 -51.509,-51.509 v 0 c 0,-28.448 23.062,-51.509 51.509,-51.509 H 0 c 28.448,0 51.509,23.061 51.509,51.509 v 0 C 51.509,-23.061 28.448,0 0,0"
             style="fill:#ff5555;fill-opacity:1;fill-rule:nonzero;stroke:none"
             id="path4483" />
        </g>
        <g
           id="g4485"
           transform="translate(118.4708,360.5634)">
          <path
             d="M 0,0 V 0 C 0,-28.448 23.061,-51.509 51.509,-51.509 H 10.302 c -28.448,0 -51.509,23.061 -51.509,51.509 0,28.448 23.061,51.509 51.509,51.509 H 51.509 C 23.061,51.509 0,28.448 0,0"
             style="fill:#e04141;fill-opacity:1;fill-rule:nonzero;stroke:none"
             id="path4487" />
        </g>
        <g
           id="g4489"
           transform="translate(321.6116,175.4567)">
          <path
             d="M 0,0 V -11.698"
             style="fill:none;stroke:#1d1d1f;stroke-width:15;stroke-linecap:round;stroke-linejoin:round;stroke-miterlimit:10;stroke-dasharray:none;stroke-opacity:1"
             id="path4491" />
        </g>
        <g
           id="g4493"
           transform="translate(190.3884,175.4567)">
          <path
             d="M 0,0 V -11.698"
             style="fill:none;stroke:#1d1d1f;stroke-width:15;stroke-linecap:round;stroke-linejoin:round;stroke-miterlimit:10;stroke-dasharray:none;stroke-opacity:1"
             id="path4495" />
        </g>
        <g
           id="g4497"
           transform="translate(327.4607,141.6449)">
          <path
             d="M 0,0 H -11.698"
             style="fill:none;stroke:#fefefe;stroke-width:15;stroke-linecap:round;stroke-linejoin:round;stroke-miterlimit:10;stroke-dasharray:none;stroke-opacity:1"
             id="path4499" />
        </g>
        <g
           id="g4501"
           transform="translate(196.2375,141.6449)">
          <path
             d="M 0,0 H -11.698"
             style="fill:none;stroke:#fefefe;stroke-width:15;stroke-linecap:round;stroke-linejoin:round;stroke-miterlimit:10;stroke-dasharray:none;stroke-opacity:1"
             id="path4503" />
        </g>
        <g
           id="g4505"
           transform="translate(321.6116,279.505)">
          <path
             d="M 0,0 V -11.698"
             style="fill:none;stroke:#1d1d1f;stroke-width:15;stroke-linecap:round;stroke-linejoin:round;stroke-miterlimit:10;stroke-dasharray:none;stroke-opacity:1"
             id="path4507" />
        </g>
        <g
           id="g4509"
           transform="translate(190.3884,279.505)">
          <path
             d="M 0,0 V -11.698"
             style="fill:none;stroke:#1d1d1f;stroke-width:15;stroke-linecap:round;stroke-linejoin:round;stroke-miterlimit:10;stroke-dasharray:none;stroke-opacity:1"
             id="path4511" />
        </g>
        <g
           id="g4513"
           transform="translate(327.4607,245.6932)">
          <path
             d="M 0,0 H -11.698"
             style="fill:none;stroke:#fefefe;stroke-width:15;stroke-linecap:round;stroke-linejoin:round;stroke-miterlimit:10;stroke-dasharray:none;stroke-opacity:1"
             id="path4515" />
        </g>
        <g
           id="g4517"
           transform="translate(196.2375,245.6932)">
          <path
             d="M 0,0 H -11.698"
             style="fill:none;stroke:#fefefe;stroke-width:15;stroke-linecap:round;stroke-linejoin:round;stroke-miterlimit:10;stroke-dasharray:none;stroke-opacity:1"
             id="path4519" />
        </g>
        <g
           id="g4521"
           transform="translate(273.2643,349.6294)">
          <path
             d="m 0,0 c -3.434,-5.973 -9.879,-9.996 -17.264,-9.996 -7.385,0 -13.83,4.023 -17.265,9.997"
             style="fill:none;stroke:#1d1d1f;stroke-width:15;stroke-linecap:round;stroke-linejoin:round;stroke-miterlimit:10;stroke-dasharray:none;stroke-opacity:1"
             id="path4523" />
        </g>
        <g
           id="g4525"
           transform="translate(321.6116,381.493)">
          <path
             d="M 0,0 V -11.698"
             style="fill:none;stroke:#1d1d1f;stroke-width:15;stroke-linecap:round;stroke-linejoin:round;stroke-miterlimit:10;stroke-dasharray:none;stroke-opacity:1"
             id="path4527" />
        </g>
        <g
           id="g4529"
           transform="translate(190.3884,381.493)">
          <path
             d="M 0,0 V -11.698"
             style="fill:none;stroke:#1d1d1f;stroke-width:15;stroke-linecap:round;stroke-linejoin:round;stroke-miterlimit:10;stroke-dasharray:none;stroke-opacity:1"
             id="path4531" />
        </g>
        <g
           id="g4533"
           transform="translate(327.4607,347.6811)">
          <path
             d="M 0,0 H -11.698"
             style="fill:none;stroke:#fefefe;stroke-width:15;stroke-linecap:round;stroke-linejoin:round;stroke-miterlimit:10;stroke-dasharray:none;stroke-opacity:1"
             id="path4535" />
        </g>
        <g
           id="g4537"
           transform="translate(196.2375,347.6811)">
          <path
             d="M 0,0 H -11.698"
             style="fill:none;stroke:#fefefe;stroke-width:15;stroke-linecap:round;stroke-linejoin:round;stroke-miterlimit:10;stroke-dasharray:none;stroke-opacity:1"
             id="path4539" />
        </g>
      </g>
    </g>
  </g>
</svg>
