<svg id="Capa_1" enable-background="new 0 0 512 512" viewBox="0 0 512 512" xmlns="http://www.w3.org/2000/svg"><g><g><path d="m298.225 463.74-37.507 5.629h-180.927c-28.767 0-52.087-23.32-52.087-52.087v-365.195c0-28.767 23.32-52.087 52.087-52.087h294.956c28.767 0 52.087 23.32 52.087 52.087v251.166l-3.372 35.25c-28.364 74.273-51.135 112.458-125.237 125.237z" fill="#b7baf0"/></g><path d="m433.272 52.211h-201.468c-101.991 85.129-90.266 382.013 36.841 459.789h52.925l36.742-5.514c72.589-12.518 94.896-49.924 122.681-122.681l3.303-34.531v-246.039c0-28.179-22.844-51.024-51.024-51.024z" fill="#eeecff"/><path d="m231.804 52.211h-87.468c-28.18 0-51.024 22.844-51.024 51.024v357.741c0 28.18 22.844 51.024 51.024 51.024h124.309c-75.277-105.84-76.208-352.894-36.841-459.789z" fill="#d3d3ff"/><path d="m352.798 512c72.624 0 131.498-58.874 131.498-131.498v-31.228c-7.107 35.662-37.114 50.595-66.498 56.394-20.096 3.966-35.867 19.737-39.833 39.833-5.8 29.384-20.732 59.391-56.394 66.498h31.227z" fill="#d3d3ff"/><g><path d="m235.309 318.59h-9.469c-35.669 22.184-37.533 96.152 1.751 115.634h7.718c16.209 0 29.348-13.14 29.348-29.348v-56.938c0-16.208-13.14-29.348-29.348-29.348z" fill="#72d98b"/><path d="m225.839 318.59h-47.469c-16.209 0-29.348 13.14-29.348 29.348v56.938c0 16.209 13.14 29.348 29.348 29.348h49.219c-17.525-24.878-13.704-90.457-1.75-115.634z" fill="#00c67f"/><path d="m428.586 364.29h-119.628c-4.143 0-7.5-3.358-7.5-7.5s3.357-7.5 7.5-7.5h119.628c4.143 0 7.5 3.358 7.5 7.5s-3.358 7.5-7.5 7.5z" fill="#b7baf0"/><path d="m366.193 403.525h-57.235c-4.143 0-7.5-3.358-7.5-7.5s3.357-7.5 7.5-7.5h57.235c4.143 0 7.5 3.358 7.5 7.5s-3.357 7.5-7.5 7.5z" fill="#b7baf0"/><path d="m198.481 400.623c-1.92 0-3.839-.732-5.304-2.197l-16.716-16.716c-2.929-2.929-2.929-7.678 0-10.606 2.93-2.929 7.678-2.929 10.607 0l11.412 11.413 28.13-28.128c2.928-2.93 7.677-2.929 10.607 0 2.929 2.929 2.929 7.678 0 10.606l-33.433 33.432c-1.464 1.464-3.384 2.196-5.303 2.196z" fill="#0070c7"/></g><g><path d="m235.309 159.848h-9.469c-35.67 22.183-37.534 96.152 1.75 115.634h7.718c16.209 0 29.348-13.14 29.348-29.348v-56.938c.001-16.209-13.139-29.348-29.347-29.348z" fill="#72d98b"/><path d="m225.839 159.848h-47.469c-16.209 0-29.348 13.14-29.348 29.348v56.938c0 16.209 13.14 29.348 29.348 29.348h49.219c-17.525-24.878-13.704-90.458-1.75-115.634z" fill="#00c67f"/><path d="m428.586 205.547h-119.628c-4.143 0-7.5-3.358-7.5-7.5s3.357-7.5 7.5-7.5h119.628c4.143 0 7.5 3.358 7.5 7.5s-3.358 7.5-7.5 7.5z" fill="#b7baf0"/><path d="m366.193 244.782h-57.235c-4.143 0-7.5-3.358-7.5-7.5s3.357-7.5 7.5-7.5h57.235c4.143 0 7.5 3.358 7.5 7.5s-3.357 7.5-7.5 7.5z" fill="#b7baf0"/><path d="m198.481 241.88c-1.92 0-3.839-.732-5.304-2.197l-16.716-16.716c-2.929-2.929-2.929-7.678 0-10.607 2.93-2.929 7.678-2.929 10.607 0l11.412 11.413 28.13-28.128c2.928-2.93 7.677-2.929 10.607 0 2.929 2.929 2.929 7.678 0 10.607l-33.433 33.432c-1.464 1.464-3.384 2.196-5.303 2.196z" fill="#0070c7"/></g><path d="m332.176 118.316h-86.742c-4.143 0-7.5-3.358-7.5-7.5s3.357-7.5 7.5-7.5h86.742c4.143 0 7.5 3.358 7.5 7.5 0 4.143-3.358 7.5-7.5 7.5z" fill="#0070c7"/></g><g/><g/><g/><g/><g/><g/><g/><g/><g/><g/><g/><g/><g/><g/><g/></svg>