<svg id="Capa_1" enable-background="new 0 0 512 512" height="512" viewBox="0 0 512 512" width="512" xmlns="http://www.w3.org/2000/svg"><g><path d="m454.992 97.966c18.555 6.841 31.783 24.674 31.783 45.599v319.849c0 26.838-21.759 48.586-48.586 48.586h-148.53l-33.719-12.27-33.598 12.27h-62.041c-51.232-82.248-65.812-216.079-34.127-309.508z" fill="#5ad6ff"/><path d="m454.992 97.966c-5.234-1.937-10.9-2.988-16.803-2.988h-364.377c-26.828 0-48.586 21.759-48.586 48.586v319.849c0 26.838 21.759 48.586 48.586 48.586h86.489c-35.822-81.782-47.496-199.597-31.851-302.454 7.921 7.55 16.079 15.131 24.062 22.537 9.88 9.169 20.09 18.658 29.547 27.806 5.563 5.388 12.806 8.067 20.049 8.067 7.428 0 14.856-2.823 20.45-8.448 13.084-13.146 24.922-24.324 33.442-32.174 8.52 7.85 20.358 19.029 33.431 32.174 5.605 5.625 13.033 8.448 20.461 8.448 7.243 0 14.485-2.679 20.049-8.067 9.488-9.179 19.739-18.699 29.661-27.909 25.643-23.809 52.161-48.432 70.283-71.623 7.407-9.467 27.26-34.872 25.107-62.39z" fill="#00c5fd"/><path d="m289.658 259.724v252.276h-67.316v-252.286l33.658-44.049z" fill="#c2eafb"/><path d="m289.658 227.601v32.123c-10.489-10.542-20.184-19.83-28.025-27.162-3.172-2.966-8.094-2.966-11.266 0-7.839 7.33-17.532 16.614-28.017 27.155-.008-.003-.008-32.116-.008-32.116l33.658-30.783z" fill="#91d4f2"/><g fill="#7a8fa5"><ellipse cx="256" cy="275.395" rx="7.5" ry="7.5" transform="matrix(.975 -.223 .223 .975 -55.063 64.165)"/><ellipse cx="256" cy="355.795" rx="7.5" ry="7.5" transform="matrix(.975 -.223 .223 .975 -73.028 66.197)"/><ellipse cx="256" cy="436.195" rx="7.5" ry="7.5" transform="matrix(.975 -.223 .223 .975 -90.993 68.23)"/></g><path d="m369.687 91.836c-54.682-27.268-169.976-27.831-227.375 0-19.16-14.935-31.033-36.24-6.831-61.979 27.88-17.34 65.741-29.857 114.894-29.857 58.116 0 98.687 12.157 127.122 29.393 21.482 23.276 9.122 46.37-7.81 62.443z" fill="#5ad6ff"/><path d="m369.687 91.836c-23.062 54.37-113.687 107.753-113.687 107.753s-89.716-52.548-113.687-107.753c47.514-35.842 179.86-35.842 227.374 0z" fill="#00c5fd"/><path d="m256 199.589s-21.352 18.566-48.042 45.383c-3.179 3.194-8.332 3.245-11.57.111-20.786-20.118-43.989-40.711-64.337-60.71-27.156-29.165-29.521-79.289 3.451-103.055 29.95 51.233 120.498 118.271 120.498 118.271z" fill="#c2eafb"/><path d="m132.051 184.372c-36.501-35.842-63.844-69.737-51.666-95.431 9.19-19.399 27.116-41.684 55.097-59.084-2.658 4.234-5.11 8.716-7.356 13.445-4.791 10.117-1.174 23.428 7.377 38.016-26.591 28.351-26.374 73.538-3.452 103.054z" fill="#91d4f2"/><path d="m304.042 244.972c-26.69-26.817-48.042-45.383-48.042-45.383s149.488-110.669 127.874-156.288c-1.648-4.822-3.791-9.458-6.377-13.908 28.26 17.143 44.527 39.293 54.119 59.548 18.973 40.018-57.952 99.958-116.003 156.141-3.239 3.135-8.392 3.085-11.571-.11z" fill="#c2eafb"/></g></svg>