<svg id="Capa_1" enable-background="new 0 0 512 512" height="512" viewBox="0 0 512 512" width="512" xmlns="http://www.w3.org/2000/svg"><g><path d="m273.755 203.863-63.119-56.622c-11.839-10.62-29.967-10.356-41.286.817-21.826 21.545-43.121 59.112 22.368 92.551z" fill="#da9b85"/><path d="m426.138 273.818-84.986-19.502c-9.831-2.256-18.927-6.973-26.436-13.708l-40.962-36.745c-17.833-15.997-43.95-18.93-64.731-7.011-23.995 13.763-51.283 22.001-79.684 22.001-28.45 0-55.781-8.266-79.806-22.071-13.951-8.017-31.35 2.181-31.35 18.271l-.001 164.071h475.633l-2.166-29.059c-2.759-37.029-29.32-67.942-65.511-76.247z" fill="#fbf1cf"/><path d="m104.897 216.809c-19.596-3.244-38.314-10.231-55.363-20.027-13.951-8.017-31.35 2.181-31.35 18.271l-.001 164.071h110.885c-23.658-42.062-30.56-107.203-24.171-162.315z" fill="#f7dfb7"/><path d="m123.149 313.318c20.928 0 37.893 16.965 37.893 37.893v27.913h185.306c1.434-44.088 17.361-90.328 54.445-111.122l-59.641-13.686c-9.831-2.256-18.927-6.973-26.436-13.708l-40.962-36.745c-17.833-15.997-43.95-18.93-64.731-7.011-23.995 13.763-51.283 22.001-79.684 22.001-28.45 0-55.781-8.267-79.806-22.071-13.951-8.017-31.35 2.181-31.35 18.271v98.265z" fill="#e1b89a"/><path d="m104.897 216.809c-19.596-3.244-38.314-10.231-55.363-20.027-13.951-8.017-31.35 2.181-31.35 18.271v98.265h89.144c-5.414-31.425-6.02-65.548-2.431-96.509z" fill="#da9b85"/><g fill="#4e5660"><path d="m498.823 379.124h-485.646c-7.278 0-13.177 5.9-13.177 13.177v38.049c0 7.278 5.9 13.177 13.177 13.177h110.926c7.921 0 14.342-6.421 14.342-14.342v-6.836c0-3.607 3.664-6.057 6.997-4.678l47.911 19.817c9.64 3.987 19.97 6.039 30.403 6.039h275.066c7.277 0 13.177-5.9 13.177-13.177v-38.049c.001-7.277-5.899-13.177-13.176-13.177z"/><path d="m212.536 254.178c-7.494-7.494-7.494-19.645 0-27.14l42.197-42.197c7.494-7.494 19.646-7.494 27.141 0 7.494 7.494 7.494 19.645 0 27.14l-42.197 42.197c-7.495 7.495-19.646 7.494-27.141 0z"/><path d="m269.662 302.67c-7.494-7.494-7.494-19.645 0-27.14l42.197-42.196c7.494-7.497 19.645-7.497 27.141 0 7.494 7.494 7.494 19.645 0 27.14l-42.197 42.196c-7.493 7.494-19.645 7.497-27.141 0z"/></g><path d="m390.223 192.446 5.414 10.89c4.729 9.512 18.299 9.512 23.028 0l5.415-10.89c7.767-15.622 20.424-28.279 36.046-36.046l10.89-5.415c9.512-4.729 9.512-18.299 0-23.028l-10.89-5.415c-15.622-7.767-28.279-20.424-36.046-36.046l-5.415-10.89c-4.729-9.512-18.299-9.512-23.028 0l-5.414 10.89c-7.767 15.622-20.424 28.279-36.046 36.046l-10.89 5.415c-9.512 4.729-9.512 18.299 0 23.028l10.89 5.415c15.622 7.767 28.279 20.424 36.046 36.046z" fill="#a3defe"/><path d="m42.566 253.72 3.999 8.044c3.493 7.026 13.516 7.026 17.01 0l3.999-8.044c5.737-11.539 15.086-20.888 26.625-26.625l8.044-3.999c7.026-3.493 7.026-13.516 0-17.01l-8.044-3.999c-11.539-5.737-20.888-15.086-26.625-26.625l-3.999-8.044c-3.493-7.026-13.516-7.026-17.01 0l-3.999 8.044c-5.737 11.539-15.086 20.888-26.625 26.625l-8.044 3.999c-7.026 3.493-7.026 13.516 0 17.01l8.044 3.999c11.538 5.737 20.887 15.086 26.625 26.625z" fill="#f7ef87"/></g></svg>