<svg id="Capa_1" enable-background="new 0 0 512 512" height="512" viewBox="0 0 512 512" width="512" xmlns="http://www.w3.org/2000/svg"><path d="m21.204 42.531c0-7.795 6.319-14.114 14.114-14.114h45.57c28.926 0 56.121 11.265 76.574 31.719l66.447 66.445c12.54 12.54 12.54 32.871 0 45.41-6.27 6.27-14.488 9.405-22.706 9.405s-16.435-3.135-22.705-9.405l-66.447-66.446c-8.265-8.265-19.475-12.908-31.163-12.908h-45.57c-7.795 0-14.114-6.319-14.114-14.114z" fill="#a3defe"/><path d="m28.68 116.873-13.113 3.711c-7.809 2.21-15.567-3.657-15.567-11.774v-96.567c0-8.116 7.758-13.983 15.568-11.773l13.112 3.711c8.812 2.494 14.895 10.537 14.895 19.695v73.302c.001 9.158-6.083 17.201-14.895 19.695z" fill="#4e5660"/><path d="m223.909 171.991c12.54-12.54 12.54-32.87 0-45.41l-56.416-56.415-45.41 45.41 56.416 56.415c6.27 6.27 14.487 9.405 22.705 9.405s16.435-3.135 22.705-9.405z" fill="#7acefa"/><path d="m193.693 90.291-51.485 51.485c-22.739 22.739-26.548 58.254-9.15 85.298l35.875 55.764 165.822-165.822-55.764-35.875c-27.044-17.398-62.559-13.589-85.298 9.15z" fill="#8eafe2"/><path d="m189.55 94.434-47.342 47.342c-22.739 22.739-26.548 58.254-9.15 85.298l35.875 55.764 63.138-63.138c-28.705-30.971-45.277-88.314-42.521-125.266z" fill="#6a96d7"/><path d="m191.748 197.314c7.392 7.392 5.859 20.908-3.423 30.19s-22.799 10.814-30.19 3.423c-7.392-7.392-5.859-20.908 3.423-30.19 9.281-9.282 22.798-10.814 30.19-3.423z" fill="#fff"/><ellipse cx="266.038" cy="123.024" fill="#fff" rx="23.768" ry="18.928" transform="matrix(.707 -.707 .707 .707 -9.07 224.151)"/><path d="m171.384 198.475c-1.919 0-3.839-.732-5.304-2.197l-5.935-5.935c-2.929-2.929-2.928-7.678 0-10.607 2.929-2.928 7.677-2.928 10.607.001l5.935 5.935c2.929 2.929 2.928 7.678-.001 10.607-1.463 1.463-3.382 2.196-5.302 2.196z" fill="#4e5660"/><path d="m242.892 126.967c-1.919 0-3.838-.732-5.303-2.196l-5.935-5.935c-2.929-2.929-2.929-7.678-.001-10.607 2.929-2.929 7.677-2.929 10.607 0l5.935 5.935c2.929 2.929 2.929 7.678.001 10.607-1.465 1.464-3.385 2.196-5.304 2.196z" fill="#4e5660"/><path d="m199.195 172.452c-.577 0-1.154-.02-1.734-.06-4.132-.284-7.252-3.864-6.968-7.997.284-4.132 3.871-7.258 7.997-6.968 2.94.2 5.824-.873 7.902-2.952 2.08-2.079 3.156-4.96 2.953-7.903-.284-4.132 2.835-7.712 6.968-7.997 4.145-.276 7.713 2.836 7.997 6.968.5 7.271-2.165 14.393-7.312 19.538-4.734 4.736-11.145 7.371-17.803 7.371z" fill="#4e5660"/><path d="m379.275 136.021-191.337 191.337c-9.652 9.652-26.137 5.179-29.586-8.028l-1.639-6.275c-2.309-8.838.242-18.238 6.701-24.697l176.86-176.86c6.459-6.459 15.859-9.01 24.697-6.701l6.275 1.639c13.208 3.449 17.681 19.934 8.029 29.585z" fill="#8ee2cf"/><circle cx="451.993" cy="166.139" fill="#a3defe" r="30.501"/><path d="m461.409 399.952c-20.849-2.007-39.637 7.4-50.863 22.702-3.882 5.291-10.621 7.6-16.865 5.58-4.884-1.58-10.172-2.263-15.671-1.852-20.02 1.497-36.177 17.76-37.548 37.789-1.631 23.819 17.208 43.648 40.678 43.648 8.671 0 16.707-2.71 23.312-7.327 5.305-3.708 12.405-3.734 17.567.17 9.406 7.115 21.118 11.338 33.822 11.338 32.433 0 58.445-27.494 55.999-60.447-2.004-27.003-23.478-49.007-50.431-51.601z" fill="#a3defe"/><path d="m427.734 407.249c-6.737 3.908-12.602 9.152-17.189 15.405-3.882 5.291-10.621 7.599-16.865 5.58-4.884-1.58-10.172-2.263-15.671-1.852-20.019 1.497-36.177 17.76-37.548 37.789-1.631 23.819 17.208 43.648 40.678 43.648 8.671 0 16.707-2.71 23.312-7.327 5.305-3.708 12.405-3.734 17.567.17 9.406 7.115 21.118 11.338 33.822 11.338 12.784 0 24.559-4.284 33.998-11.478-55.238-.733-71.793-61.878-62.104-93.273z" fill="#7acefa"/><g fill="#a3defe"><path d="m289.459 354.191c-2.28 0-4.532-1.036-6.006-3-.125-.166-12.623-16.755-24.756-26.96-3.17-2.666-3.579-7.397-.913-10.567 2.665-3.17 7.397-3.579 10.567-.913 13.468 11.326 26.553 28.707 27.103 29.441 2.484 3.314 1.812 8.013-1.502 10.498-1.349 1.013-2.928 1.501-4.493 1.501z"/><path d="m382.674 251.11c-2.28 0-4.532-1.036-6.006-3-.125-.167-12.623-16.756-24.757-26.96-3.17-2.666-3.579-7.397-.913-10.567s7.397-3.58 10.567-.913c13.469 11.326 26.554 28.708 27.104 29.442 2.484 3.314 1.812 8.013-1.502 10.498-1.349 1.012-2.928 1.5-4.493 1.5z"/><path d="m460.486 279.31c-2.28 0-4.532-1.036-6.006-3-.125-.166-12.623-16.755-24.757-26.959-3.17-2.666-3.579-7.398-.913-10.567 2.667-3.17 7.397-3.58 10.567-.913 13.469 11.326 26.554 28.708 27.104 29.442 2.484 3.313 1.812 8.013-1.502 10.498-1.348 1.011-2.927 1.499-4.493 1.499z"/><path d="m452.01 342.794c-2.28 0-4.532-1.036-6.006-3-.125-.166-12.623-16.755-24.756-26.959-3.17-2.666-3.579-7.397-.913-10.567 2.666-3.171 7.397-3.578 10.567-.913 13.468 11.326 26.553 28.707 27.103 29.441 2.484 3.314 1.811 8.013-1.502 10.497-1.349 1.013-2.928 1.501-4.493 1.501z"/><path d="m323.649 431.527c-2.28 0-4.532-1.036-6.006-3-.125-.167-12.622-16.755-24.756-26.96-3.17-2.666-3.579-7.397-.913-10.567 2.666-3.171 7.398-3.58 10.567-.913 13.469 11.327 26.553 28.708 27.103 29.442 2.484 3.314 1.812 8.013-1.502 10.498-1.348 1.012-2.927 1.5-4.493 1.5z"/></g><path d="m477.566 182.755c-36.938.022-44.546-30.861-37.708-44.601-10.806 4.692-18.366 15.454-18.366 27.986 0 16.845 13.656 30.501 30.501 30.501 10.715-.001 20.132-5.53 25.573-13.886z" fill="#7acefa"/><circle cx="207.422" cy="426.86" fill="#a3defe" r="53.135"/><path d="m251.971 455.806c-64.347.039-77.602-53.762-65.689-77.698-18.825 8.174-31.995 26.921-31.995 48.752 0 29.345 23.789 53.134 53.134 53.134 18.666.001 35.072-9.632 44.55-24.188z" fill="#7acefa"/><circle cx="363.973" cy="330.731" fill="#a3defe" r="34.608"/><path d="m392.988 349.583c-41.911.025-50.544-35.017-42.785-50.606-12.261 5.324-20.839 17.535-20.839 31.754 0 19.113 15.494 34.608 34.608 34.608 12.158-.001 22.843-6.274 29.016-15.756z" fill="#7acefa"/></svg>