<svg id="Capa_1" enable-background="new 0 0 497 497" height="512" viewBox="0 0 497 497" width="512" xmlns="http://www.w3.org/2000/svg"><g><g fill="#e8b5b1"><path d="m393.84 347.424c-18.908 6.696-25.28 30.037-12.824 45.427l25.713 31.771c3.745 4.623 10.125 6.632 16.053 4.533s9.616-7.676 9.617-13.625v-40.874c-.005-19.824-19.673-33.92-38.559-27.232z"/><path d="m103.146 347.424c18.908 6.696 25.28 30.037 12.824 45.427l-25.713 31.771c-3.745 4.623-10.125 6.632-16.053 4.533s-9.616-7.676-9.617-13.625v-40.874c.004-19.824 19.673-33.92 38.559-27.232z"/></g><g><path d="m448.158 137.486c-18.625-18.625-50.308-32.336-88.156-41.133-39.801-9.25-82.649 1.853-112.547 29.707l-40 75.743 33.714 120.683h211.312c8.476-47.623 24.1-156.578-4.323-185z" fill="#ffb5c0"/><path d="m136.998 96.353c-37.849 8.797-69.531 22.508-88.156 41.133-28.422 28.422-12.799 137.377-4.323 185h202.936v-196.426c-29.897-27.854-70.656-38.958-110.457-29.707z" fill="#ff8e9e"/></g><g><path d="m424.805 261.529c-51.538-41.228-125.812-41.228-177.349 0l-20 19.358 20 19.721 94.423 30 94.679-30z" fill="#ffdbe0"/><path d="m247.455 261.528c-51.537-41.228-123.722-41.228-175.26 0l-11.753 39.079 99.274 30 87.739-30c-6.327-12.258-6.327-26.82 0-39.079z" fill="#ffb5c0"/></g><path d="m470.11 213.759c-22.719-9.91-49.206.38-59.164 22.985l-21.592 49.005c-3.976 9.026-12.946 14.858-22.85 14.858h-119.049l-.002.002-54.687 44.687 54.689 44.689h119.049c45.561 0 86.821-26.829 105.114-68.35l21.591-49.005c9.96-22.603-.382-48.961-23.099-58.871z" fill="#ff8e9e"/><path d="m247.453 300.61c.001-.001.001-.001.002-.002h-116.959c-9.904 0-18.874-5.833-22.851-14.858l-21.591-49.005c-9.96-22.604-36.451-32.899-59.164-22.985-22.717 9.91-33.059 36.268-23.099 58.872l21.59 49.005c18.294 41.521 59.554 68.35 105.115 68.35h116.959c-11.852-11.853-18.511-27.928-18.511-44.689 0-16.762 6.658-32.836 18.509-44.688z" fill="#ea5b70"/><g fill="#ffdbe0"><path d="m100.679 97.144c-8.995-2.35-15.959-9.273-18.302-18.27-1.792-6.882-5.435-11.859-9.885-11.859-4.458 0-8.086 4.971-9.876 11.831-2.347 8.995-9.284 15.945-18.279 18.29-6.871 1.791-11.845 5.427-11.845 9.88 0 4.456 4.972 8.088 11.837 9.878 8.988 2.344 15.937 9.276 18.279 18.265 1.792 6.881 5.434 11.857 9.884 11.857 4.458 0 8.086-4.971 9.876-11.831 2.347-8.995 9.284-15.945 18.279-18.29 6.871-1.791 11.845-5.427 11.845-9.88.001-4.464-4.966-8.083-11.813-9.871z"/><path d="m486.663 307.406c-7.871-2.056-13.964-8.114-16.014-15.986-1.568-6.022-4.755-10.377-8.649-10.377-3.9 0-7.075 4.35-8.641 10.352-2.054 7.871-8.123 13.952-15.994 16.004-6.012 1.567-10.364 4.749-10.364 8.645 0 3.899 4.35 7.077 10.358 8.644 7.864 2.051 13.945 8.117 15.994 15.982 1.568 6.021 4.755 10.375 8.649 10.375 3.9 0 7.075-4.349 8.641-10.352 2.054-7.87 8.123-13.952 15.994-16.004 6.012-1.567 10.364-4.748 10.364-8.645-.001-3.906-4.347-7.073-10.338-8.638z"/></g></g></svg>