<svg id="Capa_1" enable-background="new 0 0 512 512" height="512" viewBox="0 0 512 512" width="512" xmlns="http://www.w3.org/2000/svg"><g><path d="m137.698 11.42c-20.052 5.235-32.064 25.733-26.83 45.785l10.448 40.021 72.615-18.956-10.447-40.02c-5.235-20.053-25.734-32.064-45.786-26.83z" fill="#cdcdf9"/><g><path d="m296.187 149.402 62.067-112.934c14.484-26.355 47.712-36.013 74.066-21.528 26.356 14.485 36.013 47.711 21.528 74.066-5.242 9.538-17.224 13.019-26.761 7.778-9.537-5.242-13.021-17.223-7.778-26.761 4.027-7.326 1.357-16.517-5.971-20.544-7.313-4.019-16.528-1.34-20.545 5.971l-62.067 112.934z" fill="#5b6480"/></g><g fill="#475066"><path d="m27.569 184.294c-15.226 0-27.569 12.343-27.569 27.569 0 15.226 12.343 27.569 27.569 27.569h52.383v-55.138z"/><path d="m399.078 184.294c15.226 0 27.569 12.343 27.569 27.569 0 15.226-12.343 27.569-27.569 27.569h-52.383v-55.138z"/><path d="m296.187 149.402 34.539 18.982 33.052-60.139c-11.46-6.796-24.818-10.716-39.08-10.72z"/></g><path d="m370.682 174.441c0-25.411-20.6-46.011-46.011-46.011h-222.696c-25.411 0-46.011 20.6-46.011 46.011v184.466c0 29.929 24.262 54.191 54.191 54.191h206.336c29.929 0 54.191-24.262 54.191-54.191z" fill="#cdcdf9"/><path d="m116.702 239.43c0-40.889 11.944-78.986 32.529-110.999h-47.256c-25.411 0-46.011 20.6-46.011 46.011v184.466c0 29.929 24.262 54.191 54.191 54.191h67.729c-34.83-27.748-61.182-79.076-61.182-173.669z" fill="#9ca0e0"/><g><g><g><ellipse cx="127.914" cy="232.57" fill="#e8e7f9" rx="31.514" ry="25.096"/></g><g><ellipse cx="298.732" cy="232.57" fill="#e8e7f9" rx="31.514" ry="25.096"/></g></g></g><g><path d="m146.281 216.138c-4.267 0-7.726-3.459-7.726-7.726v-12.883c0-4.268 3.459-7.726 7.726-7.726s7.726 3.459 7.726 7.726v12.883c0 4.268-3.459 7.726-7.726 7.726z" fill="#303646"/></g><g><path d="m280.366 216.138c-4.267 0-7.726-3.459-7.726-7.726v-12.883c0-4.268 3.459-7.726 7.726-7.726s7.726 3.459 7.726 7.726v12.883c0 4.268-3.459 7.726-7.726 7.726z" fill="#303646"/></g><g><path d="m213.323 223.807c-9.007 0-17.572-3.9-23.5-10.702-2.803-3.217-2.468-8.098.749-10.901s8.098-2.468 10.901.748c2.992 3.434 7.311 5.402 11.85 5.402s8.859-1.969 11.851-5.402c2.804-3.217 7.684-3.551 10.901-.748 3.217 2.804 3.552 7.684.748 10.901-5.927 6.802-14.492 10.702-23.5 10.702z" fill="#303646"/></g><path d="m167.665 63.571c-22.963 0-41.579-18.616-41.579-41.579 0-1.885.137-3.736.38-5.555-13.013 8.612-19.759 24.827-15.597 40.768l10.448 40.021 72.615-18.956-5.317-20.368c-6.154 3.598-13.309 5.669-20.95 5.669z" fill="#9ca0e0"/><path d="m274.369 27.194-248.193 64.79c-15.552 4.06-24.869 19.959-20.809 35.511 4.06 15.552 19.959 24.869 35.511 20.809l248.193-64.791c15.552-4.06 24.869-19.959 20.809-35.511-4.06-15.552-19.959-24.868-35.511-20.808z" fill="#5b6480"/><path d="m287.379 289.604c-19.67 0-38.296 9.512-49.823 25.444-11.575 15.999-14.793 36.769-8.612 55.535 1.082 3.295 2.27 6.55 3.498 9.591 4.687 11.709 10.681 22.73 17.816 32.923h66.234c29.929 0 54.191-24.262 54.191-54.191v-69.303h-83.304z" fill="#9ca0e0"/><path d="m316.029 416.056v43.486c0 24.439 19.812 44.251 44.251 44.251h47.141c24.439 0 44.251-19.812 44.251-44.251v-43.486z" fill="#f6dc99"/><path d="m328.12 416.056h-12.09v43.486c0 24.439 19.812 44.251 44.251 44.251h15.592c-26.465-18.99-42.617-50.563-47.753-87.737z" fill="#f9c772"/><path d="m507.415 369.026c-19.617 49.009-67.542 83.632-123.566 83.632-56.014 0-103.939-34.623-123.556-83.632l123.557-24.711z" fill="#f98797"/><path d="m326.331 389.439c0-11.94 1.576-23.51 4.516-34.524l-70.553 14.11c13.459 33.624 40.244 60.473 73.822 74.018-5.159-16.407-7.785-34.536-7.785-53.604z" fill="#e35b70"/><path d="m510.48 360.553c-.926 2.867-1.951 5.695-3.064 8.474h-247.122c-1.035-2.562-1.98-5.163-2.848-7.804-6.749-20.494 8.365-41.619 29.933-41.619h192.95c21.283 0 36.693 20.701 30.151 40.949z" fill="#f6dc99"/><path d="m346.035 319.604h-58.656c-21.568 0-36.682 21.125-29.933 41.619.867 2.641 1.813 5.242 2.847 7.803h67.589c2.746-17.893 9.047-34.612 18.153-49.422z" fill="#f9c772"/><g><path d="m56.524 84.062-30.348 7.922c-15.552 4.06-24.869 19.959-20.809 35.511 4.06 15.552 19.959 24.869 35.511 20.809l52.874-13.803c-19.865-9.099-34.315-27.953-37.228-50.439z" fill="#475066"/></g></g></svg>