<svg id="Capa_1" enable-background="new 0 0 512 512" height="512" viewBox="0 0 512 512" width="512" xmlns="http://www.w3.org/2000/svg"><g><g fill="#93ecea"><circle cx="63.382" cy="145.269" r="41.207"/><circle cx="114.891" cy="38.632" r="15.453"/></g><g><g><path d="m473.12 322.56c-14.886 14.886-32.688 25.435-52.055 31.76-30.04 9.797-53.817 32.523-65.015 61.852-107.612 11.817-170.502-50.579-176.851-155.372 97.568-101.709 220.891-210.64 239.373-203.738 0 0 30.195 30.195 36.365 36.365 68.301 68.301 76.44 170.876 18.183 229.133z" fill="#fdc072"/><path d="m356.05 416.171c-.618 1.607-1.195 3.245-1.731 4.893-6.325 19.367-16.874 37.169-31.76 52.055-58.257 58.257-160.832 50.118-229.133-18.183-6.171-6.171-36.365-36.365-36.365-36.365 2.874-24.611 56.711-89.574 122.138-157.772 32.461 81.776 98.259 141.609 176.851 155.372z" fill="#ffb25a"/></g><g><path d="m436.756 286.185c-14.896 14.896-32.677 25.445-52.055 31.76-31.688 10.333-56.423 35.067-66.756 66.756-2.009 6.15-4.43 12.125-7.294 17.905-104.095-16.205-172.062-106.219-172.062-224.577 0-25.662 21.831-83.54 27.445-107.1 6.016-11.651 13.815-22.458 23.406-32.049 58.257-58.257 160.842-50.118 229.133 18.183 68.291 68.291 76.429 170.876 18.183 229.122z" fill="#f9ee80"/><path d="m310.652 402.606c-6.15 12.455-14.289 23.972-24.467 34.15-58.246 58.246-160.832 50.108-229.123-18.183-68.301-68.291-76.44-170.876-18.183-229.133 14.886-14.886 32.677-25.445 52.055-31.761 31.678-10.333 56.413-35.067 66.745-66.745 2.246-6.892 5.027-13.578 8.355-20.006-5.614 23.56-8.612 48.408-8.612 74.07.001 118.359 63.821 219.203 153.23 257.608z" fill="#f9d171"/></g><circle cx="198.134" cy="397.253" fill="#ffb25a" r="25.755"/><circle cx="345.188" cy="99.69" fill="#fdc072" r="25.755"/><circle cx="94.759" cy="253.432" fill="#ffb25a" r="20.604"/><g fill="#fdc072"><circle cx="384.984" cy="239.941" r="20.604"/><circle cx="252.032" cy="83.058" r="15.453"/><circle cx="281.022" cy="314.765" r="7.726"/><circle cx="390.614" cy="166.97" r="7.726"/><circle cx="209.514" cy="153.173" r="7.726"/></g><circle cx="99.438" cy="358.343" fill="#ffb25a" r="15.453"/><g><g><ellipse cx="193.839" cy="309.745" fill="#ffa1ac" rx="30.241" ry="24.082" transform="matrix(.707 -.707 .707 .707 -162.248 227.785)"/><ellipse cx="309.745" cy="193.839" fill="#ffa1ac" rx="30.241" ry="24.082" transform="matrix(.707 -.707 .707 .707 -46.343 275.798)"/><ellipse cx="240.603" cy="240.603" fill="#666667" rx="20.946" ry="25.54" transform="matrix(.707 -.707 .707 .707 -99.661 240.602)"/></g><g fill="#666667"><path d="m197.25 277.3-6.439-6.439 2.2-1.27c3.696-2.133 4.962-6.859 2.828-10.554-2.133-3.696-6.859-4.962-10.554-2.828l-22.227 12.833c-3.696 2.133-4.962 6.859-2.828 10.554 1.431 2.479 4.028 3.865 6.698 3.865 1.311 0 2.639-.334 3.856-1.037l6.532-3.771c.363.73.849 1.414 1.457 2.023l7.551 7.551c1.509 1.509 3.486 2.263 5.463 2.263s3.955-.755 5.463-2.263c3.018-3.018 3.018-7.91 0-10.927z"/><path d="m288.231 186.318-7.551-7.551c-.608-.608-1.293-1.094-2.023-1.457l3.772-6.532c2.134-3.695.867-8.421-2.828-10.554-3.695-2.135-8.423-.868-10.554 2.828l-12.833 22.227c-2.134 3.695-.868 8.421 2.828 10.554 1.216.703 2.545 1.037 3.856 1.037 2.67 0 5.268-1.386 6.698-3.865l1.269-2.199 6.439 6.439c1.509 1.509 3.487 2.263 5.464 2.263s3.955-.755 5.464-2.263c3.016-3.017 3.016-7.91-.001-10.927z"/></g></g></g><g fill="#b0f0ef"><circle cx="457.548" cy="360.254" r="36.056"/><circle cx="418.944" cy="453.671" r="20.604"/></g></g></svg>