<svg id="Capa_1" enable-background="new 0 0 512 512" height="512" viewBox="0 0 512 512" width="512" xmlns="http://www.w3.org/2000/svg"><path d="m101.637 191.19c-6.236-12.233-1.374-27.206 10.86-33.441 27.457-13.996 55.525-38.116 55.525-110.888 0-13.731 11.131-24.862 24.862-24.862s24.862 11.131 24.862 24.862c0 43.6-9.033 79.508-26.848 106.724-17.622 26.918-40.297 40.551-55.819 48.464-12.158 6.2-27.168 1.448-33.442-10.859z" fill="#b39bdb"/><path d="m194.853 147.102c15.184-26.347 22.894-60.01 22.894-100.24 0-13.731-11.131-24.862-24.862-24.862s-24.862 11.131-24.862 24.862c0 28.479-4.299 49.506-11.178 65.392 20.416 5.587 36.216 16.937 38.008 34.848z" fill="#8f8bd5"/><path d="m226.119 150.532h132.845v68.218h-132.845z" fill="#b39bdb"/><path d="m358.964 150.532c0-27.788 13.456-63.381 29.637-85.292 5.106-6.914 4.817-16.43-.53-23.159-20.089-25.281-45.14-42.081-95.529-42.081h-168.754v77.007c57.189 0 102.331 27.007 102.331 73.524h132.845z" fill="#8de1ce"/><path d="m88.645 0h35.143v77.007h-35.143c-9.691 0-17.546-7.856-17.546-17.547v-41.914c-.001-9.69 7.855-17.546 17.546-17.546z" fill="#b39bdb"/><path d="m260.534 150.531h15v68.219h-15z" fill="#8f8bd5"/><path d="m309.549 150.531h15v68.219h-15z" fill="#8f8bd5"/><path d="m374.137 512h-163.191c-17.936 0-34.44-9.794-43.033-25.537-29.346-53.761-31.596-118.22-6.072-173.897l37.135-81.006c7.037-15.351 22.376-25.193 39.263-25.193h108.607c16.887 0 32.225 9.842 39.263 25.193l37.135 81.006c25.524 55.677 23.273 120.136-6.072 173.897-8.594 15.743-25.099 25.537-43.035 25.537z" fill="#fbf1cf"/><path d="m246.017 206.367h-7.779c-16.887 0-32.225 9.842-39.263 25.193l-37.135 81.006c-25.524 55.677-23.273 120.136 6.072 173.897 8.594 15.743 25.098 25.537 43.034 25.537h48.63c-42.995-58.252-31.06-217.807-13.559-305.633z" fill="#f5e2a2"/><path d="m407.714 278.69c16.572 36.15-40.163 40.399-115.172 21.187 35.788-38.537 100.743-52.663 115.172-21.187z" fill="#7acdf9"/><path d="m407.714 278.69c16.571 36.149-40.163 40.399-115.172 21.186-40.589-10.396-86.029-13.078-126.75 4.069l-3.952 8.62c-25.524 55.677-23.273 120.136 6.072 173.897 8.594 15.744 25.098 25.538 43.034 25.538h163.192c17.936 0 34.44-9.794 43.033-25.537 29.346-53.762 31.596-118.22 6.072-173.897z" fill="#a2ddfd"/><path d="m233.862 291.603c-23.063-.337-46.245 3.152-68.07 12.342l-3.952 8.62c-25.524 55.677-23.273 120.136 6.072 173.897 8.594 15.744 25.098 25.538 43.034 25.538h48.63c-31.159-42.216-33.465-137.632-25.714-220.397z" fill="#7acdf9"/><ellipse cx="202.738" cy="418.408" fill="#fff" rx="33.136" ry="26.388"/><ellipse cx="382.345" cy="418.408" fill="#fff" rx="33.136" ry="26.388"/><g fill="#4e5660"><path d="m237.822 397.194c-4.142 0-7.5-3.357-7.5-7.5 0-4.561-3.711-8.272-8.272-8.272s-8.272 3.711-8.272 8.272c0 4.143-3.358 7.5-7.5 7.5s-7.5-3.357-7.5-7.5c0-12.832 10.44-23.272 23.272-23.272s23.272 10.44 23.272 23.272c0 4.143-3.358 7.5-7.5 7.5z"/><path d="m378.806 397.194c-4.142 0-7.5-3.357-7.5-7.5 0-4.561-3.711-8.272-8.272-8.272s-8.272 3.711-8.272 8.272c0 4.143-3.358 7.5-7.5 7.5s-7.5-3.357-7.5-7.5c0-12.832 10.44-23.272 23.272-23.272s23.272 10.44 23.272 23.272c0 4.143-3.358 7.5-7.5 7.5z"/><path d="m292.541 423.25c-8.58 0-16.738-3.716-22.384-10.194-2.721-3.123-2.396-7.86.727-10.582 3.122-2.721 7.86-2.396 10.582.727 2.796 3.209 6.833 5.05 11.076 5.05 4.242 0 8.279-1.841 11.076-5.05 2.721-3.123 7.459-3.448 10.582-.727 3.123 2.722 3.448 7.459.727 10.582-5.647 6.478-13.806 10.194-22.386 10.194z"/></g><path d="m317.049 78.758h-49.015c-4.142 0-7.5-3.357-7.5-7.5s3.358-7.5 7.5-7.5h49.015c4.142 0 7.5 3.357 7.5 7.5s-3.358 7.5-7.5 7.5z" fill="#6fcd90"/></svg>