<svg id="Capa_1" enable-background="new 0 0 497 497" height="512" viewBox="0 0 497 497" width="512" xmlns="http://www.w3.org/2000/svg"><g><path d="m358.109 19.12c-13.074 0-23.672 10.598-23.672 23.672v295.541h47.344v-295.541c0-13.074-10.598-23.672-23.672-23.672z" fill="#edb798"/><path d="m381.781 280.503c-7.393-2.686-15.364-4.155-23.673-4.155s-16.279 1.47-23.672 4.155v57.83h47.344v-57.83z" fill="#e3986d"/><path d="m358.109 306.348c-21.829 0-39.525 17.696-39.525 39.525v48.534h79.051v-48.534c-.001-21.829-17.697-39.525-39.526-39.525z" fill="#ff748f"/><path d="m247.179 239.904c-1.086-19.343-15.968-35.463-35.167-38.055-2.643-.357-5.242-.452-7.778-.314-3.216.175-5.835-2.472-5.831-5.693 0-.022 0-.045 0-.067 0-31.804-25.783-57.587-57.587-57.587-27.647 0-50.73 19.487-56.294 45.473-.599 2.796-3.254 4.717-6.095 4.395-1.75-.199-3.529-.302-5.333-.302-26.582 0-48.08 21.771-47.634 48.455.436 26.122 22.293 46.826 48.418 46.826h132.585c23.303.002 42.04-19.541 40.716-43.131z" fill="#80d8e6"/><path d="m136.349 278.366-110.895 29.207 11.282 112.328c2.614 26.027 24.519 45.842 50.677 45.842h97.874c26.158 0 48.063-19.815 50.677-45.842l11.282-112.328z" fill="#80d8e6"/><path d="m142.903 138.242c-.694-.025-1.387-.053-2.087-.053-27.647 0-50.73 19.488-56.294 45.473-.599 2.796-3.254 4.717-6.095 4.395-1.75-.198-3.529-.302-5.333-.302-26.582 0-48.08 21.771-47.634 48.455.337 20.169 13.449 37.099 31.432 43.772 9.472-56.449 40.903-106.226 86.011-141.74z" fill="#3ccadd"/><path d="m53.902 315.928c0-5.382.216-10.716.605-16.007l-29.053 7.652 11.282 112.328c2.614 26.027 24.519 45.842 50.677 45.842h25.547c-36.864-40.574-59.058-92.808-59.058-149.815z" fill="#3ccadd"/><path d="m247.245 249.158h-221.791c-14.058 0-25.454 11.396-25.454 25.454v7.507c0 14.058 11.396 25.454 25.454 25.454h221.791c14.058 0 25.454-11.396 25.454-25.454v-7.507c0-14.058-11.396-25.454-25.454-25.454z" fill="#f9f097"/><g><g><path d="m77.125 378.979c-4.143 0-7.5-3.358-7.5-7.5v-13.477c0-4.142 3.357-7.5 7.5-7.5s7.5 3.358 7.5 7.5v13.477c0 4.142-3.357 7.5-7.5 7.5z" fill="#423e4f"/></g><g><path d="m195.573 378.979c-4.143 0-7.5-3.358-7.5-7.5v-13.477c0-4.142 3.357-7.5 7.5-7.5s7.5 3.358 7.5 7.5v13.477c0 4.142-3.357 7.5-7.5 7.5z" fill="#423e4f"/></g><g><path d="m136.35 385.754c-8.151 0-15.903-3.53-21.269-9.686-2.722-3.123-2.396-7.86.727-10.582 3.122-2.722 7.86-2.397 10.582.726 2.515 2.886 6.146 4.541 9.96 4.541s7.445-1.655 9.96-4.541c2.723-3.122 7.459-3.448 10.582-.726 3.123 2.721 3.448 7.459.727 10.582-5.366 6.155-13.118 9.686-21.269 9.686z" fill="#423e4f"/></g></g><circle cx="207.355" cy="193.576" fill="#3ccadd" r="23.822"/><circle cx="219.396" cy="89.378" fill="#80d8e6" r="23.822"/><circle cx="81.797" cy="80.763" fill="#80d8e6" r="35.846"/><path d="m456.848 477.88h-197.479c-27.633 0-46.988-27.277-37.872-53.36l3.301-9.431 133.31-28.545 133.31 28.545 3.301 9.431c9.118 26.083-10.237 53.36-37.871 53.36z" fill="#ff748f"/><path d="m285.183 429.685c0-9.546.87-18.919 2.539-28.07l-62.923 13.473-3.301 9.431c-9.117 26.083 10.238 53.36 37.872 53.36h33.427c-4.954-15.353-7.614-31.509-7.614-48.194z" fill="#fd5f7e"/><path d="m491.419 415.089h-266.62l3.437-9.84c9.903-28.294 36.593-47.25 66.574-47.25h126.598c29.97 0 56.671 18.957 66.563 47.25z" fill="#f9f097"/><g fill="#fccb88"><path d="m64.44 249.159h-38.986c-14.058 0-25.454 11.396-25.454 25.453v7.508c0 14.058 11.396 25.454 25.454 25.454h28.627c.773-20.232 4.339-39.808 10.359-58.415z"/><path d="m302.462 357.999h-7.652c-29.981 0-56.671 18.957-66.574 47.25l-3.437 9.84h61.071c1.881-20.127 7.621-39.332 16.592-57.09z"/></g></g></svg>