<svg id="Capa_1" enable-background="new 0 0 512 512" height="512" viewBox="0 0 512 512" width="512" xmlns="http://www.w3.org/2000/svg"><g><path d="m10.302 324.479h20.604c5.69 0 10.302-4.612 10.302-10.302l10.301-58.177-10.302-55.143c0-5.69-4.612-10.302-10.302-10.302h-20.603c-5.69 0-10.302 4.612-10.302 10.302v113.32c0 5.689 4.612 10.302 10.302 10.302z" fill="#7b849b"/><path d="m104.404 98.897v-15.452c0-11.379 9.225-20.604 20.604-20.604h164.829c11.379 0 20.604 9.225 20.604 20.604v15.453l-106.693 20.604z" fill="#8991a6"/><path d="m481.095 284.33c0 5.687 10.302 20.604 10.302 20.604v72.576h-123.622v-13.207l-52.756 13.516c-88.06-35.819-193.241-124.539-92.51-278.922h98.887c17.328 0 32.811 10.837 38.725 27.125l32.018 88.07c1.175 3.214 3.863 5.645 7.181 6.48l68.672 17.163c13.753 3.441 23.406 15.803 23.406 29.978v1.164z" fill="#f77661"/><path d="m329.38 385.226-91.089 12.249-197.084-51.334v-145.287l24.251-80.014c3.956-13.032 15.968-21.943 29.576-21.943h127.475c-65.834 157.103 34.758 252.312 106.871 286.329z" fill="#f2614a"/><path d="m136.757 366.744h278.149v41.207h-278.149z" fill="#a7adbb"/><path d="m164.829 346.141v61.811h-92.716c-17.069 0-30.905-13.837-30.905-30.905v-30.905h123.621z" fill="#979fb1"/><path d="m512 366.744v20.604c0 11.379-9.225 20.604-20.604 20.604h-103.018v-61.811h103.018c11.379 0 20.604 9.224 20.604 20.603z" fill="#979fb1"/><g><circle cx="398.68" cy="387.348" fill="#6b7790" r="61.811"/><circle cx="398.68" cy="387.348" fill="#fff8e6" r="20.604"/></g><g><circle cx="142.68" cy="387.348" fill="#6b7790" r="61.811"/><circle cx="142.68" cy="387.348" fill="#fff8e6" r="20.604"/></g><path d="m247.759 255.619h-12.362c-4.268 0-7.726-3.459-7.726-7.726s3.459-7.726 7.726-7.726h12.362c4.268 0 7.726 3.459 7.726 7.726s-3.459 7.726-7.726 7.726z" fill="#fff8e6"/><g fill="#666667"><path d="m207.186 310.085c-4.268 0-7.726-3.459-7.726-7.726v-12.362c0-4.267 3.459-7.726 7.726-7.726 4.268 0 7.726 3.459 7.726 7.726v12.362c0 4.266-3.458 7.726-7.726 7.726z"/><path d="m335.853 310.085c-4.268 0-7.726-3.459-7.726-7.726v-12.362c0-4.267 3.459-7.726 7.726-7.726s7.726 3.459 7.726 7.726v12.362c0 4.266-3.458 7.726-7.726 7.726z"/><path d="m271.52 317.444c-8.734 0-17.04-3.783-22.787-10.378-2.804-3.217-2.468-8.098.749-10.901 3.216-2.803 8.098-2.468 10.9.749 2.812 3.226 6.871 5.077 11.137 5.077s8.324-1.851 11.136-5.077c2.802-3.218 7.684-3.552 10.9-.749 3.217 2.803 3.553 7.684.75 10.901-5.746 6.595-14.051 10.378-22.785 10.378z"/></g><path d="m491.396 304.934h-30.905c-5.69 0-10.302-4.612-10.302-10.302v-15.453c0-5.69 4.612-10.302 10.302-10.302h30.905z" fill="#f9ee80"/><g><path d="m342.422 216.987h-47.759c-32.041-12.689-42.155-37.921-42.155-64.531 0-6.15 5.633-11.791 12.239-17.884h55.208c4.337 0 8.211 2.709 9.684 6.779l22.468 61.811c2.44 6.727-2.536 13.825-9.685 13.825z" fill="#a4e7ff"/><path d="m294.663 216.987h-57.721c-5.687 0-10.302-4.615-10.302-10.302v-61.811c0-5.687 4.615-10.302 10.302-10.302h27.805c-1.267 5.748-1.937 11.734-1.937 17.884-.001 26.61 12.568 50.16 31.853 64.531z" fill="#83deff"/></g><g><path d="m185.433 144.874v61.811c0 5.697-4.615 10.302-10.302 10.302h-23.097c-35.875-9.023-50.077-30.576-50.077-52.498 0-10.827 14.202-22.718 28.485-29.916h44.689c5.686 0 10.302 4.615 10.302 10.301z" fill="#a4e7ff"/><path d="m152.034 216.987h-61.44c-6.747 0-11.672-6.367-9.972-12.898l16.112-61.811c1.185-4.533 5.285-7.706 9.972-7.706h23.735c-5.027 8.901-7.881 19.089-7.881 29.916.001 21.923 11.714 41.239 29.474 52.499z" fill="#83deff"/></g></g></svg>