<svg id="Capa_1" enable-background="new 0 0 497 497" height="512" viewBox="0 0 497 497" width="512" xmlns="http://www.w3.org/2000/svg"><g><g><g><path d="m487.153 236.305-65.975-65.975c-27.744-27.744-65.372-43.33-104.608-43.33h-136.14c-39.235 0-64.945 3.667-92.689 31.412l-77.893 77.893c-13.13 13.13-13.13 34.419 0 47.549l42.086 42.086c13.13 13.13 34.419 13.13 47.549 0l7.852-7.853v30.6 67.619c0 8.995 1.494 17.637 4.21 25.717 10.74 31.951 40.913 54.977 76.483 54.977h120.945c35.57 0 65.743-23.026 76.483-54.976 2.716-8.08 4.21-16.722 4.21-25.717v-67.619-30.6l7.853 7.853c13.13 13.13 34.418 13.13 47.549 0l42.086-42.086c13.129-13.13 13.129-34.42-.001-47.55z" fill="#c9aaf2"/><path d="m180.43 127c-39.236 0-64.946 3.667-92.689 31.412l-77.893 77.893c-13.13 13.13-13.13 34.419 0 47.549l42.086 42.086c13.13 13.13 34.419 13.13 47.549 0l7.853-7.853v30.6 67.619c0 8.995 1.494 17.637 4.21 25.717 10.739 31.952 40.912 54.977 76.481 54.977h50.462c-21.963-22.947-34.223-53.485-34.223-85.249v-88.678c0-31.465 16.888-60.509 44.233-76.073 0-5.09 0-114.853 0-120z" fill="#b28ae4"/></g></g><g fill="#ff8e9e"><path d="m168.944 323.219c-16.212 0-29.355 10.466-29.355 23.377s13.142 23.376 29.355 23.376c16.212 0 29.355-10.466 29.355-23.376s-13.143-23.377-29.355-23.377z"/><path d="m328.057 323.219c-16.212 0-29.355 10.466-29.355 23.377s13.143 23.376 29.355 23.376 29.355-10.466 29.355-23.376-13.143-23.377-29.355-23.377z"/></g><g fill="#313d40"><path d="m186.051 304.592c-4.143 0-7.5 3.357-7.5 7.5v12c0 4.143 3.357 7.5 7.5 7.5s7.5-3.357 7.5-7.5v-12c0-4.143-3.357-7.5-7.5-7.5z"/><path d="m310.948 304.592c-4.143 0-7.5 3.357-7.5 7.5v12c0 4.143 3.357 7.5 7.5 7.5s7.5-3.357 7.5-7.5v-12c0-4.143-3.357-7.5-7.5-7.5z"/><path d="m269.891 318.08c-3.122-2.722-7.861-2.396-10.581.728-2.729 3.132-6.669 4.928-10.81 4.928s-8.08-1.796-10.81-4.928c-2.721-3.124-7.459-3.448-10.581-.728-3.123 2.721-3.449 7.459-.728 10.581 5.578 6.402 13.641 10.074 22.118 10.074 8.478 0 16.54-3.672 22.118-10.074 2.723-3.122 2.397-7.86-.726-10.581z"/></g><path d="m335.996 183.565c0-14.671-11.893-26.565-26.565-26.565h-121.861c-14.671 0-26.565 11.894-26.565 26.565 0 7.627 3.278 14.885 8.999 19.928l27.5 24.24c29.144 25.689 72.847 25.689 101.992 0l27.5-24.24c5.722-5.043 9-12.302 9-19.928z" fill="#976bcf"/><g><path d="m296.662 45c14.15 0 25.662 11.512 25.662 25.662 0 12.427 10.073 22.5 22.5 22.5s22.5-10.073 22.5-22.5c0-38.963-31.699-70.662-70.662-70.662s-70.662 31.699-70.662 70.662v95.94l-50.031 42.149 21.535 18.982c4.394 3.873 9.113 7.159 14.069 9.864l36.927-31.11 36.918 31.102c4.956-2.705 9.685-5.983 14.078-9.856l21.535-18.982-50.031-42.149v-95.94c0-14.15 11.512-25.662 25.662-25.662z" fill="#ffb357"/></g></g></svg>