<svg id="Capa_1" enable-background="new 0 0 512 512" height="512" viewBox="0 0 512 512" width="512" xmlns="http://www.w3.org/2000/svg"><g><g><g><path d="m411.103 473.224v14.021c0 13.67-11.085 24.754-24.754 24.754-8.696 0-16.762-4.56-21.228-12.015l-16.058-26.76c21.419-7.247 42.215-8.378 62.04 0z" fill="#7077cb"/><path d="m166.113 4.544 52.807 52.807c-2.848 10.43-9.699 18.466-21.973 21.9l-52.776-52.776c-6.021-6.021-6.083-15.848 0-21.932 6.059-6.058 15.882-6.058 21.942.001z" fill="#d8ecfe"/><path d="m367.829 4.544c6.021 6.021 6.084 15.848 0 21.932l-52.776 52.776c-14.445-3.387-21.962-10.884-21.973-21.9l52.807-52.807c6.06-6.06 15.883-6.06 21.942-.001z" fill="#d8ecfe"/><path d="m315.053 79.252c4.146 6.576 7.238 13.908 9.006 21.725-44.543 16.697-89.977 15.473-136.118 0 1.768-7.817 4.86-15.148 9.006-21.725 5.594-8.841 13.111-16.337 21.973-21.9 10.733-6.752 23.452-10.661 37.08-10.661s26.347 3.909 37.08 10.661c8.862 5.563 16.379 13.06 21.973 21.9z" fill="#eaf6ff"/><path d="m431.525 473.224c44.401 0 80.395-35.994 80.395-80.395v-211.457c0-44.401-35.994-80.395-80.395-80.395-46.868 0-191.234 0-248.119 0-54.661 124.326-28.062 267.269 109.91 372.247z" fill="#8288cb"/><path d="m183.406 100.977h-102.931c-44.401 0-80.395 35.994-80.395 80.395v211.457c0 32.303 19.047 60.159 46.531 72.929l116.327 7.466h130.378c-36.434-49.045-67.011-110.321-87.085-179.575-19.458-67.127-26.557-133.191-22.825-192.672z" fill="#7077cb"/><ellipse cx="453.756" cy="391.795" fill="#80d261" rx="19.388" ry="19.388" transform="matrix(.924 -.383 .383 .924 -115.393 203.468)"/><ellipse cx="453.756" cy="321.999" fill="#fe7d43" rx="19.388" ry="19.388" transform="matrix(.924 -.383 .383 .924 -88.684 198.156)"/><path d="m279.265 147.508h-58.164c-12.788 57.416-10.651 122.139 0 191.031 6.419 47.983 20.639 76.982 41.595 88.154h16.569c18.42-93.061 18.42-186.123 0-279.185z" fill="#eaf6ff"/><path d="m221.102 338.539v-191.031h-38.429c-13.846 68.689-1.281 134.971 38.429 191.031z" fill="#d8ecfe"/><path d="m221.102 426.693h41.595c-15.724-26.987-29.763-56.53-41.595-88.154-7.415 32.846-9.825 63.356 0 88.154z" fill="#d8ecfe"/><path d="m182.673 147.508h-19.735c-17.109 8.017-19.427 264.768 0 279.185h58.164v-88.154c-22.483-60.093-36.474-126.02-38.429-191.031z" fill="#c4e2ff"/><path d="m104.775 147.508c-10.66 45.23-12.089 89.348 0 131.838l58.164 33.171v-165.009z" fill="#d8ecfe"/><path d="m83.319 147.508c-20.277 0-36.708 16.431-36.708 36.708v128.301c23.466 2.675 42.854-8.382 58.164-33.171v-131.838z" fill="#c4e2ff"/><path d="m395.593 184.216v205.77c0 20.277-16.431 36.708-36.708 36.708h-21.456c-26.885-88.926-26.885-181.988 0-279.185h21.456c20.277-.001 36.708 16.43 36.708 36.707z" fill="#eaf6ff"/><g fill="#7077cb"><path d="m473.144 271.59h-38.776c-4.283 0-7.755-3.472-7.755-7.755s3.472-7.755 7.755-7.755h38.776c4.283 0 7.755 3.472 7.755 7.755 0 4.284-3.472 7.755-7.755 7.755z"/><path d="m473.144 232.815h-38.776c-4.283 0-7.755-3.472-7.755-7.755s3.472-7.755 7.755-7.755h38.776c4.283 0 7.755 3.472 7.755 7.755 0 4.282-3.472 7.755-7.755 7.755z"/><path d="m473.144 194.039h-38.776c-4.283 0-7.755-3.472-7.755-7.755s3.472-7.755 7.755-7.755h38.776c4.283 0 7.755 3.472 7.755 7.755s-3.472 7.755-7.755 7.755z"/></g><path d="m279.265 147.508h58.164v279.185h-58.164z" fill="#d8ecfe"/><path d="m162.938 478.829c0-16.624 0-140.816 0-166.312 0-18.323-14.848-33.171-33.171-33.171-7.97 0-26.279 0-34.427 0-36.108 60.779-28.081 167.329 27.111 232.654h7.316c18.323 0 33.171-14.849 33.171-33.171z" fill="#ffd15b"/><path d="m95.34 279.346h-15.558c-18.323 0-33.171 14.848-33.171 33.171v166.312c0 18.322 14.849 33.171 33.171 33.171h42.668c-38.384-67.483-50.29-173.512-27.11-232.654z" fill="#ffc344"/><path d="m85.387 480.979h-7.755c-4.283 0-7.755-3.472-7.755-7.755s3.472-7.755 7.755-7.755h7.755c4.283 0 7.755 3.472 7.755 7.755s-3.472 7.755-7.755 7.755z" fill="#feb237"/><path d="m131.918 480.979h-7.755c-4.283 0-7.755-3.472-7.755-7.755s3.472-7.755 7.755-7.755h7.755c4.283 0 7.755 3.472 7.755 7.755s-3.472 7.755-7.755 7.755z" fill="#ffc344"/><path d="m85.387 442.204h-7.755c-4.283 0-7.755-3.472-7.755-7.755 0-4.284 3.472-7.755 7.755-7.755h7.755c4.283 0 7.755 3.472 7.755 7.755s-3.472 7.755-7.755 7.755z" fill="#feb237"/><path d="m131.918 442.204h-7.755c-4.283 0-7.755-3.472-7.755-7.755 0-4.284 3.472-7.755 7.755-7.755h7.755c4.283 0 7.755 3.472 7.755 7.755s-3.472 7.755-7.755 7.755z" fill="#ffc344"/><path d="m85.387 403.428h-7.755c-4.283 0-7.755-3.472-7.755-7.755s3.472-7.755 7.755-7.755h7.755c4.283 0 7.755 3.472 7.755 7.755s-3.472 7.755-7.755 7.755z" fill="#feb237"/><path d="m131.918 403.428h-7.755c-4.283 0-7.755-3.472-7.755-7.755s3.472-7.755 7.755-7.755h7.755c4.283 0 7.755 3.472 7.755 7.755s-3.472 7.755-7.755 7.755z" fill="#ffc344"/><path d="m85.387 364.652h-7.755c-4.283 0-7.755-3.472-7.755-7.755 0-4.284 3.472-7.755 7.755-7.755h7.755c4.283 0 7.755 3.472 7.755 7.755 0 4.284-3.472 7.755-7.755 7.755z" fill="#feb237"/><path d="m131.918 364.652h-7.755c-4.283 0-7.755-3.472-7.755-7.755 0-4.284 3.472-7.755 7.755-7.755h7.755c4.283 0 7.755 3.472 7.755 7.755 0 4.284-3.472 7.755-7.755 7.755z" fill="#ffc344"/><path d="m131.918 325.876h-7.755c-4.283 0-7.755-3.472-7.755-7.755s3.472-7.755 7.755-7.755h7.755c4.283 0 7.755 3.472 7.755 7.755s-3.472 7.755-7.755 7.755z" fill="#ffc344"/></g></g></g></svg>