<svg height="512pt" viewBox="-86 0 512 512" width="512pt" xmlns="http://www.w3.org/2000/svg"><path d="m273.546875 492.222656h-206.101563l20.359376-158.105468h165.382812zm0 0" fill="#d0d1d2"/><path d="m28.453125 19.777344h284.082031v196.613281h-284.082031zm0 0" fill="#f2f3f3"/><path d="m28.453125 19.777344h40.71875v196.613281h-40.71875zm0 0" fill="#e8e9ea"/><path d="m306.964844 39.554688h-272.9375c-10.921875 0-19.777344-8.855469-19.777344-19.777344s8.855469-19.777344 19.777344-19.777344h272.9375c10.921875 0 19.777344 8.855469 19.777344 19.777344s-8.855469 19.777344-19.777344 19.777344zm0 0" fill="#6cb6de"/><path d="m76.0625 19.777344c0-10.921875 8.855469-19.777344 19.777344-19.777344h-61.8125c-10.921875 0-19.777344 8.855469-19.777344 19.777344s8.855469 19.777344 19.777344 19.777344h61.8125c-10.921875 0-19.777344-8.855469-19.777344-19.777344zm0 0" fill="#61a3c7"/><path d="m280.9375 512h-220.882812c-4.214844 0-7.632813-3.417969-7.632813-7.632812v-24.289063c0-4.214844 3.417969-7.632813 7.632813-7.632813h220.882812c4.214844 0 7.632812 3.417969 7.632812 7.632813v24.289063c0 4.214843-3.417968 7.632812-7.632812 7.632812zm0 0" fill="#f2f3f3"/><path d="m93.628906 504.367188v-24.289063c0-4.214844 3.417969-7.632813 7.632813-7.632813h-41.207031c-4.214844 0-7.632813 3.417969-7.632813 7.632813v24.289063c0 4.214843 3.417969 7.632812 7.632813 7.632812h41.207031c-4.214844 0-7.632813-3.417969-7.632813-7.632812zm0 0" fill="#e8e9ea"/><path d="m170.496094 410.460938c-85.601563 0-154.996094-69.394532-154.996094-154.996094v-9.816406c0-3.652344 2.964844-6.617188 6.617188-6.617188h296.753906c3.65625 0 6.621094 2.960938 6.621094 6.617188v9.816406c0 85.601562-69.394532 154.996094-154.996094 154.996094zm0 0" fill="#f2f3f3"/><path d="m318.871094 239.03125h-296.753906c-3.652344 0-6.617188 2.960938-6.617188 6.617188v9.816406c0 1.355468.015625 2.710937.050781 4.0625.007813.277344.023438.550781.03125.824218.035157 1.082032.070313 2.160157.128907 3.234376.011718.230468.03125.460937.042968.6875.0625 1.125.132813 2.246093.21875 3.363281.011719.15625.03125.308593.042969.46875.09375 1.191406.203125 2.382812.324219 3.566406.007812.070313.019531.144531.027344.214844.132812 1.269531.28125 2.53125.445312 3.789062 0 .019531.003906.039063.007812.054688.515626 3.957031 1.183594 7.863281 1.992188 11.71875v.003906c14.742188 70.25 77.046875 123.007813 151.683594 123.007813 8.667968 0 17.164062-.726563 25.445312-2.09375-63.015625-10.410157-113.207031-58.824219-126.238281-120.914063h252.476563c2.164062-10.324219 3.3125-21.023437 3.3125-31.988281v-9.816406c0-3.65625-2.964844-6.617188-6.621094-6.617188zm0 0" fill="#e8e9ea"/><path d="m307.386719 147.890625v-80.707031h21.597656c5.191406 0 9.402344 4.210937 9.402344 9.402344v40.300781c0 17.125-13.878907 31.003906-31 31.003906zm0 0" fill="#ffce71"/><path d="m312.929688 267.09375h-284.867188c-15.5 0-28.0625-12.5625-28.0625-28.0625s12.5625-28.0625 28.0625-28.0625h284.867188c15.5 0 28.0625 12.5625 28.0625 28.0625s-12.566407 28.0625-28.0625 28.0625zm0 0" fill="#6cb6de"/><path d="m72.113281 239.03125c0-15.5 12.5625-28.0625 28.0625-28.0625h-72.113281c-15.5 0-28.0625 12.5625-28.0625 28.0625s12.5625 28.0625 28.0625 28.0625h72.113281c-15.5 0-28.0625-12.5625-28.0625-28.0625zm0 0" fill="#61a3c7"/><g fill="#4a5359"><path d="m125.769531 131.582031c-2.597656 0-5.121093-1.351562-6.507812-3.761719-1.925781-3.347656-5.515625-5.429687-9.367188-5.429687-3.855469 0-7.441406 2.082031-9.367187 5.429687-2.066406 3.589844-6.652344 4.828126-10.242188 2.761719-3.589844-2.066406-4.828125-6.648437-2.761718-10.238281 4.59375-7.988281 13.164062-12.949219 22.371093-12.949219s17.777344 4.960938 22.371094 12.949219c2.0625 3.589844.828125 8.171875-2.761719 10.238281-1.179687.675781-2.464844 1-3.734375 1zm0 0"/><path d="m175.507812 155.496094c-9.785156 0-17.71875-7.933594-17.71875-17.71875v-13.289063h35.433594v13.289063c0 9.785156-7.933594 17.71875-17.714844 17.71875zm0 0"/><path d="m241.117188 132.835938c-4.144532 0-7.5-3.359376-7.5-7.5v-11.699219c0-4.140625 3.355468-7.5 7.5-7.5 4.144531 0 7.5 3.359375 7.5 7.5v11.699219c0 4.140624-3.355469 7.5-7.5 7.5zm0 0"/></g><path d="m246.96875 154.949219h-11.699219c-4.144531 0-7.5-3.359375-7.5-7.5s3.355469-7.5 7.5-7.5h11.699219c4.140625 0 7.5 3.359375 7.5 7.5s-3.359375 7.5-7.5 7.5zm0 0" fill="#f27f6f"/><path d="m115.742188 154.949219h-11.695313c-4.144531 0-7.5-3.359375-7.5-7.5s3.355469-7.5 7.5-7.5h11.695313c4.144531 0 7.5 3.359375 7.5 7.5s-3.355469 7.5-7.5 7.5zm0 0" fill="#f27f6f"/></svg>