<svg id="Capa_1" enable-background="new 0 0 512.154 512.154" height="512" viewBox="0 0 512.154 512.154" width="512" xmlns="http://www.w3.org/2000/svg"><g><path d="m90.916 372.799v-100.129h-33.032v102.194c0 25.655 20.797 46.452 46.452 46.452h44.387v-33.032h-42.323c-8.552-.001-15.484-6.933-15.484-15.485z" fill="#ffeab7"/><path d="m197.467 18.606 52.363 226.808c2.982 12.915-5.071 25.802-17.986 28.784l-1.509.348c-12.915 2.982-25.802-5.071-28.784-17.986l-52.362-226.808c-2.982-12.915 5.071-25.802 17.986-28.784l1.509-.348c12.914-2.981 25.801 5.071 28.783 17.986z" fill="#666667"/><path d="m394.807 485.714c9.75 9.76 2.84 26.44-10.95 26.44h-247.49c-12.37 0-19.75-13.78-12.88-24.07 5.54-8.3 9.78-17.34 12.64-26.79 1.5-4.95 2.61-10.01 3.34-15.14.66-4.67 1-9.41 1-14.17v-41.96c0-38.83-11.49-79.88-33.04-112.19h338.59s6.87 87.49-63.48 148.39c-6.15 5.33-9.71 12.49-10.6 19.93-1.08 9.05 1.81 18.5 8.82 25.51z" fill="#a4e7ff"/><path d="m256.037 512.154h-119.67c-12.37 0-19.75-13.78-12.88-24.07 5.54-8.3 9.78-17.34 12.64-26.79 1.5-4.95 2.61-10.01 3.34-15.14.66-4.67 1-9.41 1-14.17v-41.96c0-38.83-11.49-79.88-33.04-112.19h77.15s33.67 84.23 20.6 143.48c-2.02 9.16-2.89 17.41-2.85 24.84.27 56.85 53.71 66 53.71 66z" fill="#83deff"/><path d="m383.857 512.154h-247.49c-12.37 0-19.75-13.78-12.88-24.07 5.54-8.3 9.78-17.34 12.64-26.79 1.5-4.95 2.61-10.01 3.34-15.14h232.47c-1.08 9.05 1.81 18.5 8.82 25.51l14.05 14.05c9.75 9.76 2.84 26.44-10.95 26.44z" fill="#83deff"/><path d="m256.037 512.154h-119.67c-12.37 0-19.75-13.78-12.88-24.07 5.54-8.3 9.78-17.34 12.64-26.79 1.5-4.95 2.61-10.01 3.34-15.14h62.86c.27 56.85 53.71 66 53.71 66z" fill="#5ad6ff"/><path d="m479.045 256.154c0 6.834-2.777 13.027-7.257 17.517-4.49 4.48-10.684 7.257-17.517 7.257h-396.387c-13.677 0-24.774-11.097-24.774-24.774v-24.774h421.161c13.677 0 24.774 11.097 24.774 24.774z" fill="#5ad6ff"/><path d="m148.722 31.122v169.29c0 17.104-13.863 30.968-30.968 30.968h-84.645v-200.258c0-17.104 13.863-30.968 30.968-30.968h53.677c17.105 0 30.968 13.864 30.968 30.968z" fill="#a4e7ff"/><ellipse cx="202.358" cy="358.164" fill="#fff" rx="30.715" ry="24.46"/><ellipse cx="368.845" cy="358.308" fill="#fff" rx="30.715" ry="24.46"/><g fill="#4e5660"><path d="m220.28 342.22c-.002 0-.004 0-.006 0-4.275-.003-7.739-3.472-7.736-7.747l.009-12.26c.003-4.274 3.469-7.736 7.742-7.736h.006c4.275.003 7.739 3.472 7.736 7.747l-.009 12.26c-.003 4.273-3.469 7.736-7.742 7.736z"/><path d="m350.965 342.348c-.002 0-.004 0-.006 0-4.276-.004-7.739-3.473-7.736-7.748l.01-12.26c.003-4.273 3.47-7.735 7.742-7.735h.006c4.276.004 7.739 3.473 7.736 7.748l-.01 12.26c-.003 4.272-3.47 7.735-7.742 7.735z"/><path d="m302.845 347.741c-.002 0-.004 0-.007 0l-34.456-.03c-4.275-.004-7.739-3.473-7.735-7.749.004-4.274 3.469-7.735 7.742-7.735h.007l34.456.03c4.275.004 7.739 3.473 7.735 7.748s-3.47 7.736-7.742 7.736z"/></g><path d="m111.814 65.083c4.999-14.998-5.41-31.096-21.199-31.897-.423-.021-.85-.032-1.278-.032s-.855.011-1.278.032c-15.789.8-26.198 16.899-21.199 31.897l11.579 34.736c1.564 4.691 5.954 7.855 10.898 7.855 4.945 0 9.335-3.164 10.898-7.855z" fill="#5ad6ff"/></g></svg>