<svg height="512pt" viewBox="0 -18 512 512" width="512pt" xmlns="http://www.w3.org/2000/svg"><path d="m87.550781 0h336.898438v363.21875h-336.898438zm0 0" fill="#e8e9ea"/><path d="m175.101562 181.609375c0-100.300781-39.199218-181.609375-87.550781-181.609375-48.351562 0-87.550781 81.308594-87.550781 181.609375s39.199219 181.609375 87.550781 181.609375c48.351563 0 87.550781-81.308594 87.550781-181.609375zm0 0" fill="#d0d1d2"/><path d="m115.621094 181.609375c0-32.160156-12.566406-58.230469-28.070313-58.230469-15.503906 0-28.074219 26.070313-28.074219 58.230469s12.570313 58.234375 28.074219 58.234375c15.503907 0 28.070313-26.074219 28.070313-58.234375zm0 0" fill="#4a5359"/><path d="m84.703125 181.609375c0-22.75 6.292969-42.4375 15.460937-52.019531-3.792968-3.964844-8.074218-6.210938-12.613281-6.210938-15.503906 0-28.070312 26.070313-28.070312 58.230469s12.566406 58.234375 28.070312 58.234375c4.539063 0 8.820313-2.25 12.613281-6.214844-9.167968-9.582031-15.460937-29.269531-15.460937-52.019531zm0 0" fill="#363f44"/><path d="m512 181.609375c0-100.300781-39.199219-181.609375-87.550781-181.609375h-336.898438c48.351563 0 87.550781 81.308594 87.550781 181.609375v270.84375c0 13.421875 10.878907 24.300781 24.296876 24.300781h288.300781c13.421875 0 24.300781-10.882812 24.300781-24.300781zm0 0" fill="#f2f3f3"/><g fill="#e8e9ea"><path d="m190.554688 123.378906c0 4.265625-3.460938 7.726563-7.726563 7.726563h-11.15625c-.734375-5.253907-1.578125-10.40625-2.527344-15.453125h13.683594c4.261719 0 7.726563 3.460937 7.726563 7.726562zm0 0"/><path d="m467.992188 115.652344h-15.84375c-4.265626 0-7.726563 3.460937-7.726563 7.726562s3.460937 7.726563 7.726563 7.726563h15.84375c4.265624 0 7.726562-3.460938 7.726562-7.726563s-3.460938-7.726562-7.726562-7.726562zm-47.523438 0h-15.84375c-4.277344 0-7.726562 3.460937-7.726562 7.726562s3.449218 7.726563 7.726562 7.726563h15.84375c4.265625 0 7.726562-3.460938 7.726562-7.726563s-3.460937-7.726562-7.726562-7.726562zm-47.53125 0h-15.84375c-4.265625 0-7.726562 3.460937-7.726562 7.726562s3.460937 7.726563 7.726562 7.726563h15.84375c4.261719 0 7.722656-3.460938 7.722656-7.726563s-3.460937-7.726562-7.722656-7.726562zm-47.523438 0h-15.84375c-4.265624 0-7.726562 3.460937-7.726562 7.726562s3.460938 7.726563 7.726562 7.726563h15.84375c4.265626 0 7.726563-3.460938 7.726563-7.726563s-3.460937-7.726562-7.726563-7.726562zm-47.53125 0h-15.847656c-4.261718 0-7.722656 3.460937-7.722656 7.726562s3.460938 7.726563 7.722656 7.726563h15.847656c4.261719 0 7.722657-3.460938 7.722657-7.726563s-3.460938-7.726562-7.722657-7.726562zm-47.523437 0h-15.84375c-4.265625 0-7.726563 3.460937-7.726563 7.726562s3.460938 7.726563 7.726563 7.726563h15.84375c4.265625 0 7.726563-3.460938 7.726563-7.726563s-3.460938-7.726562-7.726563-7.726562zm0 0"/><path d="m508.570312 131.105469h-8.890624c-4.265626 0-7.726563-3.460938-7.726563-7.726563s3.460937-7.726562 7.726563-7.726562h6.367187c.945313 5.046875 1.792969 10.199218 2.523437 15.453125zm0 0"/></g><path d="m343.550781 385.722656c-9.785156 0-17.71875-7.929687-17.71875-17.714844v-13.289062h35.4375v13.289062c0 9.785157-7.933593 17.714844-17.71875 17.714844zm0 0" fill="#4a5359"/><path d="m409.160156 363.0625c-4.140625 0-7.5-3.355469-7.5-7.5v-11.699219c0-4.140625 3.359375-7.5 7.5-7.5 4.144532 0 7.5 3.359375 7.5 7.5v11.699219c0 4.144531-3.355468 7.5-7.5 7.5zm0 0" fill="#4a5359"/><path d="m277.9375 363.0625c-4.140625 0-7.5-3.355469-7.5-7.5v-11.699219c0-4.140625 3.359375-7.5 7.5-7.5 4.144531 0 7.5 3.359375 7.5 7.5v11.699219c0 4.144531-3.355469 7.5-7.5 7.5zm0 0" fill="#4a5359"/><path d="m415.011719 385.175781h-11.699219c-4.140625 0-7.5-3.355469-7.5-7.5s3.359375-7.5 7.5-7.5h11.699219c4.140625 0 7.5 3.355469 7.5 7.5s-3.359375 7.5-7.5 7.5zm0 0" fill="#f27f6f"/><path d="m283.789062 385.175781h-11.699218c-4.144532 0-7.5-3.355469-7.5-7.5s3.355468-7.5 7.5-7.5h11.699218c4.140626 0 7.5 3.355469 7.5 7.5s-3.359374 7.5-7.5 7.5zm0 0" fill="#f27f6f"/></svg>