<svg id="Capa_1" enable-background="new 0 0 512 512" height="512" viewBox="0 0 512 512" width="512" xmlns="http://www.w3.org/2000/svg"><g><g><g><path d="m178.424 465.051c9.997-2.311 22.432-10.715 46.546.403v23.273c0 12.857-10.416 23.273-23.273 23.273-12.841 0-23.273-10.406-23.273-23.273z" fill="#453b5e"/><path d="m180.884 170.667c-37.997 103.231-10.829 211.552 58.773 294.788h64.843l75.776-75.579 43.163-219.539c-40.36-8.69-140.226-38.565-242.555.33z" fill="#00ec8e"/><path d="m180.884 170.667c-47.134-23.907-75.832-6.392-92.706-.393l47.859 254.769c4.436 23.585 25.014 40.412 48.707 40.412h54.913c-52.279-85.056-75.006-193.842-58.773-294.788z" fill="#0eda73"/><path d="m418.909 58.782c0-32.458-26.324-58.782-58.782-58.782h-18.794l-81.736 8.792c-44.038 19.589-71.399 44.42-63.319 99.814 67.152 21.704 142.918 16.92 222.63 0v-49.824z" fill="#0eda73"/><path d="m170.667 0h-18.794c-32.458 0-58.782 26.324-58.782 58.782v49.824c33.483 14.857 67.926 14.104 103.188 0 5.044-14.721 10.491-28.014 16.619-40.342l4.142-54.99z" fill="#01bf73"/><path d="m313.065 294.788h-5.523c-17.749 0-32.147 14.398-32.147 32.147v59.826c0 17.749 14.398 32.147 32.147 32.147h3.3c.01 0 .01-.01.01-.01l34.071-27.834c.514-3.676.196-.917.29-64.129-.001-17.749-14.399-32.147-32.148-32.147z" fill="#0eda73"/><path d="m320.502 226.728c5.11-3.031 11.46-4.83 18.328-4.81 16.87.031 30.523 10.954 30.492 24.38-.031 13.436-13.736 24.297-30.596 24.266-16.87-.041-30.523-10.964-30.492-24.39.021-7.965 4.841-15.019 12.268-19.446z" fill="#fff"/><path d="m236.606 386.762v-59.826c0-17.749-14.398-32.147-32.147-32.147h-5.523c-6.859 0-13.213 2.157-18.433 5.82-.741 48.741 11.343 87.272 33.818 116.753 12.926-4.167 22.285-16.292 22.285-30.6z" fill="#0eda73"/><path d="m180.502 300.608c-8.289 5.815-13.714 15.437-13.714 26.328v59.826c0 17.749 14.398 32.147 32.147 32.147 3.803-.169 8.603.637 15.385-1.548-16.497-36.951-27.842-76.404-33.818-116.753z" fill="#01bf73"/><path d="m449.939 139.636c0-17.139-13.891-31.03-31.03-31.03h-222.63c-25.118 15.98-35.54 35.695-15.395 62.061h238.025c17.101 0 31.03-13.876 31.03-31.031z" fill="#5c547e"/><path d="m93.091 108.606c-17.128 0-31.03 13.901-31.03 31.03 0 17.275 14.037 31.03 31.03 31.03h87.793c3.471-21.583 8.645-42.361 15.395-62.061h-103.188z" fill="#453b5e"/><path d="m286.254 69.818c30.42 0 55.079-24.659 55.079-55.079v-14.739h-81.736c-37.177 12.681-51.769 36.115-46.582 68.323 4.088.968 8.346 1.495 12.73 1.495z" fill="#453b5e"/><path d="m170.667 0v14.739c0 26.036 18.07 47.837 42.349 53.584 12.675-25.613 28.321-48.658 46.582-68.323z" fill="#392e4d"/><path d="m191.322 226.304c7.561 4.437 12.464 11.585 12.443 19.632-.031 13.436-13.726 24.297-30.596 24.266-16.87-.041-30.523-10.964-30.492-24.39.031-13.436 13.736-24.297 30.596-24.266 6.754.021 13.002 1.779 18.049 4.758z" fill="#fff"/><g fill="#293345"><path d="m191.323 207.582c-4.284 0-7.757 3.473-7.757 7.758v12.412c0 4.284 3.473 7.758 7.757 7.758s7.758-3.473 7.758-7.758v-12.412c-.001-4.284-3.474-7.758-7.758-7.758z"/><path d="m320.501 207.582c-4.284 0-7.758 3.473-7.758 7.758v12.412c0 4.284 3.473 7.758 7.758 7.758 4.284 0 7.758-3.473 7.758-7.758v-12.412c0-4.284-3.473-7.758-7.758-7.758z"/><path d="m286.006 227.4c-4.284 0-7.758 3.473-7.758 7.758 0 3.97-3.229 7.199-7.199 7.199-3.964 0-7.188-3.229-7.188-7.199 0-4.284-3.473-7.758-7.758-7.758-4.284 0-7.757 3.473-7.757 7.758 0 3.97-3.229 7.199-7.199 7.199s-7.199-3.229-7.199-7.199c0-4.284-3.473-7.758-7.758-7.758s-7.758 3.473-7.758 7.758c0 12.525 10.189 22.714 22.714 22.714 5.724 0 10.956-2.133 14.955-5.639 3.997 3.507 9.227 5.639 14.948 5.639 12.525 0 22.714-10.189 22.714-22.714.001-4.284-3.473-7.758-7.757-7.758z"/></g><path d="m344.922 391.065c-14.46 4.83-26.552 14.843-34.071 27.834 0 0 0 .01-.01.01-8.301 14.401-10.293 31.123-6.341 46.545 6.889 26.769 31.186 46.546 60.106 46.546 34.278 0 62.061-27.782 62.061-62.061 0-42.305-41.538-72.275-81.745-58.874z" fill="#5c547e"/><ellipse cx="364.606" cy="449.939" fill="#eeecff" rx="23.273" ry="23.273" transform="matrix(.924 -.383 .383 .924 -144.431 173.778)"/></g></g></g></svg>