<?xml version="1.0" encoding="iso-8859-1"?>
<!-- Generator: Adobe Illustrator 19.0.0, SVG Export Plug-In . SVG Version: 6.00 Build 0)  -->
<svg version="1.1" id="Capa_1" xmlns="http://www.w3.org/2000/svg" xmlns:xlink="http://www.w3.org/1999/xlink" x="0px" y="0px"
	 viewBox="0 0 512 512" style="enable-background:new 0 0 512 512;" xml:space="preserve">
<path style="fill:#80D3AE;" d="M430.251,160.755c0-22.904-11.152-43.198-28.321-55.76c-7.077-5.178-11.075-13.641-10.729-22.404
	c0.564-14.289-4.604-28.76-15.514-39.67c-13.778-13.778-33.234-18.402-50.831-13.883c-10.165,2.61-20.929-0.719-28.262-8.228
	C284.057,7.972,266.559,0,247.196,0c-25.634,0-47.997,13.969-59.909,34.708c-6.036,10.509-16.755,17.59-28.763,19.23
	c-14.415,1.969-28.326,8.489-39.409,19.571c-20.911,20.911-25.607,51.895-14.09,77.332c4.881,10.781,3.031,23.341-4.689,32.311
	c-11.352,13.191-18.306,30.271-18.579,48.976c-0.624,42.929,35.147,78.061,78.08,78.061h22.262c8.296,0,16.353,2.707,23.005,7.664
	c16.28,12.132,36.454,19.323,58.319,19.323c22.621,0,43.435-7.694,59.996-20.596c8.534-6.649,19.046-10.25,29.865-10.25l0,0
	c33.539,0,61.728-26.241,62.948-59.758c0.275-7.546-0.799-14.806-2.999-21.557c-2.579-7.915-1.325-16.668,3.611-23.372
	C425.271,190.197,430.251,176.059,430.251,160.755z"/>
<path style="fill:#60C28E;" d="M353.284,306.33L353.284,306.33c25.539,0,47.961-15.223,57.75-37.28
	c-46.849,24.371-109.683-14.917-127.179-43.268c-5.347-8.665-14.165-14.537-24.133-16.613
	c-79.263-16.511-95.698-104.547-89.454-158.765c-3.675,1.758-7.631,2.973-11.745,3.535c-14.415,1.969-28.326,8.489-39.409,19.571
	c-20.911,20.911-25.607,51.895-14.09,77.332c4.881,10.781,3.031,23.341-4.689,32.311c-11.352,13.191-18.306,30.271-18.578,48.976
	c-0.624,42.929,35.147,78.061,78.081,78.061H182.1c8.296,0,16.353,2.707,23.005,7.664c16.28,12.132,36.454,19.323,58.319,19.323
	c22.621,0,43.435-7.694,59.995-20.596C331.953,309.931,342.465,306.33,353.284,306.33z"/>
<g>
	<ellipse style="fill:#FFFFFF;" cx="187.25" cy="114.67" rx="28.11" ry="22.383"/>
	<ellipse style="fill:#FFFFFF;" cx="339.6" cy="114.67" rx="28.11" ry="22.383"/>
</g>
<g>
	<path style="fill:#495059;" d="M203.63,99.846c-4.142,0-7.5-3.358-7.5-7.5v-9.925c0-4.142,3.358-7.5,7.5-7.5s7.5,3.358,7.5,7.5
		v9.925C211.13,96.488,207.773,99.846,203.63,99.846z"/>
	<path style="fill:#495059;" d="M323.216,99.846c-4.142,0-7.5-3.358-7.5-7.5v-9.925c0-4.142,3.358-7.5,7.5-7.5s7.5,3.358,7.5,7.5
		v9.925C330.716,96.488,327.358,99.846,323.216,99.846z"/>
	<path style="fill:#495059;" d="M263.423,107.468c-8.209,0-16.017-3.555-21.418-9.754c-2.721-3.123-2.396-7.86,0.727-10.582
		s7.86-2.396,10.582,0.727c2.553,2.929,6.237,4.609,10.11,4.609c3.872,0,7.557-1.68,10.11-4.609
		c2.722-3.123,7.458-3.448,10.582-0.726c3.123,2.721,3.448,7.459,0.726,10.582C279.439,103.913,271.632,107.468,263.423,107.468z"/>
</g>
<g>
	<path style="fill:#946450;" d="M263.422,279.851c-0.889,0-1.793-0.159-2.672-0.495l-112.307-42.852
		c-3.87-1.477-5.81-5.811-4.333-9.681c1.476-3.87,5.809-5.811,9.681-4.333l112.307,42.852c3.87,1.477,5.81,5.811,4.333,9.681
		C269.29,278.013,266.442,279.851,263.422,279.851z"/>
	<path style="fill:#946450;" d="M195.372,253.885c-3.02,0-5.866-1.837-7.007-4.825l-19.389-50.743
		c-1.479-3.869,0.46-8.204,4.329-9.683c3.867-1.479,8.204,0.46,9.683,4.329l19.389,50.743c1.478,3.869-0.46,8.204-4.329,9.683
		C197.167,253.725,196.261,253.885,195.372,253.885z"/>
</g>
<g>
	<path style="fill:#A67E74;" d="M263.429,257.269c-2.287,0-4.544-1.041-6.016-3.015c-2.478-3.319-1.795-8.019,1.524-10.496
		l104.28-77.831c3.319-2.477,8.018-1.795,10.496,1.525c2.478,3.319,1.795,8.018-1.524,10.496l-104.28,77.831
		C266.563,256.783,264.989,257.269,263.429,257.269z"/>
	<path style="fill:#A67E74;" d="M314.487,219.164c-0.343,0-0.69-0.023-1.039-0.072c-4.103-0.569-6.968-4.356-6.398-8.459
		l7.388-53.267c0.569-4.103,4.355-6.972,8.459-6.398c4.103,0.569,6.968,4.356,6.398,8.459l-7.388,53.267
		C321.386,216.447,318.172,219.164,314.487,219.164z"/>
</g>
<g>
	<path style="fill:#946450;" d="M272.208,317.03c-1.958,0-3.914-0.762-5.384-2.279c-2.884-2.973-2.811-7.722,0.163-10.605
		l62.965-61.063c2.973-2.884,7.722-2.811,10.605,0.163c2.884,2.973,2.811,7.722-0.163,10.605l-62.965,61.063
		C275.972,316.327,274.088,317.03,272.208,317.03z"/>
	<path style="fill:#946450;" d="M309.659,280.704c-3.428,0-6.521-2.365-7.309-5.849c-0.913-4.041,1.622-8.056,5.663-8.968
		l49.176-11.11c4.038-0.914,8.056,1.622,8.968,5.663c0.913,4.04-1.622,8.056-5.663,8.968l-49.176,11.11
		C310.762,280.644,310.206,280.704,309.659,280.704z"/>
</g>
<path style="fill:#A67E74;" d="M263.423,172.173L263.423,172.173c-5.523,0-10.095,4.293-10.444,9.805l-19.978,316.199
	c-0.473,7.489,5.473,13.823,12.977,13.823h34.889c7.504,0,13.45-6.334,12.977-13.823l-19.978-316.199
	C273.519,176.466,268.946,172.173,263.423,172.173z"/>
<path style="fill:#946450;" d="M246.41,285.962l-13.408,212.215c-0.473,7.489,5.473,13.823,12.977,13.823h34.889
	c7.504,0,13.45-6.334,12.977-13.823l-0.883-13.983l0,0C262.331,461.795,250.046,365.743,246.41,285.962z"/>
<path style="fill:#875541;" d="M256.006,484.082c-0.129,0-0.258-0.003-0.389-0.01c-4.137-0.211-7.319-3.736-7.108-7.873
	l2.292-44.924c0.211-4.137,3.725-7.321,7.872-7.108c4.137,0.211,7.319,3.736,7.108,7.873l-2.292,44.924
	C263.286,480.97,259.973,484.082,256.006,484.082z"/>
<path style="fill:#946450;" d="M267.831,393.2c-3.958,0-7.269-3.099-7.483-7.099l-1.549-28.917
	c-0.222-4.136,2.952-7.669,7.088-7.891c4.131-0.234,7.669,2.952,7.891,7.088l1.549,28.917c0.222,4.136-2.952,7.669-7.088,7.891
	C268.102,393.197,267.966,393.2,267.831,393.2z"/>
<g>
</g>
<g>
</g>
<g>
</g>
<g>
</g>
<g>
</g>
<g>
</g>
<g>
</g>
<g>
</g>
<g>
</g>
<g>
</g>
<g>
</g>
<g>
</g>
<g>
</g>
<g>
</g>
<g>
</g>
</svg>
