<svg height="511pt" viewBox="-17 1 511 511.99923" width="511pt" xmlns="http://www.w3.org/2000/svg"><path d="m470.855469 189.507812-.148438-.25c-5.640625-9.4375-8.175781-20.40625-7.246093-31.363281l.046874-.585937c1.613282-19.097656-7.300781-37.558594-23.257812-48.164063-9.488281-6.304687-16.664062-15.523437-20.453125-26.261719l-.289063-.8125c-6.21875-17.628906-21.335937-30.617187-39.699218-34.117187l-.234375-.042969c-11.589844-2.210937-22.101563-8.253906-29.835938-17.164062l-.515625-.59375c-12.054687-13.882813-30.492187-20.453125-48.613281-17.320313l-.425781.074219c-11.851563 2.050781-24.050782-.027344-34.550782-5.890625l-.640624-.355469c-15.910157-8.878906-35.285157-8.878906-51.195313 0l-.640625.355469c-10.503906 5.863281-22.699219 7.941406-34.550781 5.890625l-.425781-.070312c-18.121094-3.136719-36.558594 3.433593-48.617188 17.320312l-.511719.589844c-7.734375 8.910156-18.246093 14.957031-29.835937 17.164062l-.234375.042969c-18.359375 3.5-33.480469 16.488281-39.699219 34.117187l-.289062.808594c-3.789063 10.738282-10.96875 19.957032-20.453126 26.261719-15.957031 10.609375-24.875 29.066406-23.257812 48.164063l.050781.589843c.925781 10.953125-1.609375 21.921875-7.246093 31.359375l-.152344.253906c-9.914063 16.589844-9.910156 37.28125 0 53.871094l.148437.253906c5.640625 9.4375 8.171875 20.402344 7.246094 31.359376l-.046875.589843c-1.617188 19.09375 7.296875 37.554688 23.257812 48.164063 9.484376 6.304687 16.664063 15.519531 20.453126 26.261718l.289062.808594c6.21875 17.628906 21.339844 30.621094 39.699219 34.117188l.238281.046875c11.589844 2.207031 22.097656 8.25 29.832031 17.160156l.515625.59375c12.054688 13.886719 30.496094 20.457031 48.613282 17.320313l.425781-.074219c11.851562-2.050781 24.050781.03125 34.550781 5.890625l.640625.359375c15.910156 8.878906 35.285156 8.878906 51.195313 0l.640624-.359375c10.503907-5.859375 22.699219-7.941406 34.550782-5.890625l.425781.074219c18.121094 3.132812 36.558594-3.433594 48.613281-17.320313l.515625-.59375c7.734375-8.90625 18.246094-14.953125 29.835938-17.160156l.234375-.046875c18.359375-3.496094 33.480468-16.488282 39.699218-34.113282l.289063-.8125c3.789063-10.738281 10.964844-19.953124 20.453125-26.257812 15.957031-10.609375 24.871094-29.070312 23.257812-48.164062l-.046874-.59375c-.929688-10.953126 1.609374-21.921876 7.246093-31.359376l.148438-.253906c9.910156-16.589844 9.910156-37.28125 0-53.871094zm0 0" fill="#36d39a"/><path d="m259.125 421.078125-.640625-.355469c-10.5-5.863281-22.699219-7.941406-34.550781-5.890625l-.425782.070313c-18.121093 3.136718-36.558593-3.433594-48.617187-17.320313l-.511719-.589843c-7.734375-8.910157-18.246094-14.957032-29.835937-17.164063l-.234375-.046875c-18.363282-3.496094-33.480469-16.488281-39.703125-34.113281l-.285157-.8125c-3.789062-10.738281-10.96875-19.957031-20.453124-26.261719-15.960938-10.609375-24.875-29.066406-23.261719-48.164062l.054687-.589844c.925782-10.953125-1.609375-21.921875-7.246094-31.359375l-.152343-.25c-9.910157-16.59375-9.910157-37.285157 0-53.875l.152343-.25c5.636719-9.4375 8.171876-20.40625 7.246094-31.359375l-.050781-.59375c-1.613281-19.09375 7.300781-37.554688 23.261719-48.164063 9.484375-6.304687 16.660156-15.519531 20.453125-26.261719l.285156-.808593c6.21875-17.625 21.339844-30.621094 39.699219-34.117188l.238281-.042969c11.589844-2.207031 22.097656-8.253906 29.832031-17.164062l.515625-.589844c4.027344-4.636718 8.773438-8.4375 13.976563-11.355468-3.417969.085937-6.855469-.152344-10.265625-.742188l-.425781-.070312c-18.117188-3.136719-36.558594 3.433593-48.613282 17.320312l-.515625.589844c-7.734375 8.910156-18.242187 14.953125-29.832031 17.164062l-.238281.042969c-18.359375 3.496094-33.480469 16.488281-39.699219 34.113281l-.285156.8125c-3.792969 10.738282-10.96875 19.957032-20.453125 26.261719-15.960938 10.609375-24.875 29.066406-23.261719 48.164063l.050781.589843c.925781 10.953125-1.609375 21.921875-7.246093 31.359375l-.152344.253906c-9.910156 16.589844-9.910156 37.28125 0 53.871094l.152344.253906c5.636718 9.4375 8.171874 20.40625 7.246093 31.359376l-.050781.589843c-1.613281 19.09375 7.300781 37.554688 23.261719 48.164063 9.484375 6.304687 16.660156 15.523437 20.453125 26.261718l.285156.8125c6.21875 17.625 21.339844 30.617188 39.699219 34.113282l.238281.046875c11.589844 2.207031 22.097656 8.253906 29.832031 17.164062l.515625.589844c12.054688 13.886719 30.496094 20.457031 48.613282 17.320313l.425781-.070313c11.855469-2.054687 24.050781.027344 34.554687 5.886719l.640625.359375c15.90625 8.878906 35.28125 8.878906 51.191407 0l.640624-.359375c.640626-.355469 1.292969-.699219 1.945313-1.03125-2.894531-1-5.726563-2.242188-8.453125-3.761719zm0 0" fill="#00c680"/><path d="m400.871094 244.882812c-8.578125-7.089843-21.28125-5.890624-28.375 2.691407-.082032.097656-8.949219 10.203125-28.214844 19.707031-4.265625 2.105469-9.210938 4.253906-14.84375 6.273438-8.34375 2.988281-15.230469-7.128907-9.417969-13.816407 19.855469-22.851562 38.4375-51.535156 47.195313-84.898437 2.824218-10.765625-3.609375-21.785156-14.375-24.609375-10.769532-2.824219-21.785156 3.609375-24.613282 14.375-9.054687 34.507812-32.296874 63.746093-54.011718 84.816406-5.480469 5.320313-14.664063 1.402344-14.664063-6.234375v-121.851562c0-10.929688-8.5-20.238282-19.421875-20.625-11.464844-.40625-20.886718 8.765624-20.886718 20.140624v122.335938c0 7.636719-9.183594 11.554688-14.664063 6.234375-21.714844-21.070313-44.957031-50.308594-54.015625-84.816406-2.824219-10.765625-13.839844-17.199219-24.609375-14.375-10.765625 2.824219-17.203125 13.84375-14.375 24.609375 8.757813 33.363281 27.339844 62.046875 47.195313 84.898437 5.8125 6.6875-1.074219 16.804688-9.417969 13.816407-5.636719-2.019532-10.578125-4.167969-14.847657-6.273438-19.261718-9.503906-28.132812-19.613281-28.210937-19.707031-7.09375-8.582031-19.796875-9.78125-28.375-2.691407-8.578125 7.09375-9.78125 19.796876-2.6875 28.375 1.382813 1.675782 24.472656 28.796876 74.78125 42.753907 11.007813 3.054687 18.679687 13.007812 18.679687 24.433593 0 64.835938-1.867187 110.1875-29.570312 146.835938-7.675781 10.15625-.351562 24.71875 12.378906 24.71875h175.785156c12.730469 0 20.054688-14.5625 12.378907-24.71875-27.699219-36.648438-29.570313-82-29.570313-146.835938 0-11.425781 7.671875-21.378906 18.679688-24.433593 50.308594-13.957031 73.398437-41.078125 74.78125-42.753907 7.09375-8.578124 5.890625-21.28125-2.6875-28.375zm0 0" fill="#de8a57"/><path d="m150.011719 316.011719c11.011719 3.054687 18.683593 13.007812 18.683593 24.433593 0 64.835938-1.871093 110.1875-29.570312 146.835938-7.675781 10.15625-.351562 24.71875 12.378906 24.71875 39.777344 0 71.480469-182.648438-1.492187-195.988281zm0 0" fill="#c66d33"/><g fill="#333941"><path d="m184.753906 309.769531c-4.269531 0-7.726562-3.460937-7.726562-7.726562v-9.890625c0-4.265625 3.457031-7.726563 7.726562-7.726563 4.265625 0 7.722656 3.460938 7.722656 7.726563v9.890625c0 4.265625-3.457031 7.726562-7.722656 7.726562zm0 0"/><path d="m294.039062 309.769531c-4.269531 0-7.726562-3.460937-7.726562-7.726562v-9.890625c0-4.265625 3.457031-7.726563 7.726562-7.726563 4.265626 0 7.726563 3.460938 7.726563 7.726563v9.890625c0 4.265625-3.460937 7.726562-7.726563 7.726562zm0 0"/><path d="m239.394531 315.046875c-7.484375 0-14.523437-3.136719-19.304687-8.605469-2.808594-3.214844-2.480469-8.09375.734375-10.902344 3.210937-2.808593 8.089843-2.480468 10.902343.730469 1.847657 2.113281 4.640626 3.324219 7.667969 3.324219 3.027344 0 5.820313-1.210938 7.671875-3.324219 2.804688-3.210937 7.6875-3.539062 10.902344-.730469 3.210938 2.808594 3.539062 7.6875.730469 10.902344-4.78125 5.46875-11.820313 8.605469-19.304688 8.605469zm0 0"/></g></svg>