<svg id="Capa_1" enable-background="new 0 0 512 512" height="512" viewBox="0 0 512 512" width="512" xmlns="http://www.w3.org/2000/svg"><g><path d="m191.238 253.384c-3.356 8.883-7.741 19.578-11.93 29.491-100.587-42.09-151.21-158.632-112.167-272.137 2.861-8.307 11.909-12.723 20.226-9.872 8.307 2.861 12.733 11.92 9.871 20.227-26.053 75.739-5.517 158.632 51.107 206.28 13.794 11.611 28.39 20.01 42.893 26.011z" fill="#6dc847"/><path d="m299.695 373.608v118.596c0 10.934 8.863 19.797 19.797 19.797h55.953c10.934 0 19.797-8.863 19.797-19.797v-3.454c0-8.561-6.94-15.501-15.501-15.501-8.561 0-15.501-6.94-15.501-15.501v-84.617z" fill="#d97c41"/><path d="m105.937 373.608v118.596c0 10.934 8.863 19.797 19.797 19.797h55.953c10.934 0 19.797-8.863 19.797-19.797v-3.454c0-8.561-6.94-15.501-15.501-15.501-8.561 0-15.501-6.94-15.501-15.501v-84.617z" fill="#c76d33"/><path d="m109.282 303.174-24.673 36.027c-.01 0-.021-.01-.031-.01-29.261-12.614-63.275-43.097-82.224-77.232-3.798-6.557-1.565-14.936 4.982-18.734 5.867-3.397 13.196-1.966 17.396 3.057 22.71 27.252 48.775 50.994 84.55 56.892z" fill="#c76d33"/><path d="m395.243 240.26v86.444c0 37.877-22.936 76.316-60.814 76.316-13.495 0-24.437 10.942-24.437 24.437v29.81c0 8.636 7.061 15.399 15.687 15.502 8.471.113 15.306 7.01 15.306 15.502v2.666c0 11.374-9.213 20.587-20.587 20.587h-44.076c-11.374 0-20.587-9.213-20.587-20.587v-69.667c0-10.077-8.173-18.25-18.25-18.25h-40.535s-95.543-55.574-3.994-132.641h59.115l34.668-29.007z" fill="#e4996d"/><path d="m116.23 421.27v35.996c0 8.494 6.868 15.502 15.502 15.502 8.564 0 15.502 6.948 15.502 15.502v2.666c0 11.374-9.223 20.587-20.587 20.587h-44.087c-11.364 0-20.587-9.213-20.587-20.587v-145.961c0-41.186 33.156-74.596 76.501-74.596h54.483c-15.255 26.598-30.983 74.771 3.994 132.641h-62.471c-10.077 0-18.25 8.173-18.25 18.25z" fill="#d97c41"/><path d="m399.5 300.29c-43.222 12.967-89.298 12.967-132.52 0-6.673-2.002-11.243-8.144-11.243-15.111v-55.351h155.007v55.351c-.001 13.163-13.678 15.841-11.244 15.111z" fill="#9cda82"/><path d="m333.236 23.255c-8.657 0-16.902.975-24.715 2.786 0 0-168.339 108.444 8.121 243.648 76.92 8.863 132.456-39.011 132.456-119.78 0-58.363-43.273-126.654-115.862-126.654z" fill="#e4996d"/><path d="m320.832 270.102c-65.868-5.414-103.449-54.349-103.449-120.193 0-21.337 5.785-43.998 16.675-64.17 16.212-30.056 42.341-52.244 74.463-59.699-26.897 33.882-96.696 142.134 12.311 244.062z" fill="#d97c41"/><path d="m428.469 309.418c-65.127-53.176 4.106-111.952 9.148-173.561.273-3.334 2.598-7.721 5.011-11.463 3.526-5.469 10.741-7.325 16.422-4.151 20.336 11.361 29.617 46.278 46.765 96.812 10.495 30.926 7.752 62.004-19.253 89.536-14.9 15.188-41.362 16.489-58.093 2.827z" fill="#d97c41"/><path d="m179.918 306.59c-27.006-27.532-29.748-58.61-19.253-89.536 17.148-50.534 26.429-85.45 46.765-96.812 5.68-3.173 12.896-1.318 16.422 4.151 2.412 3.742 4.738 8.129 5.011 11.463 5.042 61.609 74.275 120.385 9.148 173.561-16.732 13.663-43.193 12.362-58.093-2.827z" fill="#c76d33"/><path d="m340.647 272.273c-3.397-1.946-7.339-2.46-11.024-1.534-58.302-11.035-53.639-65.353-53.639-65.353 9.23-14.821 23.252-28.733 25.898-30.057v.01c23.376-19.065 50.665-19.101 80.083 17.972 50.931 64.798-1.719 101.69-41.318 78.962z" fill="#d97c41"/><path d="m329.623 270.739c-1.307.319-2.594.834-3.798 1.523-37.17 21.328-85.518-9.768-49.841-66.876 10.55 21.627 27.648 43.686 53.639 65.353z" fill="#c76d33"/><path d="m309.989 218.124c0 10.701 10.41 23.251 23.251 23.251 22.332 0 38.619-38.752 0-38.752-12.841 0-23.251 4.8-23.251 15.501z" fill="#495560"/><g><g><path d="m284.075 156.091c-4.264 0-7.72-3.456-7.72-7.72 0-3.556-2.893-6.448-6.449-6.448s-6.449 2.893-6.449 6.448c0 4.264-3.456 7.72-7.72 7.72s-7.72-3.456-7.72-7.72c0-12.07 9.819-21.889 21.889-21.889 21.849 0 28.75 29.609 14.169 29.609z" fill="#495560"/></g><g><path d="m410.73 156.091c-4.264 0-7.72-3.456-7.72-7.72 0-3.556-2.893-6.448-6.449-6.448s-6.449 2.893-6.449 6.448c0 4.264-3.456 7.72-7.72 7.72s-7.72-3.456-7.72-7.72c0-12.07 9.819-21.889 21.889-21.889s21.889 9.819 21.889 21.889c0 4.264-3.457 7.72-7.72 7.72z" fill="#495560"/></g></g></g></svg>