<?xml version="1.0" encoding="iso-8859-1"?>
<!-- Generator: Adobe Illustrator 19.0.0, SVG Export Plug-In . SVG Version: 6.00 Build 0)  -->
<svg version="1.1" id="Capa_1" xmlns="http://www.w3.org/2000/svg" xmlns:xlink="http://www.w3.org/1999/xlink" x="0px" y="0px"
	 viewBox="0 0 512 512" style="enable-background:new 0 0 512 512;" xml:space="preserve">
<path style="fill:#72CEF7;" d="M408.325,512H103.675c-34.756,0-62.931-28.175-62.931-62.931V62.931C40.745,28.175,68.92,0,103.675,0
	h304.648c34.756,0,62.931,28.175,62.931,62.931v386.138C471.255,483.825,443.08,512,408.325,512z"/>
<path style="fill:#53B8E5;" d="M371.893,389.565c3.577-6.632-187.972-179.406-187.972-179.406V47.456c0,0-3.55-47.456,43.173-47.456
	H103.675C68.92,0,40.745,28.175,40.745,62.931v386.139c0,34.755,28.175,62.931,62.931,62.931h157.111
	C260.786,512,325.267,495.131,371.893,389.565z"/>
<path style="fill:#FFEB99;" d="M408.325,0H103.675C68.92,0,40.745,28.175,40.745,62.931v70.693h430.511V62.931
	C471.255,28.175,443.08,0,408.325,0z"/>
<path style="fill:#FFDE55;" d="M40.745,62.931v70.693h143.177V47.456c0,0-3.55-47.456,43.173-47.456H103.676
	C68.92,0,40.745,28.175,40.745,62.931z"/>
<path style="fill:#FFCD00;" d="M202.532,86.497h-88.736c-10.826,0-19.685-8.859-19.685-19.685l0,0
	c0-10.826,8.857-19.685,19.685-19.685h88.736c10.826,0,19.685,8.857,19.685,19.685l0,0
	C222.216,77.639,213.359,86.497,202.532,86.497z"/>
<path style="fill:#FFB600;" d="M94.112,66.812c0,10.826,8.859,19.685,19.685,19.685h70.124V47.456c0,0-0.008-0.115-0.02-0.329
	h-70.106C102.971,47.128,94.112,55.985,94.112,66.812z"/>
<path style="fill:#BDEBFF;" d="M409.845,86.497H369.6c-10.826,0-19.685-8.859-19.685-19.685l0,0
	c0-10.826,8.859-19.685,19.685-19.685h40.245c10.826,0,19.685,8.857,19.685,19.685l0,0C429.53,77.639,420.672,86.497,409.845,86.497
	z"/>
<circle style="fill:#92D8FF;" cx="287.627" cy="66.812" r="26.836"/>
<path style="fill:#FFEB99;" d="M402.927,364.49h-37.977v-85.539h37.977c14.692,0,26.602,11.91,26.602,26.602v32.333
	C429.53,352.579,417.62,364.49,402.927,364.49z"/>
<circle style="fill:#BDEBFF;" cx="256" cy="322.818" r="133.728"/>
<circle style="fill:#898890;" cx="256" cy="322.818" r="80.319"/>
<path style="fill:#68686D;" d="M217.286,322.812c0-37.163,25.245-68.416,59.517-77.584c-6.636-1.775-13.607-2.736-20.802-2.736
	c-44.359,0-80.319,35.961-80.319,80.319S211.641,403.13,256,403.13c7.197,0,14.166-0.961,20.802-2.736
	C242.531,391.229,217.286,359.975,217.286,322.812z"/>
<path style="fill:#FFFFFF;" d="M225.99,320.341l-40.663,40.663c2.514,4.641,5.471,9.005,8.815,13.038l42.774-42.774
	c3.017-3.017,3.017-7.909,0-10.927C233.9,317.323,229.007,317.324,225.99,320.341z"/>
<path style="fill:#D7F3FF;" d="M185.326,361.003c2.513,4.641,5.471,9.005,8.815,13.038l26.904-26.904
	c-1.857-5.85-3.046-11.993-3.515-18.338L185.326,361.003z"/>
<g>
	<path style="fill:#FFFFFF;" d="M330.189,292.008L283.697,338.5c-3.017,3.017-3.017,7.909,0,10.927c3.017,3.018,7.91,3.017,10.927,0
		l40.479-40.479C334.076,303.058,332.424,297.383,330.189,292.008z"/>
	<path style="fill:#FFFFFF;" d="M248.762,308.496c-3.017-3.017-3.017-7.91,0-10.927l17.986-17.986c3.017-3.017,7.909-3.017,10.927,0
		c3.017,3.017,3.017,7.91,0,10.927l-17.986,17.986C256.671,311.513,251.779,311.513,248.762,308.496z"/>
</g>
<g>
</g>
<g>
</g>
<g>
</g>
<g>
</g>
<g>
</g>
<g>
</g>
<g>
</g>
<g>
</g>
<g>
</g>
<g>
</g>
<g>
</g>
<g>
</g>
<g>
</g>
<g>
</g>
<g>
</g>
</svg>
