<svg id="Capa_1" enable-background="new 0 0 497 497" height="512" viewBox="0 0 497 497" width="512" xmlns="http://www.w3.org/2000/svg"><g><g><g><path d="m497 297.25c0-85.514-54.02-158.638-129.722-187.069h-134.889v374.15h134.875c75.702-28.432 129.736-101.567 129.736-187.081z" fill="#efedff"/><path d="m237.5 297.25c0-85.538 54.115-158.643 129.778-187.069-21.803-8.189-45.399-12.681-70.028-12.681-109.976 0-199.75 89.571-199.75 199.75 0 109.784 89.272 199.75 199.75 199.75 24.613 0 48.223-4.49 70.014-12.669-75.848-28.474-129.764-101.789-129.764-187.081z" fill="#d4d4ff"/></g><circle cx="297.25" cy="297.25" fill="#d4d4ff" r="120.552"/></g><g><path d="m110.436 22.5h45v75h-45z" fill="#ea5b70"/><g><path d="m158.936 0h-26l-26.469 22.5 26.469 22.5h26c12.426 0 22.5-10.074 22.5-22.5 0-12.427-10.074-22.5-22.5-22.5z" fill="#ffb5c0"/><path d="m132.936 0h-26c-12.426 0-22.5 10.073-22.5 22.5 0 12.426 10.074 22.5 22.5 22.5h26c-12.427-12.426-12.427-32.574 0-45z" fill="#ff8e9e"/></g><g><path d="m157.936 75h-25l-15.29 6.68v68.918h6.291 53.999v-55.598c0-11.046-8.955-20-20-20z" fill="#ffb5c0"/><path d="m107.936 75c-11.046 0-20 8.954-20 20v55.598h36.001v-58.893c0-6.982 3.577-13.128 8.999-16.705z" fill="#ff8e9e"/></g><g><path d="m177.936 120.598-82.613 14.91v73.865l82.613 30 82.746-30c-11.647-40.498-42.115-74-82.746-88.775z" fill="#b9f0ff"/><path d="m177.936 120.598h-90c-40.433 14.703-70.801 48.815-82.575 88.774l42.544 20 47.418-20c3.021-10.313 7.258-20.221 12.597-29.494 15.428-26.802 39.929-48.339 70.016-59.28z" fill="#7ce3ff"/></g><g><path d="m5.36 209.372c-3.486 11.832-5.36 24.171-5.36 36.679 0 19.658 4.494 39.829 14.332 59.247 10.345 20.42 12.365 44.098 5.587 65.961-4.77 15.385-8.776 31.817-11.913 49.082-7.446 40.989 24.637 76.659 64.518 76.659h90l15.411-15.379v-235.57-36.678h-172.575z" fill="#30cd9c"/><path d="m245.953 371.259c-6.779-21.864-4.758-45.542 5.587-65.961 9.838-19.419 14.324-39.589 14.324-59.247 0-12.625-1.807-24.943-5.182-36.678h-165.36c-3.455 11.798-5.313 24.13-5.315 36.678-.003 19.658 4.486 39.828 14.324 59.247 10.345 20.42 12.365 44.098 5.587 65.961-4.193 13.526-7.795 27.862-10.736 42.86-.404 2.062-.797 4.135-1.176 6.222-7.446 40.989 24.637 76.659 64.518 76.659h30.823c39.875 0 71.966-35.663 64.518-76.659-3.136-17.265-7.142-33.697-11.912-49.082z" fill="#70dcba"/></g></g><g fill="#ff8e9e"><path d="m63.441 271.312c-14.088 0-25.509 9.058-25.509 20.231 0 11.174 11.421 20.232 25.509 20.232s25.509-9.058 25.509-20.232c0-11.173-11.42-20.231-25.509-20.231z"/><path d="m202.423 271.312c-14.088 0-25.509 9.058-25.509 20.231 0 11.174 11.421 20.232 25.509 20.232s25.509-9.058 25.509-20.232c0-11.173-11.421-20.231-25.509-20.231z"/></g><g fill="#313d40"><path d="m70.839 252.188c-4.142 0-7.5 3.357-7.5 7.5v12c0 4.143 3.358 7.5 7.5 7.5s7.5-3.357 7.5-7.5v-12c0-4.142-3.358-7.5-7.5-7.5z"/><path d="m195.839 252.188c-4.142 0-7.5 3.357-7.5 7.5v12c0 4.143 3.358 7.5 7.5 7.5s7.5-3.357 7.5-7.5v-12c0-4.142-3.358-7.5-7.5-7.5z"/><path d="m153.731 265.657c-3.124-2.722-7.861-2.396-10.582.727-2.729 3.133-6.669 4.929-10.81 4.929s-8.081-1.796-10.81-4.929c-2.721-3.122-7.459-3.447-10.582-.727-3.123 2.722-3.448 7.459-.727 10.582 5.579 6.401 13.641 10.073 22.119 10.073s16.54-3.672 22.119-10.073c2.721-3.123 2.396-7.86-.727-10.582z"/></g><path d="m456.526 142.928c-8.995-2.35-15.959-9.273-18.302-18.27-1.792-6.882-5.435-11.859-9.885-11.859-4.458 0-8.086 4.971-9.876 11.831-2.347 8.995-9.284 15.945-18.279 18.29-6.871 1.791-11.845 5.427-11.845 9.88 0 4.456 4.972 8.088 11.837 9.878 8.988 2.344 15.937 9.276 18.279 18.265 1.792 6.881 5.434 11.857 9.884 11.857 4.458 0 8.086-4.971 9.876-11.831 2.347-8.995 9.284-15.945 18.279-18.29 6.871-1.791 11.845-5.427 11.845-9.88 0-4.463-4.967-8.082-11.813-9.871z" fill="#7ce3ff"/></g></svg>