<svg id="Capa_1" enable-background="new 0 0 512 512" viewBox="0 0 512 512" xmlns="http://www.w3.org/2000/svg"><g><path d="m292.928 136.437-101.348 32.83c-77.674 25.161-101.333 123.512-43.599 181.246s156.085 34.075 181.247-43.599l32.83-101.348-7.528-58.096z" fill="#e8ecf9"/><g fill="#8697a6"><path d="m150.138 335.613-14.536-3.703 1.852-7.268c8.079-31.718 45.355-84.41 93.751-117.686l90.569-62.273 8.499 12.36-90.57 62.274c-44.886 30.863-80.479 80.624-87.714 109.028z"/><path d="m219.996 340.264-9.204-11.844 5.923-4.602c18.969-14.74 45.638-40.563 62.46-65.027l61.91-90.041 12.36 8.499-61.911 90.042c-17.732 25.789-45.732 52.922-65.616 68.373z"/><path d="m126.663 336.654-3.558-6.603c-16.655-30.914-18.548-67.729-5.192-101.007 13.031-32.466 38.372-56.23 71.355-66.915l123.057-39.862 4.622 14.27-123.056 39.861c-28.675 9.289-50.714 29.969-62.058 58.232-11.521 28.706-9.848 61.717 4.477 88.305l3.558 6.603z"/><path d="m322.968 338.277-13.261-7.01 3.505-6.63c3.067-5.803 7.103-14.548 8.881-20.035l40.974-126.491 14.271 4.623-40.975 126.491c-2.136 6.593-6.623 16.245-9.889 22.422z"/></g><path d="m483.742 86.006-78.226 78.226c-36.257-13.891-43.495-85.234 7.27-149.772 19.695-19.376 51.366-19.282 70.943.296 19.684 19.671 19.684 51.579.013 71.25z" fill="#91d4f2"/><path d="m405.516 164.232-32.569 32.745c-4.624 4.649-12.144 4.659-16.78.023l-54.478-54.478c-4.624-4.624-4.628-12.121-.008-16.75l110.81-111.015c.095-.095.189-.189.296-.296-27.415 50.171-22.71 110.806-7.271 149.771z" fill="#59c2e8"/><path d="m459.446 356.331c-8.529 57.763-42.234 108.426-88.859 143.977-9.892 7.546-21.967 11.692-34.414 11.692h-60.236c-90.694-14.613-130.748-90.979-134.992-161.597-1.318-9.902 3.776-21.025 27.948-25.613h263.231c16.811-.001 29.777 14.911 27.322 31.541z" fill="#fd7a6e"/><path d="m275.936 512h-138.857c-12.447 0-24.522-4.146-34.423-11.693-46.616-35.551-80.331-86.213-88.85-143.977-2.455-16.63 10.502-31.541 27.313-31.541h127.774c-6.692 6.328-10.429 15.712-9.11 25.613 4.245 70.623 51.415 134.321 116.153 161.598z" fill="#f85647"/><path d="m172.291 428.396c-4.143 0-7.5-3.358-7.5-7.5v-12.362c0-4.142 3.357-7.5 7.5-7.5s7.5 3.358 7.5 7.5v12.362c0 4.143-3.357 7.5-7.5 7.5z" fill="#495560"/><path d="m300.958 428.396c-4.143 0-7.5-3.358-7.5-7.5v-12.362c0-4.142 3.357-7.5 7.5-7.5s7.5 3.358 7.5 7.5v12.362c0 4.143-3.357 7.5-7.5 7.5z" fill="#495560"/><path d="m236.625 435.755c-8.669 0-16.912-3.754-22.616-10.3-2.722-3.123-2.396-7.86.727-10.582 3.122-2.721 7.859-2.397 10.582.727 2.854 3.275 6.976 5.154 11.308 5.154 4.331 0 8.452-1.879 11.307-5.154 2.722-3.124 7.457-3.448 10.582-.727 3.122 2.721 3.448 7.459.727 10.582-5.706 6.546-13.949 10.3-22.617 10.3z" fill="#495560"/></g><g/><g/><g/><g/><g/><g/><g/><g/><g/><g/><g/><g/><g/><g/><g/></svg>