<svg height="512pt" viewBox="-129 0 512 512" width="512pt" xmlns="http://www.w3.org/2000/svg"><path d="m56.125 56.683594c-.128906 1.929687-10.597656 44.742187-42.40625 70.304687-9.515625 7.648438-11.015625 21.558594-3.292969 31.015625.125.152344 10.898438 12.523438 25.542969 6.9375 22.867188-8.722656 64.800781-31.066406 88.148438-74.796875-1.570313.660157-67.992188-33.460937-67.992188-33.460937zm0 0" fill="#b18cd9"/><path d="m80.953125 62.796875h-47.558594c-8.953125 0-16.210937-7.257813-16.210937-16.210937v-16.191407c0-8.953125 7.257812-16.210937 16.210937-16.210937h47.558594zm0 0" fill="#889cb0"/><path d="m103.144531 107.890625-43.460937-28.5625c-7.789063-5.117187-12.480469-13.8125-12.480469-23.136719v-34.621094c0-11.914062 9.65625-21.570312 21.570313-21.570312h103.5625c20.109374 0 38.804687 10.324219 49.519531 27.339844l28.398437 45.101562c9.695313 15.402344-1.371094 35.449219-19.570312 35.449219zm0 0" fill="#c2eafb"/><path d="m108.8125 0h-40.039062c-11.914063 0-21.570313 9.65625-21.570313 21.570312v34.621094c0 9.324219 4.691406 18.019532 12.480469 23.136719l43.460937 28.5625h57.378907c-25.503907-32.285156-59.40625-35.011719-67.402344-56.511719-12.664063-34.054687 15.691406-51.378906 15.691406-51.378906zm0 0" fill="#91d4f2"/><path d="m184.539062 183.09375h-66.683593c-13.660157 0-24.734375-11.074219-24.734375-24.734375v-29.527344c0-13.660156 11.074218-24.734375 24.734375-24.734375h66.683593c13.660157 0 24.734376 11.074219 24.734376 24.734375v29.527344c0 13.660156-11.074219 24.734375-24.734376 24.734375zm0 0" fill="#59c2e8"/><g fill="#00aede"><path d="m124.117188 204.367188c-4.265626 0-7.726563-3.460938-7.726563-7.726563v-65.546875c0-4.269531 3.460937-7.726562 7.726563-7.726562 4.265624 0 7.726562 3.457031 7.726562 7.726562v65.546875c0 4.265625-3.457031 7.726563-7.726562 7.726563zm0 0"/><path d="m151.199219 204.367188c-4.269531 0-7.726563-3.460938-7.726563-7.726563v-65.546875c0-4.269531 3.457032-7.726562 7.726563-7.726562 4.265625 0 7.726562 3.457031 7.726562 7.726562v65.546875c0 4.265625-3.460937 7.726563-7.726562 7.726563zm0 0"/><path d="m178.277344 204.367188c-4.265625 0-7.726563-3.460938-7.726563-7.726563v-65.546875c0-4.269531 3.460938-7.726562 7.726563-7.726562 4.269531 0 7.726562 3.457031 7.726562 7.726562v65.546875c0 4.265625-3.457031 7.726563-7.726562 7.726563zm0 0"/></g><path d="m54.777344 209.023438c-2.375 28.832031-10.992188 71.429687-39.292969 103.523437-9.957031 11.285156-15.4296875 25.820313-15.4140625 40.871094.0351565 30.460937-.0195313 81.265625-.0703125 117.152343-.03125 22.878907 18.503906 41.429688 41.378906 41.429688h165.539063c22.855469 0 41.382812-18.527344 41.382812-41.378906v-258.59375c0-19.390625-15.71875-35.109375-35.109375-35.109375h-123.433594c-18.230468 0-33.480468 13.941406-34.980468 32.105469zm0 0" fill="#c2eafb"/><path d="m54.777344 209.027344c-2.375 28.828125-10.992188 71.429687-39.292969 103.519531-9.957031 11.289063-15.4296875 25.824219-15.4140625 40.871094.0351565 30.460937-.0195313 81.269531-.0703125 117.15625-.03125 22.875 18.503906 41.425781 41.378906 41.425781h55.621094c-43.28125-165.257812 6.460938-145.660156 14.109375-235.570312 8.34375-98.035157 54.148437-99.511719 54.148437-99.511719h-75.503906c-18.226562 0-33.476562 13.941406-34.976562 32.109375zm0 0" fill="#91d4f2"/><path d="m144.085938 268.367188c-53.039063-36.710938-100.925782-3.875-100.925782-3.875-5.992187 16.664062-14.800781 33.453124-27.675781 48.054687-9.953125 11.289063-15.4296875 25.824219-15.4140625 40.871094.0351565 30.460937-.0195313 81.269531-.0703125 117.15625-.03125 22.875 18.503906 41.425781 41.378906 41.425781h165.539063c22.855469 0 41.382812-18.527344 41.382812-41.378906v-197.738282s-51.179687 32.199219-104.214843-4.515624zm0 0" fill="#91d4f2"/><path d="m111.109375 276.429688c.691406-8.101563 1.636719-15.542969 2.789063-22.378907-39.742188-10.816406-70.738282 10.441407-70.738282 10.441407-5.996094 16.664062-14.800781 33.453124-27.675781 48.054687-9.957031 11.289063-15.4296875 25.824219-15.4140625 40.871094.0351565 30.460937-.0195313 81.269531-.0703125 117.15625-.03125 22.875 18.503906 41.425781 41.378906 41.425781h55.621094c-43.277344-165.257812 6.460938-145.660156 14.109375-235.570312zm0 0" fill="#59c2e8"/><path d="m179.011719 471.113281h-109.726563c-13.941406 0-25.238281-11.300781-25.238281-25.238281v-90.929688c0-13.9375 11.300781-25.238281 25.238281-25.238281h109.726563c13.941406 0 25.242187 11.300781 25.242187 25.238281v90.929688c0 13.9375-11.300781 25.238281-25.242187 25.238281zm0 0" fill="#b18cd9"/><path d="m98.914062 329.707031h-29.628906c-13.941406 0-25.238281 11.300781-25.238281 25.238281v90.929688c0 13.9375 11.300781 25.238281 25.238281 25.238281h18.078125c-17.746093-86.726562-1.671875-107.230469 11.550781-141.40625zm0 0" fill="#996acc"/><path d="m172.988281 413.121094c-4.269531 0-7.726562-3.457032-7.726562-7.726563v-12.824219c0-4.269531 3.457031-7.726562 7.726562-7.726562 4.265625 0 7.726563 3.457031 7.726563 7.726562v12.824219c0 4.269531-3.460938 7.726563-7.726563 7.726563zm0 0" fill="#454545"/><path d="m75.3125 413.121094c-4.269531 0-7.726562-3.457032-7.726562-7.726563v-12.824219c0-4.269531 3.457031-7.726562 7.726562-7.726562 4.265625 0 7.726562 3.457031 7.726562 7.726562v12.824219c0 4.269531-3.460937 7.726563-7.726562 7.726563zm0 0" fill="#454545"/><path d="m129.425781 397.675781c-1.730469 2.542969-4.25 2.847657-5.277343 2.847657-1.023438 0-3.589844-.277344-5.277344-2.847657-2.34375-3.566406-7.132813-4.558593-10.699219-2.214843s-4.558594 7.132812-2.214844 10.699218c4.035157 6.148438 10.835938 9.816406 18.191407 9.816406 7.355468 0 14.15625-3.667968 18.195312-9.816406 2.339844-3.566406 1.347656-8.355468-2.21875-10.699218-1.304688-.859376-7.089844-3.082032-10.699219 2.214843zm0 0" fill="#454545"/></svg>