<?xml version="1.0" encoding="UTF-8" standalone="no"?>
<!-- Created with Inkscape (http://www.inkscape.org/) -->

<svg
   version="1.1"
   id="svg3228"
   xml:space="preserve"
   width="682.66669"
   height="682.66669"
   viewBox="0 0 682.66669 682.66669"
   xmlns="http://www.w3.org/2000/svg"
   xmlns:svg="http://www.w3.org/2000/svg"><defs
     id="defs3232"><clipPath
       clipPathUnits="userSpaceOnUse"
       id="clipPath3242"><path
         d="M 0,512 H 512 V 0 H 0 Z"
         id="path3240" /></clipPath></defs><g
     id="g3234"
     transform="matrix(1.3333333,0,0,-1.3333333,0,682.66667)"><g
       id="g3236"><g
         id="g3238"
         clip-path="url(#clipPath3242)"><g
           id="g3244"
           transform="translate(231.0183)"><path
             d="m 0,0 v 0 c -113.791,0 -206.036,92.245 -206.036,206.036 v 99.928 C -206.036,419.755 -113.791,512 0,512 v 0 c 113.791,0 206.036,-92.245 206.036,-206.036 V 206.036 C 206.036,92.245 113.791,0 0,0"
             style="fill:#82baff;fill-opacity:1;fill-rule:nonzero;stroke:none"
             id="path3246" /></g><g
           id="g3248"
           transform="translate(231.0181,512)"><path
             d="m 0,0 v 0 c -113.791,0 -206.036,-92.245 -206.036,-206.036 v -99.928 C -206.036,-419.755 -113.791,-512 0,-512 v 0 c -11.379,0 -20.604,9.225 -20.604,20.604 0,11.379 9.225,20.603 20.604,20.603 v 429.586 c -11.379,0 -20.604,9.224 -20.604,20.603 C -20.604,-9.225 -11.379,0 0,0"
             style="fill:#69a8ff;fill-opacity:1;fill-rule:nonzero;stroke:none"
             id="path3250" /></g><g
           id="g3252"
           transform="translate(66.1891,206.0361)"><path
             d="m 0,0 v 99.928 c 0,91.032 73.796,164.829 164.829,164.829 v 0 c 91.033,0 164.829,-73.797 164.829,-164.829 V 0 c 0,-91.032 -73.796,-164.829 -164.829,-164.829 v 0 C 73.796,-164.829 0,-91.032 0,0"
             style="fill:#f2f6fc;fill-opacity:1;fill-rule:nonzero;stroke:none"
             id="path3254" /></g><g
           id="g3256"
           transform="translate(148.6036,206.0361)"><path
             d="m 0,0 v 99.928 c 0,76.804 52.53,141.338 123.622,159.636 -13.171,3.39 -26.979,5.193 -41.207,5.193 H 82.414 C -8.618,264.757 -82.414,190.96 -82.414,99.928 V 0 c 0,-91.032 73.796,-164.829 164.828,-164.829 h 0.001 c 14.228,0 28.036,1.803 41.207,5.193 C 52.53,-141.338 0,-76.804 0,0"
             style="fill:#e9edf5;fill-opacity:1;fill-rule:nonzero;stroke:none"
             id="path3258" /></g><g
           id="g3260"
           transform="translate(179.2439,247.4817)"><path
             d="m 0,0 c 0,-13.315 -13.554,-24.109 -30.274,-24.109 -16.72,0 -30.275,10.794 -30.275,24.109 0,13.315 13.555,24.109 30.275,24.109 C -13.554,24.109 0,13.315 0,0"
             style="fill:#ffa4d2;fill-opacity:1;fill-rule:nonzero;stroke:none"
             id="path3262" /></g><g
           id="g3264"
           transform="translate(282.7923,247.4817)"><path
             d="m 0,0 c 0,-13.315 13.554,-24.109 30.274,-24.109 16.72,0 30.275,10.794 30.275,24.109 0,13.315 -13.555,24.109 -30.275,24.109 C 13.554,24.109 0,13.315 0,0"
             style="fill:#ffa4d2;fill-opacity:1;fill-rule:nonzero;stroke:none"
             id="path3266" /></g><g
           id="g3268"
           transform="translate(255.4268,266.0056)"><path
             d="m 0,0 c 0,15.085 -10.928,16.502 -24.409,16.502 -13.48,0 -24.408,-1.417 -24.408,-16.502 0,-15.085 10.928,-27.313 24.408,-27.313 C -10.928,-27.313 0,-15.085 0,0"
             style="fill:#555a66;fill-opacity:1;fill-rule:nonzero;stroke:none"
             id="path3270" /></g><g
           id="g3272"
           transform="translate(154.0306,288.6271)"><path
             d="M 0,0 V -12.362"
             style="fill:none;stroke:#555a66;stroke-width:15;stroke-linecap:round;stroke-linejoin:round;stroke-miterlimit:10;stroke-dasharray:none;stroke-opacity:1"
             id="path3274" /></g><g
           id="g3276"
           transform="translate(308.0058,288.6271)"><path
             d="M 0,0 V -12.362"
             style="fill:none;stroke:#555a66;stroke-width:15;stroke-linecap:round;stroke-linejoin:round;stroke-miterlimit:10;stroke-dasharray:none;stroke-opacity:1"
             id="path3278" /></g><g
           id="g3280"
           transform="translate(471.5654,424.4346)"><path
             d="m 0,0 c -39.827,0 -72.113,32.286 -72.113,72.113 v 0 c 0,8.534 -6.918,15.452 -15.452,15.452 -8.535,0 -15.453,-6.918 -15.453,-15.452 v 0 C -103.018,32.286 -135.304,0 -175.131,0 c -8.534,0 -15.452,-6.918 -15.452,-15.453 0,-8.534 6.918,-15.452 15.452,-15.452 39.827,0 72.113,-32.286 72.113,-72.113 v 0 c 0,-8.534 6.918,-15.453 15.453,-15.453 8.534,0 15.452,6.919 15.452,15.453 v 0 c 0,39.827 32.286,72.113 72.113,72.113 8.534,0 15.453,6.918 15.453,15.452 C 15.453,-6.918 8.534,0 0,0"
             style="fill:#fff8c5;fill-opacity:1;fill-rule:nonzero;stroke:none"
             id="path3282" /></g></g></g></g></svg>
