<svg id="Capa_1" enable-background="new 0 0 512 512" height="512" viewBox="0 0 512 512" width="512" xmlns="http://www.w3.org/2000/svg"><g><path id="XMLID_1046_" d="m256 .003c-115.679 0-209.455 93.775-209.455 209.453v255.999h418.909v-255.999c0-115.712-93.84-209.453-209.454-209.453z" fill="#e59188"/><path id="XMLID_923_" d="m298.667 4.357c-13.776-2.851-28.046-4.354-42.667-4.354-115.678 0-209.454 93.775-209.454 209.453v255.999h85.333v-255.999c0-101.057 71.57-185.393 166.788-205.099z" fill="#df695b"/><path id="XMLID_984_" d="m367.736 32.278c-6.781 8.603-9.749 19.92-7.959 30.866 1.97 12.046 9.264 22.325 20.006 28.199l12.893 7.053c2.291 1.251 4.164 3.123 5.423 5.431l7.04 12.87c9.035 16.532 28.548 24.463 46.801 18.618-16.207-42.809-46.036-78.917-84.204-103.037z" fill="#df695b"/><path id="XMLID_910_" d="m256 69.302-23.273-5.405c-70.345 11.158-124.121 72.076-124.121 145.559v7.758l9.823 23.273-9.823 23.273v209.453h294.788v-155.151l16.978-23.273-16.978-23.273v-7.758l-12.671-23.273 12.671-23.273v-7.758c0-73.484-53.776-134.408-124.121-145.566z" fill="#a3e5fd"/><path id="XMLID_873_" d="m236.778 65.768-4.051-1.871c-70.345 11.158-124.121 72.076-124.121 145.559v7.758l16.549 23.273-16.549 23.273v7.758l-19.875 23.273 19.875 23.273v155.151h38.788c0-277.059 0-270.88 0-271.144.04-17.492 6.984-34.262 19.003-46.97 3.607-3.814 7.365-7.781 10.709-11.309 5.139-5.421 10.605-10.529 16.508-15.105 9.852-7.637 15.569-18.973 16.266-30.89.593-10.126 6.063-19.398 14.896-24.387 2.521-1.425 5.357-2.988 7.95-4.322z" fill="#78d4fc"/><path id="XMLID_2336_" d="m256 62.063c7.923 0 15.691.491 23.273 1.827v409.322h-46.545c0-17.269 0-391.858 0-409.315 7.581-1.336 15.349-1.834 23.272-1.834z" fill="#5b586d"/><path d="m108.606 217.214v46.545h294.788v-46.545c-66.884 0-234.892 0-294.788 0z" fill="#4f4d5e"/><path id="XMLID_993_" d="m108.606 217.214h38.788v46.545h-38.788z" fill="#43404f"/><path id="XMLID_2327_" d="m465.454 271.516c12.857 0 23.273 10.416 23.273 23.273 0 12.84-10.405 23.273-23.273 23.273h-62.061v-46.545h62.061z" fill="#edebfd"/><path id="XMLID_2326_" d="m108.606 271.516v46.545h-62.061c-12.84 0-23.273-10.405-23.273-23.273 0-12.857 10.416-23.273 23.273-23.273h62.061z" fill="#d9d9f9"/><path d="m480.794 434.425c-140.16 0-352.819 0-449.588 0-17.232 0-31.206 13.974-31.206 31.206v15.163c0 17.232 13.974 31.206 31.206 31.206h449.588c17.232 0 31.206-13.974 31.206-31.206v-15.163c0-17.232-13.974-31.206-31.206-31.206z" fill="#e79d70"/><path id="XMLID_1033_" d="m57.525 480.794v-15.163c0-17.232 13.974-31.206 31.206-31.206-13.582 0-43.906 0-57.525 0-17.232 0-31.206 13.974-31.206 31.206v15.163c0 17.232 13.974 31.206 31.206 31.206h57.525c-17.232 0-31.206-13.974-31.206-31.206z" fill="#de8057"/><g id="XMLID_201_"><path d="m193.939 485.625c-4.284 0-7.758-3.473-7.758-7.757v-12.412c0-4.284 3.473-7.757 7.758-7.757s7.758 3.473 7.758 7.757v12.412c0 4.283-3.473 7.757-7.758 7.757z" fill="#423e4f"/></g><g id="XMLID_200_"><path d="m318.061 485.625c-4.284 0-7.758-3.473-7.758-7.757v-12.412c0-4.284 3.473-7.757 7.758-7.757s7.758 3.473 7.758 7.757v12.412c-.001 4.283-3.474 7.757-7.758 7.757z" fill="#423e4f"/></g><g id="XMLID_195_"><path d="m256 488.728c-8.766 0-17.104-3.797-22.874-10.418-2.815-3.23-2.478-8.13.751-10.945 3.23-2.814 8.13-2.479 10.945.751 5.911 6.784 16.427 6.802 22.354 0 2.815-3.23 7.715-3.566 10.945-.751s3.566 7.715.751 10.945c-5.769 6.62-14.106 10.418-22.872 10.418z" fill="#423e4f"/></g><path d="m488.334 42.969-12.878-7.044c-6.289-3.434-11.46-8.606-14.895-14.894-2.472-4.519-4.129-7.549-7.044-12.877-5.947-10.871-21.556-10.871-27.503 0l-7.044 12.877c-3.434 6.289-8.606 11.461-14.895 14.894l-12.878 7.044c-10.86 5.962-10.882 21.553 0 27.503l12.878 7.044c6.289 3.434 11.46 8.606 14.895 14.895l7.044 12.878c5.909 10.813 21.523 10.915 27.503 0 2.913-5.326 4.563-8.341 7.044-12.878 3.434-6.289 8.606-11.46 14.895-14.895l12.878-7.044c10.871-5.947 10.871-21.556 0-27.503z" fill="#f6e66a"/><g><path d="m439.941 77.516-12.878-7.044c-10.891-5.955-10.852-21.546 0-27.503l12.878-7.044c6.289-3.434 11.461-8.606 14.895-14.894l2.863-5.235-4.18-7.643c-5.947-10.871-21.556-10.871-27.503 0l-7.044 12.877c-3.434 6.289-8.606 11.461-14.895 14.894l-12.878 7.044c-10.86 5.962-10.882 21.553 0 27.503l12.878 7.044c6.289 3.434 11.46 8.606 14.895 14.895l7.044 12.878c5.909 10.813 21.523 10.915 27.503 0l4.18-7.643-2.863-5.235c-3.435-6.288-8.607-11.46-14.895-14.894z" fill="#f1cd62"/></g><path d="m176.449 78.736-15.391-8.42c-7.509-4.106-13.684-10.281-17.791-17.791-.062-.113-8.476-15.484-8.42-15.381-7.095-12.981-25.745-12.981-32.84 0l-8.419 15.381c-4.106 7.509-10.281 13.684-17.791 17.791l-15.381 8.42c-12.981 7.096-12.981 25.745 0 32.84 1.577.863-5.703-3.122 15.381 8.419 7.509 4.106 13.684 10.281 17.791 17.791l8.419 15.391c7.092 12.943 25.737 13.001 32.84 0 1.818-3.322 6.529-11.936 8.42-15.391 4.106-7.509 10.281-13.684 17.791-17.791l15.391-8.419c13.066-7.146 12.869-25.833 0-32.84z" fill="#f6e66a"/><g><path d="m115.104 119.996c-1.578-.864 5.706 3.123-15.381-8.419-12.981-7.096-12.981-25.745 0-32.84l15.381-8.42c7.509-4.106 13.684-10.281 17.791-17.791l5.187-9.475c-.056-.103-3.446-6.292-3.234-5.906-7.095-12.981-25.745-12.981-32.84 0l-8.419 15.381c-4.106 7.509-10.281 13.684-17.791 17.791l-15.381 8.42c-12.981 7.096-12.981 25.745 0 32.84 1.577.863-5.703-3.122 15.381 8.419 7.509 4.106 13.684 10.281 17.791 17.791l8.419 15.391c7.092 12.943 25.737 13.001 32.84 0l3.234-5.911-5.186-9.48c-4.107-7.51-10.282-13.684-17.792-17.791z" fill="#f1cd62"/></g></g></svg>