<?xml version="1.0" encoding="UTF-8" standalone="no"?>
<!-- Created with Inkscape (http://www.inkscape.org/) -->

<svg
   version="1.1"
   id="svg2196"
   xml:space="preserve"
   width="682.66669"
   height="682.66669"
   viewBox="0 0 682.66669 682.66669"
   xmlns="http://www.w3.org/2000/svg"
   xmlns:svg="http://www.w3.org/2000/svg"><defs
     id="defs2200"><clipPath
       clipPathUnits="userSpaceOnUse"
       id="clipPath2210"><path
         d="M 0,512 H 512 V 0 H 0 Z"
         id="path2208" /></clipPath></defs><g
     id="g2202"
     transform="matrix(1.3333333,0,0,-1.3333333,0,682.66667)"><g
       id="g2204"><g
         id="g2206"
         clip-path="url(#clipPath2210)"><g
           id="g2212"
           transform="translate(491.3964,356.2172)"><path
             d="m 0,0 h -470.793 c -11.379,0 -20.603,9.225 -20.603,20.604 v 113.32 c 0,11.379 9.224,20.603 20.603,20.603 H 0 c 11.379,0 20.604,-9.224 20.604,-20.603 V 20.604 C 20.604,9.225 11.379,0 0,0"
             style="fill:#636978;fill-opacity:1;fill-rule:nonzero;stroke:none"
             id="path2214" /></g><g
           id="g2216"
           transform="translate(82.4145,376.8208)"><path
             d="m 0,0 v 113.32 c 0,11.379 9.225,20.604 20.604,20.604 h -82.415 c -11.379,0 -20.603,-9.225 -20.603,-20.604 V 0 c 0,-11.379 9.224,-20.604 20.603,-20.604 H 20.604 C 9.225,-20.604 0,-11.379 0,0"
             style="fill:#555a66;fill-opacity:1;fill-rule:nonzero;stroke:none"
             id="path2218" /></g><g
           id="g2220"
           transform="translate(491.3964,510.7444)"><path
             d="m 0,0 h -470.793 c -11.379,0 -20.603,-9.225 -20.603,-20.604 v -20.603 h 512 v 20.603 C 20.604,-9.225 11.379,0 0,0"
             style="fill:#707789;fill-opacity:1;fill-rule:nonzero;stroke:none"
             id="path2222" /></g><g
           id="g2224"
           transform="translate(82.4145,490.1407)"><path
             d="M 0,0 V -20.604 H -82.414 V 0 c 0,11.379 9.224,20.604 20.603,20.604 H 20.604 C 9.225,20.604 0,11.379 0,0"
             style="fill:#636978;fill-opacity:1;fill-rule:nonzero;stroke:none"
             id="path2226" /></g><g
           id="g2228"
           transform="translate(378.1351,397.4244)"><path
             d="m 0,0 h -244.108 c -11.379,0 -20.604,-9.225 -20.604,-20.604 v -20.603 c 0,-22.758 18.449,-41.207 41.207,-41.207 h 11.624 c 24.169,0 43.148,-20.704 41.052,-44.782 l -17.164,-197.132 c -3.363,-38.626 27.085,-71.841 65.858,-71.841 v 0 c 38.773,0 69.221,33.215 65.858,71.841 l -17.164,197.132 c -2.096,24.078 16.883,44.782 41.052,44.782 h 11.785 c 22.759,0 41.208,18.449 41.208,41.207 v 20.603 C 20.604,-9.225 11.379,0 0,0"
             style="fill:#95e8c8;fill-opacity:1;fill-rule:nonzero;stroke:none"
             id="path2230" /></g><g
           id="g2232"
           transform="translate(256,63.0665)"><path
             d="m 0,0 v 272.547 c 0,11.379 9.225,20.604 20.604,20.604 h 122.135 v 20.603 c 0,11.379 -9.225,20.604 -20.604,20.604 h -244.108 c -11.379,0 -20.604,-9.225 -20.604,-20.604 v -20.603 c 0,-22.759 18.449,-41.208 41.207,-41.208 h 11.624 c 24.169,0 43.148,-20.704 41.052,-44.781 L -65.858,10.03 C -69.221,-28.597 -38.773,-61.811 0,-61.811 v 0 c 11.433,0 22.131,2.906 31.463,7.969 C 12.685,-43.234 0,-23.105 0,0"
             style="fill:#82d9b6;fill-opacity:1;fill-rule:nonzero;stroke:none"
             id="path2234" /></g><g
           id="g2236"
           transform="translate(202.8374,364.3656)"><path
             d="M 0,0 V -10.216"
             style="fill:none;stroke:#555a66;stroke-width:15;stroke-linecap:round;stroke-linejoin:round;stroke-miterlimit:10;stroke-dasharray:none;stroke-opacity:1"
             id="path2238" /></g><g
           id="g2240"
           transform="translate(309.1626,364.3656)"><path
             d="M 0,0 V -10.216"
             style="fill:none;stroke:#555a66;stroke-width:15;stroke-linecap:round;stroke-linejoin:round;stroke-miterlimit:10;stroke-dasharray:none;stroke-opacity:1"
             id="path2242" /></g><g
           id="g2244"
           transform="translate(241.984,354.4541)"><path
             d="m 0,0 c 3.408,-3.911 8.421,-6.385 14.016,-6.385 5.595,0 10.608,2.474 14.016,6.385"
             style="fill:none;stroke:#555a66;stroke-width:15;stroke-linecap:round;stroke-linejoin:round;stroke-miterlimit:10;stroke-dasharray:none;stroke-opacity:1"
             id="path2246" /></g></g></g></g></svg>
